<svg xmlns="http://www.w3.org/2000/svg" version="1.1" xmlns:xlink="http://www.w3.org/1999/xlink" width="1000" height="1000"><g clip-path="url(#SvgjsClipPath1304)"><rect width="1000" height="1000" fill="#ffffff"></rect><g transform="matrix(1.953125,0,0,1.953125,0,0)"><svg xmlns="http://www.w3.org/2000/svg" version="1.1" xmlns:xlink="http://www.w3.org/1999/xlink" width="512" height="512"><svg width="512" height="512" viewBox="0 0 512 512" fill="none" xmlns="http://www.w3.org/2000/svg">
<g clip-path="url(#clip0_45_49)">
<path d="M41.7423 392.666C86.7996 463.114 165.71 509.825 255.537 509.825C345.364 509.825 424.322 463.114 469.332 392.666C408.521 345.047 334.016 319.203 255.537 319.203C177.058 319.203 102.553 345.047 41.7423 392.666Z" fill="#00354C"></path>
<path d="M255.537 273.594C202.483 273.594 151.01 283.979 102.553 304.463C73.2489 316.858 45.7644 332.603 20.4826 351.556C24.1216 360.553 28.2874 369.311 32.932 377.782C96.4239 328.631 173.945 302.022 255.585 302.022C337.224 302.022 414.698 328.679 478.19 377.782C482.834 369.311 486.952 360.553 490.639 351.556C465.357 332.651 437.873 316.906 408.569 304.463C360.112 283.979 308.638 273.594 255.585 273.594" fill="#8CC747"></path>
<path d="M88.0445 292.067C89.2416 291.541 90.4387 291.014 91.6357 290.488C93.0722 289.866 94.5087 289.243 95.9451 288.621C97.5252 287.951 99.1532 287.281 100.733 286.659C101.787 286.228 102.888 285.75 103.941 285.319C106.623 284.266 109.352 283.213 112.081 282.208C112.8 281.969 113.518 281.682 114.188 281.442C116.391 280.629 118.593 279.815 120.844 279.049C121.514 278.81 122.233 278.571 122.903 278.332C125.297 277.518 127.691 276.704 130.085 275.939C130.564 275.795 130.995 275.652 131.474 275.508C140.571 272.636 149.813 270.052 159.15 267.803V177.78C141.194 220.375 116.247 259.236 85.7462 293.024C86.4644 292.689 87.2305 292.354 87.9488 292.019" fill="#008CC6"></path>
<path d="M351.828 188.836V267.803C361.165 270.052 370.407 272.636 379.504 275.508C379.983 275.652 380.462 275.795 380.941 275.987C383.335 276.752 385.729 277.566 388.123 278.379C388.841 278.619 389.512 278.858 390.182 279.097C392.433 279.863 394.635 280.677 396.838 281.49C397.556 281.73 398.226 282.017 398.945 282.256C401.674 283.261 404.403 284.314 407.084 285.367C408.138 285.798 409.239 286.228 410.293 286.659C411.921 287.329 413.501 287.951 415.081 288.621C416.517 289.243 417.954 289.866 419.39 290.488C420.587 291.014 421.784 291.541 422.981 292.067C423.7 292.402 424.466 292.689 425.184 293.024C394.683 259.236 369.736 220.327 351.78 177.78V188.836H351.828Z" fill="#008CC6"></path>
<path d="M255.537 3C115.529 3 2 116.425 2 256.412C2 283.74 6.35729 310.062 14.3536 334.757C14.3536 334.757 14.3536 334.757 14.4015 334.757C14.9761 334.326 15.5507 333.896 16.1732 333.465C31.2561 322.218 45.525 309.823 59.0279 296.374C95.1311 260.289 123.477 218.269 143.253 171.511C149.525 156.675 154.888 141.551 159.246 126.141C160.634 121.211 161.927 116.234 163.124 111.304H176.435C176.435 116.904 176.435 122.456 176.435 128.486V164.811V264.165C202.052 259.14 228.483 256.508 255.537 256.508C282.59 256.508 308.974 259.14 334.495 264.118H334.639V128.438C334.639 126.045 334.639 123.843 334.639 121.738C334.639 118.196 334.639 114.942 334.639 111.352H347.95C349.147 116.33 350.44 121.259 351.828 126.189C356.186 141.551 361.548 156.722 367.821 171.559C387.596 218.317 415.943 260.337 452.046 296.422C465.501 309.871 479.818 322.266 494.901 333.513C495.475 333.944 496.098 334.374 496.672 334.805C504.717 310.158 509.026 283.788 509.026 256.46C509.026 116.521 395.497 3.04786 255.489 3.04786M315.39 110.874C282.351 110.874 255.537 137.675 255.537 170.697V170.841C255.537 137.818 228.723 111.017 195.684 111.017V110.922C228.723 110.922 255.537 84.1207 255.537 51.0981V50.9545C255.537 83.9771 282.351 110.778 315.39 110.778V110.874Z" fill="#008CC6"></path>
</g>
<defs>
<clipPath id="clip0_45_49">
<rect width="512" height="512" fill="white"></rect>
</clipPath>
<clipPath id="SvgjsClipPath1304"><rect width="1000" height="1000" x="0" y="0" rx="500" ry="500"></rect></clipPath></defs>
</svg></svg></g></g></svg>