<?xml version="1.0" encoding="UTF-8"?>
<svg id="Layer_1" xmlns="http://www.w3.org/2000/svg" version="1.1" viewBox="0 0 800 200">
  <!-- Generator: Adobe Illustrator 30.5.1, SVG Export Plug-In . SVG Version: 2.1.4 Build 3)  -->
  <defs>
    <style>
      .st0 {
        fill: #fff;
      }
    </style>
  </defs>
  <g>
    <path class="st0" d="M16.66,153.37c17.75,27.59,48.85,45.89,84.24,45.89s66.51-18.3,84.24-45.89c-23.96-18.65-53.32-28.77-84.24-28.77s-60.28,10.12-84.24,28.77Z"/>
    <path class="st0" d="M100.9,106.73c-20.91,0-41.19,4.07-60.28,12.09-11.55,4.86-22.38,11.02-32.34,18.45,1.43,3.52,3.08,6.95,4.91,10.27,25.02-19.25,55.56-29.67,87.73-29.67s62.7,10.44,87.72,29.67c1.83-3.32,3.45-6.75,4.91-10.27-9.96-7.4-20.79-13.57-32.34-18.45-19.09-8.02-39.38-12.09-60.28-12.09"/>
    <path class="st0" d="M34.9,113.97c.47-.21.94-.41,1.42-.62.57-.24,1.13-.49,1.7-.73.62-.26,1.26-.52,1.89-.77.42-.17.85-.36,1.26-.52,1.06-.41,2.13-.82,3.21-1.22.28-.09.57-.21.85-.3.87-.32,1.74-.64,2.62-.94.26-.09.55-.19.81-.28.94-.32,1.89-.64,2.83-.94.19-.06.38-.11.55-.17,3.58-1.12,7.23-2.14,10.91-3.02v-35.26c-7.08,16.68-16.91,31.9-28.92,45.14.28-.13.58-.26.87-.39"/>
    <path class="st0" d="M138.85,73.53v30.93c3.68.88,7.32,1.89,10.91,3.02.19.06.38.11.57.19.94.3,1.89.62,2.83.94.26.09.55.19.81.28.87.3,1.75.62,2.62.94.28.09.57.21.83.3,1.08.39,2.15.81,3.21,1.22.41.17.85.34,1.26.51.64.26,1.26.51,1.89.77.57.24,1.13.49,1.7.73.47.21.94.41,1.42.62.28.13.58.24.87.38-12.02-13.23-21.85-28.47-28.92-45.14v4.33h.02Z"/>
    <path class="st0" d="M100.9.74C45.73.74,1,45.17,1,100c0,10.7,1.72,21.01,4.87,30.69h.02c.23-.17.45-.34.7-.51,5.94-4.41,11.57-9.26,16.89-14.53,14.23-14.13,25.4-30.59,33.19-48.91,2.47-5.81,4.58-11.73,6.3-17.77.55-1.93,1.06-3.88,1.53-5.81h5.25v59.87c10.09-1.97,20.51-3,31.17-3s21.06,1.03,31.11,2.98h.06v-59.84h5.25c.47,1.95.98,3.88,1.53,5.81,1.72,6.02,3.83,11.96,6.3,17.77,7.79,18.31,18.96,34.77,33.19,48.91,5.3,5.27,10.94,10.12,16.89,14.53.23.17.47.34.7.51,3.17-9.65,4.87-19.98,4.87-30.69C200.79,45.21,156.05.76,100.88.76M124.49,43c-13.02,0-23.58,10.5-23.58,23.43v.06c0-12.93-10.57-23.43-23.58-23.43v-.04c13.02,0,23.58-10.5,23.58-23.43v-.06c0,12.93,10.55,23.43,23.58,23.43v.04Z"/>
  </g>
  <path class="st0" d="M771.38,106.85l-6.3-.9c1.14.06,2.07-.33,2.79-1.17.75-.84,1.34-2.01,1.75-3.51.42-1.5.74-3.25.95-5.26.21-2.04.36-4.24.45-6.61l.36-9.99h23.08v28.79h-5.76v-23.84h-12.33l-.22,5.58c-.09,2.1-.23,4.09-.41,5.98-.15,1.86-.4,3.55-.76,5.08-.33,1.53-.8,2.8-1.4,3.82-.6,1.02-1.33,1.69-2.2,2.02ZM764,117.6l.04-11.65h34.96v11.65h-5.4v-6.7h-24.16v6.7h-5.44Z"/>
  <path class="st0" d="M753.85,110.9v-31.49h5.85v31.49h-5.85ZM731.72,110.9v-31.49h5.85v31.49h-5.85ZM737.07,97.4v-4.99h17.23v4.99h-17.23Z"/>
  <path class="st0" d="M708.78,111.35c-2.46,0-4.72-.4-6.79-1.21-2.07-.81-3.87-1.93-5.4-3.37-1.53-1.47-2.71-3.18-3.55-5.13-.84-1.98-1.26-4.14-1.26-6.48s.42-4.48,1.26-6.43c.84-1.98,2.03-3.69,3.55-5.13,1.53-1.47,3.33-2.61,5.4-3.42,2.07-.81,4.32-1.21,6.75-1.21s4.71.41,6.75,1.21c2.07.81,3.87,1.95,5.4,3.42,1.53,1.44,2.71,3.15,3.55,5.13.84,1.95,1.26,4.09,1.26,6.43s-.42,4.5-1.26,6.48c-.84,1.98-2.02,3.69-3.55,5.13-1.53,1.44-3.33,2.56-5.4,3.37-2.04.81-4.27,1.21-6.71,1.21ZM708.74,106.22c1.59,0,3.06-.27,4.41-.81,1.35-.54,2.52-1.3,3.51-2.29.99-1.02,1.75-2.19,2.29-3.51.57-1.35.85-2.83.85-4.45s-.28-3.09-.85-4.41c-.54-1.35-1.3-2.52-2.29-3.51-.99-1.02-2.16-1.8-3.51-2.34-1.35-.54-2.82-.81-4.41-.81s-3.06.27-4.41.81c-1.32.54-2.49,1.32-3.51,2.34-.99.99-1.77,2.16-2.34,3.51-.54,1.32-.81,2.79-.81,4.41s.27,3.06.81,4.41c.57,1.35,1.35,2.53,2.34,3.55.99.99,2.16,1.75,3.51,2.29,1.35.54,2.82.81,4.41.81Z"/>
  <path class="st0" d="M668.49,108.88c-3.96,0-7.33-.54-10.12-1.62-2.76-1.08-4.87-2.64-6.34-4.68-1.47-2.07-2.2-4.56-2.2-7.47s.73-5.47,2.2-7.51c1.47-2.04,3.58-3.6,6.34-4.68,2.79-1.08,6.16-1.62,10.12-1.62h1.48c3.93,0,7.27.54,10.03,1.62,2.76,1.08,4.86,2.65,6.3,4.72,1.44,2.04,2.16,4.53,2.16,7.47s-.72,5.35-2.16,7.42c-1.41,2.07-3.48,3.64-6.21,4.72-2.7,1.08-6,1.62-9.9,1.62h-1.71ZM669.08,104.33h.49c2.91-.03,5.34-.39,7.29-1.08,1.98-.69,3.46-1.71,4.45-3.06,1.02-1.38,1.53-3.09,1.53-5.13s-.51-3.73-1.53-5.08c-1.02-1.35-2.5-2.37-4.45-3.06-1.95-.69-4.35-1.03-7.2-1.03h-.58c-2.97,0-5.48.34-7.51,1.03-2.01.66-3.52,1.68-4.54,3.06-.99,1.35-1.48,3.06-1.48,5.13s.52,3.79,1.57,5.17c1.08,1.35,2.63,2.37,4.63,3.06,2.01.66,4.45.99,7.33.99ZM666.47,112.16v-34.01h5.4v34.01h-5.4Z"/>
  <path class="st0" d="M626.26,110.9v-31.49h5.85v31.49h-5.85ZM604.12,110.9v-31.49h5.85v31.49h-5.85ZM609.48,97.4v-4.99h17.23v4.99h-17.23Z"/>
  <path class="st0" d="M574.44,110.9v-31.49h22.99v4.9h-17.14v21.69h17.77v4.9h-23.62ZM579.83,97.31v-4.81h15.66v4.81h-15.66Z"/>
  <path class="st0" d="M560.2,110.9v-31.49h5.85v31.49h-5.85ZM538.07,110.9v-31.49h5.85v31.49h-5.85ZM543.42,97.4v-4.99h17.23v4.99h-17.23Z"/>
  <path class="st0" d="M515.14,111.35c-2.46,0-4.72-.4-6.79-1.21-2.07-.81-3.87-1.93-5.4-3.37-1.53-1.47-2.71-3.18-3.55-5.13-.84-1.98-1.26-4.14-1.26-6.48s.42-4.48,1.26-6.43c.84-1.98,2.02-3.69,3.55-5.13,1.53-1.47,3.33-2.61,5.4-3.42,2.07-.81,4.32-1.21,6.75-1.21s4.71.41,6.75,1.21c2.07.81,3.87,1.95,5.4,3.42,1.53,1.44,2.71,3.15,3.56,5.13.84,1.95,1.26,4.09,1.26,6.43s-.42,4.5-1.26,6.48c-.84,1.98-2.03,3.69-3.56,5.13-1.53,1.44-3.33,2.56-5.4,3.37-2.04.81-4.27,1.21-6.7,1.21ZM515.09,106.22c1.59,0,3.06-.27,4.41-.81,1.35-.54,2.52-1.3,3.51-2.29.99-1.02,1.75-2.19,2.29-3.51.57-1.35.86-2.83.86-4.45s-.29-3.09-.86-4.41c-.54-1.35-1.3-2.52-2.29-3.51-.99-1.02-2.16-1.8-3.51-2.34-1.35-.54-2.82-.81-4.41-.81s-3.06.27-4.41.81c-1.32.54-2.49,1.32-3.51,2.34-.99.99-1.77,2.16-2.34,3.51-.54,1.32-.81,2.79-.81,4.41s.27,3.06.81,4.41c.57,1.35,1.35,2.53,2.34,3.55.99.99,2.16,1.75,3.51,2.29,1.35.54,2.82.81,4.41.81Z"/>
  <path class="st0" d="M464.01,110.9v-31.49h5.76v22.36l16.92-22.36h5.44v31.49h-5.76v-22.32l-16.92,22.32h-5.44Z"/>
  <path class="st0" d="M426.94,110.9v-31.49h5.76v26.54h15.88v-26.54h5.8v31.49h-27.44ZM453.67,117.83v-8.37l1.3,1.44h-6.39v-4.95h10.48v11.88h-5.4Z"/>
  <path class="st0" d="M388.37,110.9l14.17-31.49h5.76l14.22,31.49h-6.12l-12.19-28.39h2.34l-12.15,28.39h-6.03ZM394.89,103.61l1.58-4.59h17l1.58,4.59h-20.16Z"/>
  <path class="st0" d="M359.3,110.9v-31.49h14.08c3.54,0,6.3.7,8.28,2.11,1.98,1.38,2.97,3.37,2.97,5.98s-.95,4.57-2.83,5.98c-1.89,1.38-4.38,2.07-7.47,2.07l.81-1.62c3.51,0,6.22.7,8.14,2.11,1.92,1.41,2.88,3.45,2.88,6.12s-1,4.87-3.01,6.43c-2.01,1.53-4.98,2.29-8.91,2.29h-14.94ZM365.06,106.4h9c2.04,0,3.58-.38,4.63-1.12,1.05-.78,1.57-1.96,1.57-3.55s-.52-2.74-1.57-3.46c-1.05-.75-2.59-1.12-4.63-1.12h-9v9.27ZM365.06,92.86h7.83c1.89,0,3.33-.38,4.32-1.12.99-.78,1.48-1.89,1.48-3.33s-.49-2.62-1.48-3.37c-.99-.75-2.43-1.12-4.32-1.12h-7.83v8.95Z"/>
  <path class="st0" d="M336.33,111.35c-2.46,0-4.72-.4-6.79-1.21-2.07-.81-3.87-1.93-5.4-3.37-1.53-1.47-2.71-3.18-3.55-5.13-.84-1.98-1.26-4.14-1.26-6.48s.42-4.48,1.26-6.43c.84-1.98,2.03-3.69,3.55-5.13,1.53-1.47,3.33-2.61,5.4-3.42,2.07-.81,4.32-1.21,6.75-1.21s4.71.41,6.75,1.21c2.07.81,3.87,1.95,5.4,3.42,1.53,1.44,2.71,3.15,3.55,5.13.84,1.95,1.26,4.09,1.26,6.43s-.42,4.5-1.26,6.48c-.84,1.98-2.02,3.69-3.55,5.13-1.53,1.44-3.33,2.56-5.4,3.37-2.04.81-4.27,1.21-6.71,1.21ZM336.28,106.22c1.59,0,3.06-.27,4.41-.81,1.35-.54,2.52-1.3,3.51-2.29.99-1.02,1.75-2.19,2.29-3.51.57-1.35.85-2.83.85-4.45s-.28-3.09-.85-4.41c-.54-1.35-1.3-2.52-2.29-3.51-.99-1.02-2.16-1.8-3.51-2.34-1.35-.54-2.82-.81-4.41-.81s-3.06.27-4.41.81c-1.32.54-2.49,1.32-3.51,2.34-.99.99-1.77,2.16-2.34,3.51-.54,1.32-.81,2.79-.81,4.41s.27,3.06.81,4.41c.57,1.35,1.35,2.53,2.34,3.55.99.99,2.16,1.75,3.51,2.29,1.35.54,2.82.81,4.41.81Z"/>
  <path class="st0" d="M307.47,110.9v-31.49h5.85v31.49h-5.85ZM285.34,110.9v-31.49h5.85v31.49h-5.85ZM290.69,97.4v-4.99h17.23v4.99h-17.23Z"/>
  <path class="st0" d="M248.84,110.9v-31.49h5.76v22.36l16.92-22.36h5.44v31.49h-5.76v-22.32l-16.92,22.32h-5.44Z"/>
  <path class="st0" d="M587.08,61.41v-31.49h3.28v31.49h-3.28ZM564.04,61.41v-31.49h3.33v31.49h-3.33ZM567.01,46.88v-2.92h20.38v2.92h-20.38Z"/>
  <path class="st0" d="M534.84,61.41v-31.49h21.6v2.88h-18.27v25.73h18.94v2.88h-22.27ZM537.81,46.84v-2.83h16.65v2.83h-16.65Z"/>
  <path class="st0" d="M497.67,61.68c-.42,0-.83-.03-1.22-.09-.39-.03-.82-.1-1.3-.22l.27-2.97c.51.12,1.01.18,1.48.18,1.35,0,2.43-.52,3.24-1.57.84-1.08,1.47-2.73,1.89-4.95.42-2.25.69-5.13.81-8.64l.45-13.5h21.37v31.49h-3.28v-29.51l.85.9h-16.82l.81-.94-.41,11.47c-.12,3.15-.34,5.88-.68,8.19-.33,2.28-.81,4.18-1.44,5.71-.63,1.5-1.44,2.62-2.43,3.37-.99.72-2.19,1.08-3.6,1.08Z"/>
  <path class="st0" d="M462.3,61.41l14.4-31.49h3.29l14.4,31.49h-3.51l-13.23-29.56h1.35l-13.23,29.56h-3.46ZM467.97,53l.99-2.7h18.31l.99,2.7h-20.29Z"/>
  <path class="st0" d="M453.47,61.41v-31.49h3.28v31.49h-3.28ZM430.43,61.41v-31.49h3.33v31.49h-3.33ZM433.4,46.88v-2.92h20.38v2.92h-20.38Z"/>
  <path class="st0" d="M406.43,61.68c-2.37,0-4.57-.39-6.61-1.17-2.01-.81-3.76-1.93-5.26-3.37-1.47-1.47-2.63-3.16-3.46-5.08-.81-1.95-1.22-4.08-1.22-6.39s.41-4.42,1.22-6.34c.84-1.95,1.99-3.64,3.46-5.08,1.5-1.47,3.25-2.59,5.26-3.37,2.01-.81,4.21-1.21,6.61-1.21s4.56.4,6.57,1.21c2.01.78,3.75,1.89,5.22,3.33,1.5,1.44,2.65,3.13,3.46,5.08.84,1.95,1.26,4.08,1.26,6.39s-.42,4.44-1.26,6.39c-.81,1.95-1.97,3.64-3.46,5.08-1.47,1.44-3.21,2.56-5.22,3.37-2.01.78-4.2,1.17-6.57,1.17ZM406.43,58.71c1.89,0,3.63-.31,5.22-.94,1.62-.66,3.02-1.57,4.19-2.74,1.2-1.2,2.13-2.58,2.79-4.14.66-1.59.99-3.33.99-5.22s-.33-3.61-.99-5.17c-.66-1.59-1.59-2.97-2.79-4.14-1.17-1.2-2.57-2.11-4.19-2.74-1.59-.66-3.33-.99-5.22-.99s-3.64.33-5.26.99c-1.62.63-3.03,1.54-4.23,2.74-1.17,1.17-2.1,2.55-2.79,4.14-.66,1.56-.99,3.28-.99,5.17s.33,3.58.99,5.17c.69,1.59,1.62,2.98,2.79,4.18,1.2,1.17,2.61,2.08,4.23,2.74,1.62.63,3.37.94,5.26.94Z"/>
  <path class="st0" d="M355.98,61.41v-31.49h3.28v26.09l20.16-26.09h3.01v31.49h-3.28v-26.05l-20.15,26.05h-3.02Z"/>
  <path class="st0" d="M319.22,61.41v-31.49h3.28v28.61h19.03v-28.61h3.28v31.49h-25.6ZM346.71,68.79v-8.28l.85.9h-6.03v-2.88h8.28v10.26h-3.1Z"/>
  <path class="st0" d="M281.56,61.41l14.4-31.49h3.28l14.4,31.49h-3.51l-13.23-29.56h1.35l-13.23,29.56h-3.46ZM287.23,53l.99-2.7h18.31l.99,2.7h-20.29Z"/>
  <path class="st0" d="M272.73,61.41v-31.49h3.28v31.49h-3.28ZM249.69,61.41v-31.49h3.33v31.49h-3.33ZM252.66,46.88v-2.92h20.38v2.92h-20.38Z"/>
  <g>
    <path class="st0" d="M248.86,141.83v-12.13h2.32l5.16,8.56h-1.23l5.08-8.56h2.32l.02,12.13h-2.63l-.02-8.09h.5l-4.07,6.81h-1.25l-4.16-6.81h.59v8.09h-2.63Z"/>
    <path class="st0" d="M265.1,141.83v-12.13h2.79v7.9l5.79-7.9h2.63v12.13h-2.77v-7.88l-5.79,7.88h-2.65Z"/>
    <path class="st0" d="M278.87,141.83v-12.13h2.81v12.13h-2.81ZM281.47,136.86v-2.37h5.92v2.37h-5.92ZM287.19,141.83v-12.13h2.81v12.13h-2.81Z"/>
    <path class="st0" d="M292.58,141.83v-12.13h2.79v7.9l5.79-7.9h2.63v12.13h-2.77v-7.88l-5.79,7.88h-2.65Z"/>
    <path class="st0" d="M312.15,142.04c-.94,0-1.8-.15-2.61-.46-.8-.31-1.5-.74-2.09-1.31-.59-.57-1.05-1.23-1.38-1.99-.33-.76-.49-1.6-.49-2.51s.16-1.75.49-2.51c.33-.76.79-1.43,1.39-1.99.59-.57,1.29-1,2.09-1.31.8-.31,1.67-.46,2.62-.46,1.05,0,2,.18,2.85.55.85.36,1.56.9,2.14,1.6l-1.8,1.66c-.42-.47-.88-.83-1.39-1.07-.51-.24-1.06-.36-1.66-.36-.57,0-1.09.09-1.56.28-.47.18-.88.45-1.23.8s-.61.76-.81,1.23c-.19.47-.29,1-.29,1.58s.1,1.1.29,1.58c.19.47.46.88.81,1.23s.76.61,1.23.8c.47.18.99.28,1.56.28.6,0,1.15-.12,1.66-.36.51-.24.97-.6,1.39-1.08l1.8,1.66c-.58.7-1.29,1.24-2.14,1.61-.85.37-1.8.55-2.87.55Z"/>
    <path class="st0" d="M321.86,141.83v-10.48l.64.64h-4.5v-2.29h10.51v2.29h-4.5l.62-.64v10.48h-2.77Z"/>
    <path class="st0" d="M329.92,141.83v-12.13h9.16v2.25h-6.37v7.62h6.6v2.25h-9.39ZM332.5,136.77v-2.18h5.84v2.18h-5.84Z"/>
    <path class="st0" d="M341.29,141.83v-12.13h5.25c1.09,0,2.02.18,2.81.53.79.35,1.39.86,1.82,1.52.43.66.64,1.44.64,2.36s-.21,1.68-.64,2.34c-.43.66-1.03,1.16-1.82,1.52-.79.35-1.72.53-2.81.53h-3.69l1.25-1.26v4.61h-2.81ZM344.1,137.53l-1.25-1.33h3.53c.87,0,1.51-.18,1.94-.55.43-.37.64-.88.64-1.54s-.21-1.19-.64-1.56c-.43-.37-1.07-.55-1.94-.55h-3.53l1.25-1.33v6.88Z"/>
    <path class="st0" d="M359.47,142.04c-.94,0-1.8-.15-2.61-.46-.8-.31-1.5-.74-2.09-1.31-.59-.57-1.05-1.23-1.38-1.99-.33-.76-.49-1.6-.49-2.51s.16-1.75.49-2.51c.33-.76.79-1.43,1.39-1.99.59-.57,1.29-1,2.09-1.31.8-.31,1.67-.46,2.62-.46,1.05,0,2,.18,2.85.55.85.36,1.56.9,2.14,1.6l-1.8,1.66c-.42-.47-.88-.83-1.39-1.07-.51-.24-1.06-.36-1.66-.36-.57,0-1.09.09-1.56.28-.47.18-.88.45-1.23.8s-.61.76-.81,1.23c-.19.47-.29,1-.29,1.58s.1,1.1.29,1.58c.19.47.46.88.81,1.23s.76.61,1.23.8c.47.18.99.28,1.56.28.6,0,1.15-.12,1.66-.36.51-.24.97-.6,1.39-1.08l1.8,1.66c-.58.7-1.29,1.24-2.14,1.61-.85.37-1.8.55-2.87.55Z"/>
    <path class="st0" d="M369.18,141.83v-10.48l.64.64h-4.5v-2.29h10.51v2.29h-4.5l.62-.64v10.48h-2.77Z"/>
    <path class="st0" d="M377.24,141.83v-12.13h5.65c1.41,0,2.51.27,3.29.81.79.54,1.18,1.32,1.18,2.32s-.37,1.76-1.11,2.31c-.74.55-1.72.82-2.94.82l.33-.73c1.36,0,2.42.27,3.17.81.75.54,1.13,1.33,1.13,2.36s-.4,1.9-1.2,2.5c-.8.61-1.97.91-3.51.91h-5.98ZM380.03,134.73h2.62c.61,0,1.07-.12,1.39-.37.31-.25.47-.61.47-1.1s-.16-.85-.47-1.1c-.31-.25-.77-.37-1.39-.37h-2.62v2.94ZM380.03,139.75h3.08c.65,0,1.14-.13,1.47-.38.33-.25.5-.65.5-1.18s-.17-.89-.5-1.13c-.34-.25-.83-.37-1.47-.37h-3.08v3.07Z"/>
    <path class="st0" d="M395.67,142.04c-.96,0-1.84-.16-2.66-.47-.81-.31-1.52-.75-2.11-1.32-.59-.57-1.06-1.23-1.39-1.99-.33-.76-.49-1.59-.49-2.49s.16-1.73.49-2.49c.33-.76.79-1.43,1.39-1.99.6-.57,1.3-1,2.11-1.32.81-.31,1.69-.47,2.63-.47s1.84.16,2.64.47c.8.31,1.5.75,2.1,1.32.59.57,1.06,1.23,1.39,1.98.33.76.5,1.59.5,2.5s-.17,1.74-.5,2.5c-.33.77-.8,1.43-1.39,1.99s-1.29,1-2.1,1.31-1.68.47-2.62.47ZM395.65,139.65c.54,0,1.04-.09,1.5-.28.46-.18.86-.45,1.2-.8s.62-.76.81-1.23c.19-.47.29-1,.29-1.58s-.1-1.1-.29-1.58c-.19-.47-.46-.88-.8-1.23-.34-.35-.74-.61-1.2-.8-.46-.18-.96-.28-1.51-.28s-1.04.09-1.5.28c-.46.18-.86.45-1.2.8s-.62.76-.81,1.23c-.19.47-.29,1-.29,1.58s.1,1.09.29,1.57c.19.48.46.89.8,1.24.34.35.74.61,1.2.8.46.18.96.28,1.51.28Z"/>
    <path class="st0" d="M409.35,141.83v-12.13h2.81v12.13h-2.81ZM411.95,136.86v-2.37h5.92v2.37h-5.92ZM417.67,141.83v-12.13h2.81v12.13h-2.81Z"/>
    <path class="st0" d="M421.84,141.83l5.4-12.13h2.77l5.42,12.13h-2.94l-4.44-10.71h1.11l-4.45,10.71h-2.88ZM424.54,139.23l.74-2.13h6.24l.76,2.13h-7.74Z"/>
    <path class="st0" d="M441.95,141.83v-12.13h2.79v7.9l5.79-7.9h2.63v12.13h-2.77v-7.88l-5.79,7.88h-2.65Z"/>
    <path class="st0" d="M455.72,141.83v-12.13h2.81v12.13h-2.81ZM458.32,136.86v-2.37h5.92v2.37h-5.92ZM464.04,141.83v-12.13h2.81v12.13h-2.81Z"/>
    <path class="st0" d="M475.31,142.04c-.96,0-1.85-.16-2.66-.47s-1.52-.75-2.11-1.32c-.6-.57-1.06-1.23-1.39-1.99-.33-.76-.49-1.59-.49-2.49s.16-1.73.49-2.49c.33-.76.79-1.43,1.39-1.99.6-.57,1.31-1,2.11-1.32.81-.31,1.69-.47,2.63-.47s1.84.16,2.64.47c.8.31,1.5.75,2.1,1.32.59.57,1.06,1.23,1.39,1.98.33.76.5,1.59.5,2.5s-.17,1.74-.5,2.5c-.33.77-.8,1.43-1.39,1.99-.6.56-1.29,1-2.1,1.31s-1.68.47-2.62.47ZM475.29,139.65c.54,0,1.04-.09,1.5-.28s.86-.45,1.2-.8.61-.76.81-1.23c.19-.47.29-1,.29-1.58s-.1-1.1-.29-1.58c-.19-.47-.46-.88-.8-1.23s-.74-.61-1.2-.8c-.46-.18-.96-.28-1.51-.28s-1.04.09-1.5.28c-.46.18-.86.45-1.2.8s-.61.76-.81,1.23c-.19.47-.29,1-.29,1.58s.1,1.09.29,1.57c.19.48.46.89.8,1.24s.74.61,1.2.8c.46.18.96.28,1.51.28Z"/>
    <path class="st0" d="M483.72,141.83v-12.13h5.65c1.41,0,2.51.27,3.29.81.79.54,1.18,1.32,1.18,2.32s-.37,1.76-1.11,2.31c-.74.55-1.72.82-2.94.82l.33-.73c1.36,0,2.42.27,3.17.81s1.13,1.33,1.13,2.36-.4,1.9-1.2,2.5c-.8.61-1.97.91-3.51.91h-5.98ZM486.51,134.73h2.62c.61,0,1.07-.12,1.39-.37.31-.25.47-.61.47-1.1s-.16-.85-.47-1.1c-.31-.25-.77-.37-1.39-.37h-2.62v2.94ZM486.51,139.75h3.08c.65,0,1.14-.13,1.47-.38.33-.25.5-.65.5-1.18s-.17-.89-.5-1.13c-.33-.25-.83-.37-1.47-.37h-3.08v3.07Z"/>
    <path class="st0" d="M494.84,141.83l5.4-12.13h2.77l5.42,12.13h-2.94l-4.44-10.71h1.11l-4.45,10.71h-2.88ZM497.54,139.23l.74-2.13h6.24l.76,2.13h-7.74Z"/>
    <path class="st0" d="M509.77,141.83v-12.13h2.79v9.84h5.4v-9.84h2.79v12.13h-10.98ZM519.91,144.39v-3.22l.61.66h-2.55v-2.29h4.52v4.85h-2.58Z"/>
    <path class="st0" d="M524.03,141.83v-12.13h2.79v7.9l5.79-7.9h2.63v12.13h-2.77v-7.88l-5.79,7.88h-2.65Z"/>
    <path class="st0" d="M537.8,141.83v-12.13h2.79v7.9l5.79-7.9h2.63v12.13h-2.77v-7.88l-5.79,7.88h-2.65Z"/>
    <path class="st0" d="M554.27,141.83v-10.48l.64.64h-4.5v-2.29h10.51v2.29h-4.5l.62-.64v10.48h-2.77Z"/>
    <path class="st0" d="M562.33,141.83v-12.13h9.16v2.25h-6.37v7.62h6.6v2.25h-9.39ZM564.91,136.77v-2.18h5.84v2.18h-5.84Z"/>
    <path class="st0" d="M578.89,141.83v-12.13h2.79v7.9l5.79-7.9h2.63v12.13h-2.77v-7.88l-5.79,7.88h-2.65Z"/>
    <path class="st0" d="M247.62,165.13l.02-4.8h13.74v4.8h-2.6v-2.51h-8.56v2.51h-2.6ZM251.01,160.71l-3-.38c.42.01.76-.13,1.03-.43.27-.3.49-.72.65-1.27.16-.55.28-1.19.36-1.93.07-.74.13-1.54.16-2.41l.14-3.79h9.32v10.88h-2.77v-8.59h-4.16l-.05,1.77c-.03.75-.08,1.46-.15,2.13-.06.67-.16,1.28-.29,1.83-.13.55-.29,1.01-.49,1.39-.2.38-.45.65-.75.81Z"/>
    <path class="st0" d="M262.92,162.62v-12.13h2.79v7.9l5.79-7.9h2.63v12.13h-2.77v-7.88l-5.79,7.88h-2.65Z"/>
    <path class="st0" d="M276.69,162.62v-12.13h8.56l-.02,2.29h-6.41l.64-.64.02,10.48h-2.79Z"/>
    <path class="st0" d="M286.62,162.62v-12.13h2.79v7.9l5.79-7.9h2.63v12.13h-2.77v-7.88l-5.79,7.88h-2.65Z"/>
    <path class="st0" d="M303.1,162.62v-10.48l.64.64h-4.5v-2.29h10.51v2.29h-4.5l.62-.64v10.48h-2.77Z"/>
    <path class="st0" d="M308.48,162.62l5.4-12.13h2.77l5.42,12.13h-2.94l-4.43-10.71h1.11l-4.45,10.71h-2.88ZM311.18,160.02l.74-2.13h6.24l.76,2.13h-7.74Z"/>
    <path class="st0" d="M324.2,162.81c-.21,0-.42-.02-.65-.05s-.47-.08-.74-.14l.17-2.37c.16.05.33.07.5.07.47,0,.84-.19,1.11-.58.27-.39.46-.94.57-1.67.12-.73.19-1.61.23-2.65l.17-4.92h9.32v12.13h-2.77v-10.48l.64.64h-5.35l.57-.68-.1,3.2c-.03,1.19-.12,2.25-.24,3.17-.13.92-.32,1.71-.59,2.36-.27.65-.63,1.14-1.09,1.47s-1.05.5-1.75.5Z"/>
    <path class="st0" d="M337.46,162.62v-12.13h2.81v12.13h-2.81ZM340.06,157.65v-2.37h5.92v2.37h-5.92ZM345.77,162.62v-12.13h2.81v12.13h-2.81Z"/>
    <path class="st0" d="M349.94,162.62l5.4-12.13h2.77l5.42,12.13h-2.94l-4.43-10.71h1.11l-4.45,10.71h-2.88ZM352.64,160.02l.74-2.13h6.24l.76,2.13h-7.74Z"/>
    <path class="st0" d="M366.12,162.62v-10.48l.64.64h-4.5v-2.29h10.51v2.29h-4.5l.62-.64v10.48h-2.77Z"/>
    <path class="st0" d="M371.51,162.62l5.4-12.13h2.77l5.42,12.13h-2.94l-4.43-10.71h1.11l-4.45,10.71h-2.88ZM374.21,160.02l.74-2.13h6.24l.76,2.13h-7.74Z"/>
    <path class="st0" d="M394.24,162.62v-10.48l.64.64h-4.5v-2.29h10.52v2.29h-4.5l.62-.64v10.48h-2.77Z"/>
    <path class="st0" d="M402.3,162.62v-12.13h5.25c1.09,0,2.02.18,2.81.53.79.35,1.39.86,1.82,1.52.43.66.64,1.44.64,2.36s-.21,1.68-.64,2.34c-.43.66-1.03,1.16-1.82,1.52-.79.35-1.72.53-2.81.53h-3.69l1.25-1.26v4.61h-2.81ZM405.11,158.32l-1.25-1.33h3.53c.87,0,1.51-.18,1.94-.55.43-.37.64-.88.64-1.54s-.21-1.19-.64-1.56c-.43-.37-1.07-.55-1.94-.55h-3.53l1.25-1.33v6.88Z"/>
    <path class="st0" d="M412.21,162.62l5.4-12.13h2.77l5.42,12.13h-2.94l-4.44-10.71h1.11l-4.45,10.71h-2.88ZM414.91,160.02l.74-2.13h6.24l.76,2.13h-7.74Z"/>
    <path class="st0" d="M427.15,162.62v-12.13h2.81v12.13h-2.81ZM429.75,157.65v-2.37h5.92v2.37h-5.92ZM435.46,162.62v-12.13h2.81v12.13h-2.81Z"/>
    <path class="st0" d="M446.66,162.82c-.94,0-1.8-.15-2.61-.46s-1.5-.74-2.09-1.31c-.59-.57-1.05-1.23-1.38-1.99-.33-.76-.49-1.6-.49-2.51s.16-1.75.49-2.51c.33-.76.79-1.43,1.39-1.99.59-.57,1.29-1,2.09-1.31.8-.31,1.67-.46,2.62-.46,1.05,0,2,.18,2.85.55.85.36,1.56.9,2.14,1.6l-1.8,1.66c-.42-.47-.88-.83-1.39-1.07s-1.06-.36-1.66-.36c-.57,0-1.09.09-1.56.28-.47.18-.88.45-1.23.8s-.61.76-.81,1.23c-.19.47-.29,1-.29,1.58s.1,1.1.29,1.58c.19.47.46.88.81,1.23s.76.61,1.23.8.99.28,1.56.28c.6,0,1.15-.12,1.66-.36s.97-.6,1.39-1.08l1.8,1.66c-.58.7-1.29,1.24-2.14,1.61s-1.8.55-2.87.55Z"/>
    <path class="st0" d="M459.17,161.85c-1.57,0-2.9-.21-3.99-.62-1.09-.42-1.92-1.02-2.49-1.81-.57-.79-.85-1.76-.85-2.9s.28-2.11.85-2.9c.57-.79,1.39-1.39,2.49-1.81,1.09-.42,2.42-.62,3.99-.62h.71c1.56,0,2.88.21,3.96.62,1.08.42,1.9,1.02,2.45,1.82.55.8.83,1.76.83,2.89s-.27,2.08-.82,2.88c-.55.8-1.35,1.41-2.41,1.83-1.06.42-2.35.62-3.87.62h-.85ZM459.43,159.69h.26c1.06,0,1.94-.12,2.64-.36.7-.24,1.22-.59,1.57-1.06s.52-1.06.52-1.78-.18-1.3-.54-1.77c-.36-.46-.88-.81-1.57-1.03-.69-.23-1.55-.34-2.59-.34h-.29c-1.1,0-2,.11-2.72.33-.72.22-1.25.56-1.61,1.03-.36.47-.54,1.07-.54,1.79s.19,1.33.57,1.79c.38.47.93.81,1.65,1.04.72.23,1.6.34,2.64.34ZM458.2,163.15v-13.18h2.58v13.18h-2.58Z"/>
    <path class="st0" d="M474.94,162.82c-.96,0-1.85-.16-2.66-.47s-1.52-.75-2.11-1.32c-.6-.57-1.06-1.23-1.39-1.99-.33-.76-.49-1.59-.49-2.49s.16-1.73.49-2.49c.33-.76.79-1.43,1.39-1.99.6-.57,1.31-1,2.11-1.32.81-.31,1.69-.47,2.63-.47s1.84.16,2.64.47c.8.31,1.5.75,2.1,1.32.59.57,1.06,1.23,1.39,1.98.33.76.5,1.59.5,2.5s-.17,1.74-.5,2.5c-.33.77-.8,1.43-1.39,1.99-.6.56-1.29,1-2.1,1.31s-1.68.47-2.62.47ZM474.92,160.43c.54,0,1.04-.09,1.5-.28s.86-.45,1.2-.8.61-.76.81-1.23c.19-.47.29-1,.29-1.58s-.1-1.1-.29-1.58c-.19-.47-.46-.88-.8-1.23s-.74-.61-1.2-.8c-.46-.18-.96-.28-1.51-.28s-1.04.09-1.5.28c-.46.18-.86.45-1.2.8s-.61.76-.81,1.23c-.19.47-.29,1-.29,1.58s.1,1.09.29,1.57c.19.48.46.89.8,1.24s.74.61,1.2.8c.46.18.96.28,1.51.28Z"/>
    <path class="st0" d="M483.35,162.62v-12.13h5.25c1.09,0,2.02.18,2.81.53.79.35,1.39.86,1.82,1.52.43.66.64,1.44.64,2.36s-.21,1.68-.64,2.34c-.43.66-1.03,1.16-1.82,1.52-.79.35-1.72.53-2.81.53h-3.69l1.25-1.26v4.61h-2.81ZM486.16,158.32l-1.25-1.33h3.53c.87,0,1.51-.18,1.94-.55.43-.37.64-.88.64-1.54s-.21-1.19-.64-1.56c-.43-.37-1.07-.55-1.94-.55h-3.53l1.25-1.33v6.88Z"/>
    <path class="st0" d="M495.39,162.62v-12.13h2.32l5.16,8.56h-1.23l5.08-8.56h2.32l.02,12.13h-2.63l-.02-8.09h.5l-4.07,6.81h-1.25l-4.16-6.81h.59v8.09h-2.63Z"/>
    <path class="st0" d="M510.41,162.62l5.4-12.13h2.77l5.42,12.13h-2.94l-4.44-10.71h1.11l-4.45,10.71h-2.88ZM513.12,160.02l.74-2.13h6.24l.76,2.13h-7.74Z"/>
    <path class="st0" d="M525.35,162.62v-12.13h2.79v9.84h5.4v-9.84h2.79v12.13h-10.98ZM535.48,165.18v-3.22l.61.66h-2.55v-2.29h4.52v4.85h-2.58Z"/>
    <path class="st0" d="M539.6,162.62v-12.13h2.79v7.9l5.79-7.9h2.63v12.13h-2.77v-7.88l-5.79,7.88h-2.65Z"/>
    <path class="st0" d="M560.41,162.62v-3.83l.69.61h-3.33c-1.05,0-1.96-.17-2.72-.52-.76-.35-1.35-.85-1.75-1.51-.4-.66-.61-1.44-.61-2.36s.22-1.76.65-2.43c.43-.68,1.04-1.19,1.83-1.55.79-.36,1.71-.54,2.77-.54h5.23v12.13h-2.77ZM552.74,162.62l3.01-4.35h2.84l-2.89,4.35h-2.96ZM560.41,157.89v-5.84l.69.73h-3.08c-.8,0-1.41.18-1.83.55-.42.37-.63.92-.63,1.65s.2,1.25.61,1.63c.4.38,1,.57,1.78.57h3.15l-.69.71Z"/>
  </g>
</svg>