<svg width="332" height="83" viewBox="0 0 332 83" fill="none" xmlns="http://www.w3.org/2000/svg">
<path d="M6.51837 63.5291C13.9085 75.0145 26.8509 82.6299 41.584 82.6299C56.317 82.6299 69.2673 75.0145 76.6495 63.5291C66.6757 55.7654 54.4557 51.552 41.584 51.552C28.7122 51.552 16.4922 55.7654 6.51837 63.5291Z" fill="white"/>
<path d="M41.5839 44.1162C32.8823 44.1162 24.4399 45.8094 16.4922 49.1489C11.6859 51.1698 7.17805 53.7369 3.03143 56.8267C3.62829 58.2936 4.31154 59.7215 5.07333 61.1026C15.487 53.0893 28.2017 48.751 41.5918 48.751C54.9819 48.751 67.6888 53.0971 78.1024 61.1026C78.8642 59.7215 79.5396 58.2936 80.1443 56.8267C75.9977 53.7447 71.4898 51.1776 66.6835 49.1489C58.7358 45.8094 50.2934 44.1162 41.5918 44.1162" fill="white"/>
<path d="M14.1126 47.1278C14.309 47.042 14.5053 46.9562 14.7017 46.8703C14.9373 46.7689 15.1729 46.6675 15.4085 46.566C15.6676 46.4568 15.9346 46.3476 16.1938 46.2461C16.3666 46.1759 16.5472 46.0979 16.72 46.0276C17.1598 45.856 17.6074 45.6843 18.0551 45.5205C18.1729 45.4815 18.2907 45.4346 18.4085 45.3956C18.7697 45.263 19.131 45.1303 19.5001 45.0055C19.61 44.9665 19.7278 44.9275 19.8378 44.8885C20.2305 44.7558 20.6231 44.6232 21.0158 44.4983C21.0943 44.4749 21.1729 44.4515 21.2436 44.4281C22.7357 43.96 24.2514 43.5386 25.7828 43.1719V28.4951C22.8378 35.4395 18.7462 41.7752 13.7435 47.2839C13.8613 47.2293 13.987 47.1746 14.1048 47.12" fill="white"/>
<path d="M57.3772 30.2975V43.1719C58.9086 43.5386 60.4243 43.96 61.9165 44.4281C61.995 44.4515 62.0735 44.4749 62.1521 44.5061C62.5447 44.631 62.9374 44.7636 63.3301 44.8963C63.44 44.9353 63.5578 44.9743 63.6678 45.0133C64.029 45.1381 64.3981 45.2708 64.7594 45.4034C64.8772 45.4425 64.995 45.4893 65.105 45.5283C65.5526 45.6921 66.0002 45.8638 66.44 46.0354C66.6128 46.1057 66.7934 46.1759 66.9662 46.2461C67.2332 46.3554 67.4924 46.4568 67.7516 46.566C67.9872 46.6675 68.2228 46.7689 68.4584 46.8703C68.6547 46.9562 68.851 47.042 69.0474 47.1278C69.1652 47.1824 69.2908 47.2293 69.4086 47.2839C64.406 41.7752 60.3144 35.4317 57.3693 28.4951V30.2975H57.3772Z" fill="white"/>
<path d="M41.5839 0C18.6205 0 0 18.4923 0 41.315C0 45.7703 0.714662 50.0617 2.02619 54.0879C2.02619 54.0879 2.02619 54.0879 2.03404 54.0879C2.12828 54.0177 2.22252 53.9475 2.32462 53.8772C4.79845 52.0436 7.13877 50.0227 9.35344 47.8302C15.2749 41.947 19.9242 35.0963 23.1676 27.4731C24.1964 25.0543 25.076 22.5886 25.7907 20.0762C26.0184 19.2725 26.2305 18.461 26.4268 17.6574H28.6101C28.6101 18.5703 28.6101 19.4754 28.6101 20.4585V26.3807V42.579C32.8116 41.7597 37.1467 41.3306 41.5839 41.3306C46.0211 41.3306 50.3484 41.7597 54.5342 42.5712H54.5578V20.4507C54.5578 20.0606 54.5578 19.7017 54.5578 19.3584C54.5578 18.781 54.5578 18.2504 54.5578 17.6652H56.7411C56.9374 18.4767 57.1494 19.2803 57.3772 20.084C58.0919 22.5886 58.9714 25.0621 60.0002 27.4809C63.2437 35.1041 67.8929 41.9548 73.8144 47.838C76.0212 50.0305 78.3694 52.0514 80.8433 53.885C80.9375 53.9553 81.0396 54.0255 81.1338 54.0957C82.4532 50.0773 83.16 45.7781 83.16 41.3228C83.16 18.5079 64.5395 0.00780263 41.5761 0.00780263M51.4007 17.5872C45.9819 17.5872 41.5839 21.9566 41.5839 27.3405V27.3639C41.5839 21.98 37.186 17.6106 31.7671 17.6106V17.595C37.186 17.595 41.5839 13.2255 41.5839 7.84165V7.81824C41.5839 13.2021 45.974 17.5715 51.4007 17.5715V17.5872Z" fill="white"/>
<path d="M320.1 48.2591H321.907V52.8921H319.76V50.2268H310.154V52.8921H307.99L308.007 48.2591H308.544C310.243 48.1876 310.655 45.3433 310.78 41.6763L310.923 37.7051H320.1V48.2591ZM312.819 41.8909C312.712 44.7351 312.426 47.2574 311.46 48.2591H317.81V39.6728H312.909L312.819 41.8909Z" fill="white"/>
<path d="M303.955 37.7051H306.281V50.2268H303.955V44.8604H297.48V50.2268H295.154V37.7051H297.48V42.8748H303.955V37.7051Z" fill="white"/>
<path d="M286.018 50.4056C282.137 50.4056 279.274 47.6687 279.274 43.9659C279.274 40.263 282.137 37.5261 286.018 37.5261C289.9 37.5261 292.762 40.2451 292.762 43.9659C292.762 47.6866 289.9 50.4056 286.018 50.4056ZM286.018 48.3664C288.541 48.3664 290.419 46.5239 290.419 43.9659C290.419 41.4079 288.541 39.5654 286.018 39.5654C283.496 39.5654 281.618 41.4079 281.618 43.9659C281.618 46.5239 283.496 48.3664 286.018 48.3664Z" fill="white"/>
<path d="M277.959 43.9479C277.959 47.2394 275.58 49.225 271.359 49.4038V50.7276H269.212V49.4038C264.99 49.1892 262.593 47.2394 262.593 43.9479C262.593 40.6386 264.99 38.6888 269.212 38.4742V37.2041H271.359V38.4742C275.58 38.6888 277.959 40.6565 277.959 43.9479ZM271.359 47.5792C274.221 47.3646 275.723 46.1303 275.723 43.9301C275.723 41.7298 274.185 40.5134 271.359 40.3166V47.5792ZM264.865 43.9479C264.865 46.1482 266.439 47.3467 269.212 47.5792V40.3166C266.332 40.5313 264.865 41.7298 264.865 43.9479Z" fill="white"/>
<path d="M253.225 37.7051H255.55V50.2268H253.225V44.8604H246.749V50.2268H244.424V37.7051H246.749V42.8748H253.225V37.7051Z" fill="white"/>
<path d="M234.944 48.277H242.01V50.2268H232.619V37.7051H241.76V39.6549H234.944V42.9105H240.991V44.8246H234.944V48.277Z" fill="white"/>
<path d="M226.96 37.7051H229.285V50.2268H226.96V44.8604H220.484V50.2268H218.159V37.7051H220.484V42.8748H226.96V37.7051Z" fill="white"/>
<path d="M209.023 50.4056C205.141 50.4056 202.279 47.6687 202.279 43.9659C202.279 40.263 205.141 37.5261 209.023 37.5261C212.905 37.5261 215.767 40.2451 215.767 43.9659C215.767 47.6866 212.905 50.4056 209.023 50.4056ZM209.023 48.3664C211.545 48.3664 213.423 46.5239 213.423 43.9659C213.423 41.4079 211.545 39.5654 209.023 39.5654C206.501 39.5654 204.622 41.4079 204.622 43.9659C204.622 46.5239 206.501 48.3664 209.023 48.3664Z" fill="white"/>
<path d="M188.715 50.2268V37.7051H191.005V46.5955L197.731 37.7051H199.895V50.2268H197.606V41.3543L190.88 50.2268H188.715Z" fill="white"/>
<path d="M184.887 48.2591H186.748V52.9816H184.601V50.2268H173.976V37.7051H176.265V48.2591H182.58V37.7051H184.887V48.2591Z" fill="white"/>
<path d="M169.784 50.2268L168.531 47.3289H162.271L161.036 50.2268H158.639L164.274 37.7051H166.564L172.216 50.2268H169.784ZM163.058 45.5043H167.762L165.401 40.0305L163.058 45.5043Z" fill="white"/>
<path d="M155.31 43.7155C156.885 44.1448 157.761 45.1823 157.761 46.7565C157.761 48.921 156.133 50.2268 153.021 50.2268H147.082V37.7051H152.681C155.471 37.7051 157.153 38.8499 157.153 40.9249C157.153 42.2666 156.473 43.2146 155.31 43.7155ZM149.371 39.4939V43.0536H152.484C153.987 43.0536 154.792 42.4454 154.792 41.2827C154.792 40.1021 153.987 39.4939 152.484 39.4939H149.371ZM152.949 48.438C154.559 48.438 155.418 47.8298 155.418 46.5776C155.418 45.3254 154.559 44.753 152.949 44.753H149.371V48.438H152.949Z" fill="white"/>
<path d="M137.928 50.4056C134.046 50.4056 131.184 47.6687 131.184 43.9659C131.184 40.263 134.046 37.5261 137.928 37.5261C141.81 37.5261 144.672 40.2451 144.672 43.9659C144.672 47.6866 141.81 50.4056 137.928 50.4056ZM137.928 48.3664C140.45 48.3664 142.328 46.5239 142.328 43.9659C142.328 41.4079 140.45 39.5654 137.928 39.5654C135.406 39.5654 133.527 41.4079 133.527 43.9659C133.527 46.5239 135.406 48.3664 137.928 48.3664Z" fill="white"/>
<path d="M126.473 37.7051H128.799V50.2268H126.473V44.8604H119.998V50.2268H117.672V37.7051H119.998V42.8748H126.473V37.7051Z" fill="white"/>
<path d="M103.16 50.2268V37.7051H105.45V46.5955L112.176 37.7051H114.34V50.2268H112.05V41.3543L105.325 50.2268H103.16Z" fill="white"/>
<path d="M237.681 18.0281H238.987V30.5498H237.681V24.7719H229.846V30.5498H228.522V18.0281H229.846V23.6092H237.681V18.0281Z" fill="white"/>
<path d="M218.233 29.405H225.764V30.5498H216.91V18.0281H225.496V19.1729H218.233V23.6271H224.709V24.754H218.233V29.405Z" fill="white"/>
<path d="M204.367 18.0281H212.864V30.5498H211.558V19.1729H205.512L205.369 23.3588C205.19 28.3674 204.403 30.675 202.131 30.675C201.809 30.675 201.505 30.6392 201.129 30.5498L201.237 29.3692C201.469 29.4228 201.63 29.4407 201.827 29.4407C203.419 29.4407 204.027 27.6161 204.188 23.3945L204.367 18.0281Z" fill="white"/>
<path d="M199.393 30.5498L197.89 27.2047H190.914L189.411 30.5498H188.034L193.758 18.0281H195.064L200.788 30.5498H199.393ZM191.397 26.1314H197.407L194.402 19.4055L191.397 26.1314Z" fill="white"/>
<path d="M184.522 18.0281H185.828V30.5498H184.522V24.7719H176.687V30.5498H175.364V18.0281H176.687V23.6092H184.522V18.0281Z" fill="white"/>
<path d="M165.819 30.657C162.026 30.657 159.236 27.938 159.236 24.2888C159.236 20.6397 162.026 17.9207 165.819 17.9207C169.575 17.9207 172.384 20.6218 172.384 24.2888C172.384 27.9559 169.575 30.657 165.819 30.657ZM165.819 29.4764C168.824 29.4764 171.06 27.2762 171.06 24.2888C171.06 21.3015 168.824 19.1013 165.819 19.1013C162.796 19.1013 160.542 21.3015 160.542 24.2888C160.542 27.2762 162.796 29.4764 165.819 29.4764Z" fill="white"/>
<path d="M145.762 30.5498V18.0281H147.068V28.4032L155.082 18.0281H156.28V30.5498H154.975V20.1925L146.961 30.5498H145.762Z" fill="white"/>
<path d="M141.323 29.405H143.309V33.4835H142.075V30.5498H131.145V18.0281H132.451V29.405H140.017V18.0281H141.323V29.405Z" fill="white"/>
<path d="M127.529 30.5498L126.026 27.2047H119.05L117.547 30.5498H116.17L121.894 18.0281H123.2L128.924 30.5498H127.529ZM119.533 26.1314H125.543L122.538 19.4055L119.533 26.1314Z" fill="white"/>
<path d="M112.659 18.0281H113.964V30.5498H112.659V24.7719H104.824V30.5498H103.5V18.0281H104.824V23.6092H112.659V18.0281Z" fill="white"/>
<path d="M329.966 63.3317L329.34 61.8827H326.21L325.592 63.3317H324.394L327.211 57.0708H328.356L331.182 63.3317H329.966ZM326.603 60.9704H328.955L327.775 58.2335L326.603 60.9704Z" fill="white"/>
<path d="M323.145 63.3317L321.571 60.6932H320.498V63.3317H319.362V60.6932H318.289L316.706 63.3317H315.364L317.332 60.0671L315.498 57.0708H316.732L318.262 59.6914H319.362V57.0708H320.498V59.6914H321.58L323.118 57.0708H324.353L322.528 60.076L324.487 63.3317H323.145Z" fill="white"/>
<path d="M311.338 62.3568H314.871V63.3317H310.175V57.0708H314.746V58.0457H311.338V59.6735H314.361V60.6305H311.338V62.3568Z" fill="white"/>
<path d="M309.173 57.0708V58.0547H307.098V63.3317H305.944V58.0547H303.878V57.0708H309.173Z" fill="white"/>
<path d="M301.133 63.4212C299.219 63.4212 297.788 62.0706 297.788 60.2013C297.788 58.332 299.219 56.9814 301.142 56.9814C302.161 56.9814 303.038 57.3482 303.619 58.0279L302.868 58.7345C302.412 58.2426 301.848 58.0011 301.195 58.0011C299.899 58.0011 298.959 58.9134 298.959 60.2013C298.959 61.4893 299.899 62.4016 301.195 62.4016C301.848 62.4016 302.412 62.1601 302.868 61.6592L303.619 62.3747C303.038 63.0545 302.161 63.4212 301.133 63.4212Z" fill="white"/>
<path d="M296.164 63.3317L295.538 61.8827H292.407L291.79 63.3317H290.591L293.409 57.0708H294.554L297.38 63.3317H296.164ZM292.801 60.9704H295.153L293.972 58.2335L292.801 60.9704Z" fill="white"/>
<path d="M287.937 57.0708C289.582 57.0708 290.602 57.9115 290.602 59.2979C290.602 60.6753 289.582 61.525 287.937 61.525H286.523V63.3317H285.361V57.0708H287.937ZM287.883 60.5411C288.903 60.5411 289.43 60.085 289.43 59.2979C289.43 58.5108 288.903 58.0547 287.883 58.0547H286.523V60.5411H287.883Z" fill="white"/>
<path d="M275.543 63.3317V57.0708H276.688V61.516L280.051 57.0708H281.133V63.3317H279.989V58.8954L276.626 63.3317H275.543Z" fill="white"/>
<path d="M268.233 62.3568H271.766V63.3317H267.071V57.0708H271.641V58.0457H268.233V59.6735H271.257V60.6305H268.233V62.3568Z" fill="white"/>
<path d="M266.068 57.0708V58.0547H263.993V63.3317H262.839V58.0547H260.773V57.0708H266.068Z" fill="white"/>
<path d="M254.179 63.3317V57.0708H255.324V61.516L258.687 57.0708H259.769V63.3317H258.624V58.8954L255.261 63.3317H254.179Z" fill="white"/>
<path d="M246.824 63.3317V57.0708H247.969V61.516L251.332 57.0708H252.415V63.3317H251.27V58.8954L247.907 63.3317H246.824Z" fill="white"/>
<path d="M244.821 62.3478H245.751V64.7091H244.678V63.3317H239.365V57.0708H240.51V62.3478H243.667V57.0708H244.821V62.3478Z" fill="white"/>
<path d="M237.18 63.3317L236.554 61.8827H233.423L232.806 63.3317H231.608L234.425 57.0708H235.57L238.396 63.3317H237.18ZM233.817 60.9704H236.169L234.989 58.2335L233.817 60.9704Z" fill="white"/>
<path d="M229.854 60.076C230.641 60.2907 231.079 60.8094 231.079 61.5965C231.079 62.6787 230.265 63.3317 228.709 63.3317H225.74V57.0708H228.539C229.934 57.0708 230.775 57.6432 230.775 58.6807C230.775 59.3515 230.435 59.8256 229.854 60.076ZM226.884 57.9652V59.7451H228.441C229.192 59.7451 229.594 59.441 229.594 58.8596C229.594 58.2693 229.192 57.9652 228.441 57.9652H226.884ZM228.673 62.4373C229.478 62.4373 229.907 62.1332 229.907 61.5071C229.907 60.881 229.478 60.5948 228.673 60.5948H226.884V62.4373H228.673Z" fill="white"/>
<path d="M221.073 63.4212C219.132 63.4212 217.701 62.0527 217.701 60.2013C217.701 58.3499 219.132 56.9814 221.073 56.9814C223.014 56.9814 224.445 58.3409 224.445 60.2013C224.445 62.0617 223.014 63.4212 221.073 63.4212ZM221.073 62.4016C222.334 62.4016 223.273 61.4803 223.273 60.2013C223.273 58.9223 222.334 58.0011 221.073 58.0011C219.812 58.0011 218.873 58.9223 218.873 60.2013C218.873 61.4803 219.812 62.4016 221.073 62.4016Z" fill="white"/>
<path d="M215.256 57.0708H216.419V63.3317H215.256V60.6484H212.019V63.3317H210.856V57.0708H212.019V59.6556H215.256V57.0708Z" fill="white"/>
<path d="M203.51 63.3317V57.0708H204.655V61.516L208.018 57.0708H209.1V63.3317H207.955V58.8954L204.592 63.3317H203.51Z" fill="white"/>
<path d="M198.853 63.3317L198.227 61.8827H195.096L194.479 63.3317H193.281L196.098 57.0708H197.243L200.069 63.3317H198.853ZM195.49 60.9704H197.842L196.662 58.2335L195.49 60.9704Z" fill="white"/>
<path d="M191.158 57.0708H192.321V63.3317H191.158V60.6484H187.92V63.3317H186.757V57.0708H187.92V59.6556H191.158V57.0708Z" fill="white"/>
<path d="M179.628 63.4212C177.687 63.4212 176.256 62.0527 176.256 60.2013C176.256 58.3499 177.687 56.9814 179.628 56.9814C181.569 56.9814 183 58.3409 183 60.2013C183 62.0617 181.569 63.4212 179.628 63.4212ZM179.628 62.4016C180.889 62.4016 181.828 61.4803 181.828 60.2013C181.828 58.9223 180.889 58.0011 179.628 58.0011C178.367 58.0011 177.428 58.9223 177.428 60.2013C177.428 61.4803 178.367 62.4016 179.628 62.4016Z" fill="white"/>
<path d="M174.18 60.076C174.967 60.2907 175.406 60.8094 175.406 61.5965C175.406 62.6787 174.592 63.3317 173.035 63.3317H170.066V57.0708H172.866C174.261 57.0708 175.102 57.6432 175.102 58.6807C175.102 59.3515 174.762 59.8256 174.18 60.076ZM171.211 57.9652V59.7451H172.767C173.518 59.7451 173.921 59.441 173.921 58.8596C173.921 58.2693 173.518 57.9652 172.767 57.9652H171.211ZM173 62.4373C173.805 62.4373 174.234 62.1332 174.234 61.5071C174.234 60.881 173.805 60.5948 173 60.5948H171.211V62.4373H173Z" fill="white"/>
<path d="M169.054 57.0708V58.0547H166.979V63.3317H165.825V58.0547H163.759V57.0708H169.054Z" fill="white"/>
<path d="M161.015 63.4212C159.1 63.4212 157.669 62.0706 157.669 60.2013C157.669 58.332 159.1 56.9814 161.023 56.9814C162.043 56.9814 162.92 57.3482 163.501 58.0279L162.75 58.7345C162.294 58.2426 161.73 58.0011 161.077 58.0011C159.78 58.0011 158.841 58.9134 158.841 60.2013C158.841 61.4893 159.78 62.4016 161.077 62.4016C161.73 62.4016 162.294 62.1601 162.75 61.6592L163.501 62.3747C162.92 63.0545 162.043 63.4212 161.015 63.4212Z" fill="white"/>
<path d="M154.282 57.0708C155.928 57.0708 156.947 57.9115 156.947 59.2979C156.947 60.6753 155.928 61.525 154.282 61.525H152.869V63.3317H151.706V57.0708H154.282ZM154.228 60.5411C155.248 60.5411 155.776 60.085 155.776 59.2979C155.776 58.5108 155.248 58.0547 154.228 58.0547H152.869V60.5411H154.228Z" fill="white"/>
<path d="M146.877 62.3568H150.41V63.3317H145.714V57.0708H150.285V58.0457H146.877V59.6735H149.9V60.6305H146.877V62.3568Z" fill="white"/>
<path d="M144.711 57.0708V58.0547H142.636V63.3317H141.483V58.0547H139.416V57.0708H144.711Z" fill="white"/>
<path d="M136.672 63.4212C134.758 63.4212 133.326 62.0706 133.326 60.2013C133.326 58.332 134.758 56.9814 136.681 56.9814C137.7 56.9814 138.577 57.3482 139.158 58.0279L138.407 58.7345C137.951 58.2426 137.387 58.0011 136.734 58.0011C135.437 58.0011 134.498 58.9134 134.498 60.2013C134.498 61.4893 135.437 62.4016 136.734 62.4016C137.387 62.4016 137.951 62.1601 138.407 61.6592L139.158 62.3747C138.577 63.0545 137.7 63.4212 136.672 63.4212Z" fill="white"/>
<path d="M126.446 63.3317V57.0708H127.591V61.516L130.954 57.0708H132.036V63.3317H130.891V58.8954L127.528 63.3317H126.446Z" fill="white"/>
<path d="M123.518 57.0708H124.681V63.3317H123.518V60.6484H120.28V63.3317H119.118V57.0708H120.28V59.6556H123.518V57.0708Z" fill="white"/>
<path d="M111.772 63.3317V57.0708H112.917V61.516L116.28 57.0708H117.362V63.3317H116.217V58.8954L112.854 63.3317H111.772Z" fill="white"/>
<path d="M110.011 63.3317H108.902L108.893 59.1816L106.836 62.6161H106.317L104.26 59.2353V63.3317H103.16V57.0708H104.117L106.595 61.2119L109.045 57.0708H109.993L110.011 63.3317Z" fill="white"/>
</svg>
