<svg width="313" height="77" viewBox="0 0 313 77" fill="none" xmlns="http://www.w3.org/2000/svg">
<path d="M6.05576 59.1377C12.9214 69.8081 24.9453 76.883 38.6328 76.883C52.3202 76.883 64.3515 69.8081 71.2098 59.1377C61.9438 51.925 50.5911 48.0106 38.6328 48.0106C26.6745 48.0106 15.3218 51.925 6.05576 59.1377Z" fill="white"/>
<path d="M38.6328 41.1023C30.5487 41.1023 22.7054 42.6753 15.3218 45.7778C10.8566 47.6553 6.66862 50.0402 2.81628 52.9108C3.37079 54.2735 4.00555 55.6001 4.71327 56.8832C14.3879 49.4385 26.2002 45.4081 38.6401 45.4081C51.0799 45.4081 62.885 49.4458 72.5596 56.8832C73.2673 55.6001 73.8948 54.2735 74.4566 52.9108C70.6042 50.0474 66.4163 47.6626 61.9511 45.7778C54.5674 42.6753 46.7241 41.1023 38.6401 41.1023" fill="white"/>
<path d="M13.1111 43.9002C13.2935 43.8205 13.4759 43.7407 13.6583 43.661C13.8772 43.5668 14.096 43.4725 14.3149 43.3783C14.5557 43.2768 14.8038 43.1753 15.0445 43.0811C15.2051 43.0158 15.3729 42.9434 15.5334 42.8781C15.942 42.7186 16.3578 42.5592 16.7737 42.4069C16.8832 42.3707 16.9926 42.3272 17.102 42.291C17.4377 42.1677 17.7733 42.0445 18.1162 41.9285C18.2183 41.8923 18.3278 41.856 18.4299 41.8198C18.7947 41.6966 19.1595 41.5733 19.5243 41.4573C19.5973 41.4356 19.6703 41.4138 19.7359 41.3921C21.1222 40.9572 22.5303 40.5657 23.9531 40.225V26.5898C21.217 33.0414 17.4158 38.9275 12.7682 44.0452C12.8776 43.9945 12.9943 43.9437 13.1038 43.893" fill="white"/>
<path d="M53.3052 28.2643V40.225C54.7279 40.5657 56.1361 40.9572 57.5223 41.3921C57.5953 41.4138 57.6683 41.4356 57.7412 41.4646C58.106 41.5806 58.4708 41.7038 58.8356 41.827C58.9378 41.8633 59.0472 41.8995 59.1494 41.9358C59.485 42.0517 59.8279 42.175 60.1635 42.2982C60.273 42.3345 60.3824 42.3779 60.4846 42.4142C60.9004 42.5664 61.3163 42.7259 61.7249 42.8854C61.8854 42.9506 62.0532 43.0158 62.2137 43.0811C62.4618 43.1826 62.7026 43.2768 62.9433 43.3783C63.1622 43.4725 63.3811 43.5668 63.6 43.661C63.7824 43.7407 63.9648 43.8205 64.1472 43.9002C64.2566 43.951 64.3734 43.9945 64.4828 44.0452C59.8352 38.9275 56.0339 33.0341 53.2979 26.5898V28.2643H53.3052Z" fill="white"/>
<path d="M38.6328 0.116943C17.299 0.116943 0 17.2968 0 38.4999C0 42.639 0.663944 46.6259 1.88239 50.3663C1.88239 50.3663 1.88239 50.3663 1.88969 50.3663C1.97724 50.3011 2.06479 50.2358 2.15964 50.1706C4.45791 48.4671 6.63214 46.5896 8.68964 44.5527C14.1909 39.087 18.5102 32.7225 21.5235 25.6403C22.4792 23.3932 23.2964 21.1025 23.9604 18.7684C24.1719 18.0217 24.3689 17.2678 24.5513 16.5212H26.5796C26.5796 17.3693 26.5796 18.2102 26.5796 19.1236V24.6255V39.6742C30.4831 38.9131 34.5105 38.5144 38.6328 38.5144C42.7551 38.5144 46.7752 38.9131 50.664 39.6669H50.6859V19.1163C50.6859 18.7539 50.6859 18.4204 50.6859 18.1015C50.6859 17.565 50.6859 17.0721 50.6859 16.5285H52.7142C52.8966 17.2823 53.0936 18.029 53.3052 18.7756C53.9692 21.1025 54.7863 23.4004 55.7421 25.6476C58.7554 32.7297 63.0747 39.0943 68.5759 44.5599C70.6261 46.5969 72.8077 48.4744 75.1059 50.1778C75.1935 50.2431 75.2883 50.3083 75.3759 50.3736C76.6016 46.6404 77.2583 42.6462 77.2583 38.5071C77.2583 17.3113 59.9592 0.124192 38.6255 0.124192M47.7529 16.456C42.7186 16.456 38.6328 20.5153 38.6328 25.5171V25.5388C38.6328 20.5371 34.547 16.4777 29.5127 16.4777V16.4632C34.547 16.4632 38.6328 12.4038 38.6328 7.40209V7.38034C38.6328 12.3821 42.7113 16.4415 47.7529 16.4415V16.456Z" fill="white"/>
<path d="M99.6523 27.5V12.8H100.933L111.076 25.568H110.404V12.8H111.937V27.5H110.656L100.534 14.732H101.206V27.5H99.6523ZM114.173 27.5L120.893 12.8H122.426L129.146 27.5H127.508L121.334 13.703H121.964L115.79 27.5H114.173ZM116.819 23.573L117.281 22.313H125.828L126.29 23.573H116.819ZM133.486 27.5V14.144H128.32V12.8H140.206V14.144H135.04V27.5H133.486ZM142.478 27.5V12.8H144.032V27.5H142.478ZM155.031 27.626C153.925 27.626 152.896 27.444 151.944 27.08C151.006 26.702 150.187 26.177 149.487 25.505C148.801 24.819 148.262 24.028 147.87 23.132C147.492 22.222 147.303 21.228 147.303 20.15C147.303 19.072 147.492 18.085 147.87 17.189C148.262 16.279 148.801 15.488 149.487 14.816C150.187 14.13 151.006 13.605 151.944 13.241C152.882 12.863 153.911 12.674 155.031 12.674C156.137 12.674 157.159 12.863 158.097 13.241C159.035 13.605 159.847 14.123 160.533 14.795C161.233 15.467 161.772 16.258 162.15 17.168C162.542 18.078 162.738 19.072 162.738 20.15C162.738 21.228 162.542 22.222 162.15 23.132C161.772 24.042 161.233 24.833 160.533 25.505C159.847 26.177 159.035 26.702 158.097 27.08C157.159 27.444 156.137 27.626 155.031 27.626ZM155.031 26.24C155.913 26.24 156.725 26.093 157.467 25.799C158.223 25.491 158.874 25.064 159.42 24.518C159.98 23.958 160.414 23.314 160.722 22.586C161.03 21.844 161.184 21.032 161.184 20.15C161.184 19.268 161.03 18.463 160.722 17.735C160.414 16.993 159.98 16.349 159.42 15.803C158.874 15.243 158.223 14.816 157.467 14.522C156.725 14.214 155.913 14.06 155.031 14.06C154.149 14.06 153.33 14.214 152.574 14.522C151.818 14.816 151.16 15.243 150.6 15.803C150.054 16.349 149.62 16.993 149.298 17.735C148.99 18.463 148.836 19.268 148.836 20.15C148.836 21.018 148.99 21.823 149.298 22.565C149.62 23.307 150.054 23.958 150.6 24.518C151.16 25.064 151.818 25.491 152.574 25.799C153.33 26.093 154.149 26.24 155.031 26.24ZM166.011 27.5V12.8H167.292L177.435 25.568H176.763V12.8H178.296V27.5H177.015L166.893 14.732H167.565V27.5H166.011ZM180.532 27.5L187.252 12.8H188.785L195.505 27.5H193.867L187.693 13.703H188.323L182.149 27.5H180.532ZM183.178 23.573L183.64 22.313H192.187L192.649 23.573H183.178ZM197.727 27.5V12.8H199.281V26.156H207.513V27.5H197.727ZM99.2323 49.5V34.8H101.962V49.5H99.2323ZM105.728 49.5V34.8H107.975L117.194 46.119H116.081V34.8H118.79V49.5H116.543L107.324 38.181H108.437V49.5H105.728ZM122.519 49.5V34.8H124.766L133.985 46.119H132.872V34.8H135.581V49.5H133.334L124.115 38.181H125.228V49.5H122.519ZM146.198 49.71C145.05 49.71 143.993 49.521 143.027 49.143C142.061 48.765 141.221 48.24 140.507 47.568C139.793 46.882 139.24 46.084 138.848 45.174C138.456 44.25 138.26 43.242 138.26 42.15C138.26 41.058 138.456 40.057 138.848 39.147C139.24 38.223 139.793 37.425 140.507 36.753C141.221 36.067 142.061 35.535 143.027 35.157C143.993 34.779 145.043 34.59 146.177 34.59C147.325 34.59 148.375 34.779 149.327 35.157C150.293 35.535 151.133 36.067 151.847 36.753C152.561 37.425 153.114 38.223 153.506 39.147C153.898 40.057 154.094 41.058 154.094 42.15C154.094 43.242 153.898 44.25 153.506 45.174C153.114 46.098 152.561 46.896 151.847 47.568C151.133 48.24 150.293 48.765 149.327 49.143C148.375 49.521 147.332 49.71 146.198 49.71ZM146.177 47.316C146.919 47.316 147.605 47.19 148.235 46.938C148.865 46.686 149.411 46.329 149.873 45.867C150.335 45.391 150.692 44.845 150.944 44.229C151.21 43.599 151.343 42.906 151.343 42.15C151.343 41.394 151.21 40.708 150.944 40.092C150.692 39.462 150.335 38.916 149.873 38.454C149.411 37.978 148.865 37.614 148.235 37.362C147.605 37.11 146.919 36.984 146.177 36.984C145.435 36.984 144.749 37.11 144.119 37.362C143.503 37.614 142.957 37.978 142.481 38.454C142.019 38.916 141.655 39.462 141.389 40.092C141.137 40.708 141.011 41.394 141.011 42.15C141.011 42.892 141.137 43.578 141.389 44.208C141.655 44.838 142.019 45.391 142.481 45.867C142.943 46.329 143.489 46.686 144.119 46.938C144.749 47.19 145.435 47.316 146.177 47.316ZM160.674 49.5L154.248 34.8H157.209L162.942 48.093H161.241L167.037 34.8H169.767L163.362 49.5H160.674ZM168.557 49.5L175.172 34.8H177.86L184.496 49.5H181.64L175.949 36.249H177.041L171.371 49.5H168.557ZM171.602 46.098L172.337 43.956H180.275L181.01 46.098H171.602ZM188.4 49.5V37.11H183.528V34.8H196.002V37.11H191.13V49.5H188.4ZM197.84 49.5V34.8H200.57V49.5H197.84ZM211.224 49.71C210.076 49.71 209.019 49.521 208.053 49.143C207.087 48.765 206.247 48.24 205.533 47.568C204.819 46.882 204.266 46.084 203.874 45.174C203.482 44.25 203.286 43.242 203.286 42.15C203.286 41.058 203.482 40.057 203.874 39.147C204.266 38.223 204.819 37.425 205.533 36.753C206.247 36.067 207.087 35.535 208.053 35.157C209.019 34.779 210.069 34.59 211.203 34.59C212.351 34.59 213.401 34.779 214.353 35.157C215.319 35.535 216.159 36.067 216.873 36.753C217.587 37.425 218.14 38.223 218.532 39.147C218.924 40.057 219.12 41.058 219.12 42.15C219.12 43.242 218.924 44.25 218.532 45.174C218.14 46.098 217.587 46.896 216.873 47.568C216.159 48.24 215.319 48.765 214.353 49.143C213.401 49.521 212.358 49.71 211.224 49.71ZM211.203 47.316C211.945 47.316 212.631 47.19 213.261 46.938C213.891 46.686 214.437 46.329 214.899 45.867C215.361 45.391 215.718 44.845 215.97 44.229C216.236 43.599 216.369 42.906 216.369 42.15C216.369 41.394 216.236 40.708 215.97 40.092C215.718 39.462 215.361 38.916 214.899 38.454C214.437 37.978 213.891 37.614 213.261 37.362C212.631 37.11 211.945 36.984 211.203 36.984C210.461 36.984 209.775 37.11 209.145 37.362C208.529 37.614 207.983 37.978 207.507 38.454C207.045 38.916 206.681 39.462 206.415 40.092C206.163 40.708 206.037 41.394 206.037 42.15C206.037 42.892 206.163 43.578 206.415 44.208C206.681 44.838 207.045 45.391 207.507 45.867C207.969 46.329 208.515 46.686 209.145 46.938C209.775 47.19 210.461 47.316 211.203 47.316ZM221.804 49.5V34.8H224.051L233.27 46.119H232.157V34.8H234.866V49.5H232.619L223.4 38.181H224.513V49.5H221.804ZM246.688 41.562H254.017V43.872H246.688V41.562ZM246.919 49.5H244.189V34.8H254.92V37.089H246.919V49.5ZM263.671 49.71C261.655 49.71 260.073 49.143 258.925 48.009C257.791 46.875 257.224 45.237 257.224 43.095V34.8H259.954V42.99C259.954 44.502 260.276 45.601 260.92 46.287C261.578 46.973 262.502 47.316 263.692 47.316C264.882 47.316 265.799 46.973 266.443 46.287C267.087 45.601 267.409 44.502 267.409 42.99V34.8H270.097V43.095C270.097 45.237 269.523 46.875 268.375 48.009C267.241 49.143 265.673 49.71 263.671 49.71ZM273.71 49.5V34.8H275.957L285.176 46.119H284.063V34.8H286.772V49.5H284.525L275.306 38.181H276.419V49.5H273.71ZM290.501 49.5V34.8H296.927C298.523 34.8 299.923 35.108 301.127 35.724C302.331 36.34 303.269 37.194 303.941 38.286C304.613 39.378 304.949 40.666 304.949 42.15C304.949 43.62 304.613 44.908 303.941 46.014C303.269 47.106 302.331 47.96 301.127 48.576C299.923 49.192 298.523 49.5 296.927 49.5H290.501ZM293.231 47.19H296.801C297.907 47.19 298.859 46.98 299.657 46.56C300.469 46.14 301.092 45.552 301.526 44.796C301.974 44.04 302.198 43.158 302.198 42.15C302.198 41.128 301.974 40.246 301.526 39.504C301.092 38.748 300.469 38.16 299.657 37.74C298.859 37.32 297.907 37.11 296.801 37.11H293.231V47.19Z" fill="white"/>
<path d="M98.1983 66.5V59.5H99.2683L102.328 64.61H101.768L104.778 59.5H105.848L105.858 66.5H104.628L104.618 61.43H104.878L102.318 65.7H101.738L99.1383 61.43H99.4383V66.5H98.1983ZM107.749 66.5V59.5H109.049V66.5H107.749ZM110.942 66.5V59.5H112.012L116.402 64.89H115.872V59.5H117.162V66.5H116.092L111.702 61.11H112.232V66.5H110.942ZM119.038 66.5V59.5H120.338V66.5H119.038ZM124.401 66.6C123.855 66.6 123.331 66.5233 122.831 66.37C122.331 66.21 121.935 66.0067 121.641 65.76L122.091 64.75C122.371 64.97 122.718 65.1533 123.131 65.3C123.545 65.4467 123.968 65.52 124.401 65.52C124.768 65.52 125.065 65.48 125.291 65.4C125.518 65.32 125.685 65.2133 125.791 65.08C125.898 64.94 125.951 64.7833 125.951 64.61C125.951 64.3967 125.875 64.2267 125.721 64.1C125.568 63.9667 125.368 63.8633 125.121 63.79C124.881 63.71 124.611 63.6367 124.311 63.57C124.018 63.5033 123.721 63.4267 123.421 63.34C123.128 63.2467 122.858 63.13 122.611 62.99C122.371 62.8433 122.175 62.65 122.021 62.41C121.868 62.17 121.791 61.8633 121.791 61.49C121.791 61.11 121.891 60.7633 122.091 60.45C122.298 60.13 122.608 59.8767 123.021 59.69C123.441 59.4967 123.971 59.4 124.611 59.4C125.031 59.4 125.448 59.4533 125.861 59.56C126.275 59.6667 126.635 59.82 126.941 60.02L126.531 61.03C126.218 60.8433 125.895 60.7067 125.561 60.62C125.228 60.5267 124.908 60.48 124.601 60.48C124.241 60.48 123.948 60.5233 123.721 60.61C123.501 60.6967 123.338 60.81 123.231 60.95C123.131 61.09 123.081 61.25 123.081 61.43C123.081 61.6433 123.155 61.8167 123.301 61.95C123.455 62.0767 123.651 62.1767 123.891 62.25C124.138 62.3233 124.411 62.3967 124.711 62.47C125.011 62.5367 125.308 62.6133 125.601 62.7C125.901 62.7867 126.171 62.9 126.411 63.04C126.658 63.18 126.855 63.37 127.001 63.61C127.155 63.85 127.231 64.1533 127.231 64.52C127.231 64.8933 127.128 65.24 126.921 65.56C126.721 65.8733 126.411 66.1267 125.991 66.32C125.571 66.5067 125.041 66.6 124.401 66.6ZM129.843 66.5V60.6H127.523V59.5H133.463V60.6H131.143V66.5H129.843ZM134.439 66.5V59.5H137.319C137.939 59.5 138.469 59.6 138.909 59.8C139.355 60 139.699 60.2867 139.939 60.66C140.179 61.0333 140.299 61.4767 140.299 61.99C140.299 62.5033 140.179 62.9467 139.939 63.32C139.699 63.6867 139.355 63.97 138.909 64.17C138.469 64.3633 137.939 64.46 137.319 64.46H135.159L135.739 63.87V66.5H134.439ZM139.019 66.5L137.249 63.96H138.639L140.419 66.5H139.019ZM135.739 64.01L135.159 63.39H137.259C137.832 63.39 138.262 63.2667 138.549 63.02C138.842 62.7733 138.989 62.43 138.989 61.99C138.989 61.5433 138.842 61.2 138.549 60.96C138.262 60.72 137.832 60.6 137.259 60.6H135.159L135.739 59.96V64.01ZM143.375 66.5V63.73L143.665 64.53L140.625 59.5H142.015L144.455 63.55H143.675L146.135 59.5H147.415L144.375 64.53L144.675 63.73V66.5H143.375ZM154.31 66.6C153.764 66.6 153.26 66.51 152.8 66.33C152.34 66.15 151.94 65.9 151.6 65.58C151.26 65.2533 150.997 64.8733 150.81 64.44C150.624 64 150.53 63.52 150.53 63C150.53 62.48 150.624 62.0033 150.81 61.57C150.997 61.13 151.26 60.75 151.6 60.43C151.94 60.1033 152.34 59.85 152.8 59.67C153.26 59.49 153.76 59.4 154.3 59.4C154.847 59.4 155.347 59.49 155.8 59.67C156.26 59.85 156.66 60.1033 157 60.43C157.34 60.75 157.604 61.13 157.79 61.57C157.977 62.0033 158.07 62.48 158.07 63C158.07 63.52 157.977 64 157.79 64.44C157.604 64.88 157.34 65.26 157 65.58C156.66 65.9 156.26 66.15 155.8 66.33C155.347 66.51 154.85 66.6 154.31 66.6ZM154.3 65.46C154.654 65.46 154.98 65.4 155.28 65.28C155.58 65.16 155.84 64.99 156.06 64.77C156.28 64.5433 156.45 64.2833 156.57 63.99C156.697 63.69 156.76 63.36 156.76 63C156.76 62.64 156.697 62.3133 156.57 62.02C156.45 61.72 156.28 61.46 156.06 61.24C155.84 61.0133 155.58 60.84 155.28 60.72C154.98 60.6 154.654 60.54 154.3 60.54C153.947 60.54 153.62 60.6 153.32 60.72C153.027 60.84 152.767 61.0133 152.54 61.24C152.32 61.46 152.147 61.72 152.02 62.02C151.9 62.3133 151.84 62.64 151.84 63C151.84 63.3533 151.9 63.68 152.02 63.98C152.147 64.28 152.32 64.5433 152.54 64.77C152.76 64.99 153.02 65.16 153.32 65.28C153.62 65.4 153.947 65.46 154.3 65.46ZM160.638 62.72H164.128V63.82H160.638V62.72ZM160.748 66.5H159.448V59.5H164.558V60.59H160.748V66.5ZM168.579 66.5V59.5H169.879V66.5H168.579ZM171.772 66.5V59.5H172.842L177.232 64.89H176.702V59.5H177.992V66.5H176.922L172.532 61.11H173.062V66.5H171.772ZM179.868 66.5V59.5H180.938L185.328 64.89H184.798V59.5H186.088V66.5H185.018L180.628 61.11H181.158V66.5H179.868ZM191.244 66.6C190.697 66.6 190.194 66.51 189.734 66.33C189.274 66.15 188.874 65.9 188.534 65.58C188.194 65.2533 187.931 64.8733 187.744 64.44C187.557 64 187.464 63.52 187.464 63C187.464 62.48 187.557 62.0033 187.744 61.57C187.931 61.13 188.194 60.75 188.534 60.43C188.874 60.1033 189.274 59.85 189.734 59.67C190.194 59.49 190.694 59.4 191.234 59.4C191.781 59.4 192.281 59.49 192.734 59.67C193.194 59.85 193.594 60.1033 193.934 60.43C194.274 60.75 194.537 61.13 194.724 61.57C194.911 62.0033 195.004 62.48 195.004 63C195.004 63.52 194.911 64 194.724 64.44C194.537 64.88 194.274 65.26 193.934 65.58C193.594 65.9 193.194 66.15 192.734 66.33C192.281 66.51 191.784 66.6 191.244 66.6ZM191.234 65.46C191.587 65.46 191.914 65.4 192.214 65.28C192.514 65.16 192.774 64.99 192.994 64.77C193.214 64.5433 193.384 64.2833 193.504 63.99C193.631 63.69 193.694 63.36 193.694 63C193.694 62.64 193.631 62.3133 193.504 62.02C193.384 61.72 193.214 61.46 192.994 61.24C192.774 61.0133 192.514 60.84 192.214 60.72C191.914 60.6 191.587 60.54 191.234 60.54C190.881 60.54 190.554 60.6 190.254 60.72C189.961 60.84 189.701 61.0133 189.474 61.24C189.254 61.46 189.081 61.72 188.954 62.02C188.834 62.3133 188.774 62.64 188.774 63C188.774 63.3533 188.834 63.68 188.954 63.98C189.081 64.28 189.254 64.5433 189.474 64.77C189.694 64.99 189.954 65.16 190.254 65.28C190.554 65.4 190.881 65.46 191.234 65.46ZM198.237 66.5L195.177 59.5H196.587L199.317 65.83H198.507L201.267 59.5H202.567L199.517 66.5H198.237ZM202.091 66.5L205.241 59.5H206.521L209.681 66.5H208.321L205.611 60.19H206.131L203.431 66.5H202.091ZM203.541 64.88L203.891 63.86H207.671L208.021 64.88H203.541ZM211.64 66.5V60.6H209.32V59.5H215.26V60.6H212.94V66.5H211.64ZM216.235 66.5V59.5H217.535V66.5H216.235ZM222.709 66.6C222.162 66.6 221.659 66.51 221.199 66.33C220.739 66.15 220.339 65.9 219.999 65.58C219.659 65.2533 219.395 64.8733 219.209 64.44C219.022 64 218.929 63.52 218.929 63C218.929 62.48 219.022 62.0033 219.209 61.57C219.395 61.13 219.659 60.75 219.999 60.43C220.339 60.1033 220.739 59.85 221.199 59.67C221.659 59.49 222.159 59.4 222.699 59.4C223.245 59.4 223.745 59.49 224.199 59.67C224.659 59.85 225.059 60.1033 225.399 60.43C225.739 60.75 226.002 61.13 226.189 61.57C226.375 62.0033 226.469 62.48 226.469 63C226.469 63.52 226.375 64 226.189 64.44C226.002 64.88 225.739 65.26 225.399 65.58C225.059 65.9 224.659 66.15 224.199 66.33C223.745 66.51 223.249 66.6 222.709 66.6ZM222.699 65.46C223.052 65.46 223.379 65.4 223.679 65.28C223.979 65.16 224.239 64.99 224.459 64.77C224.679 64.5433 224.849 64.2833 224.969 63.99C225.095 63.69 225.159 63.36 225.159 63C225.159 62.64 225.095 62.3133 224.969 62.02C224.849 61.72 224.679 61.46 224.459 61.24C224.239 61.0133 223.979 60.84 223.679 60.72C223.379 60.6 223.052 60.54 222.699 60.54C222.345 60.54 222.019 60.6 221.719 60.72C221.425 60.84 221.165 61.0133 220.939 61.24C220.719 61.46 220.545 61.72 220.419 62.02C220.299 62.3133 220.239 62.64 220.239 63C220.239 63.3533 220.299 63.68 220.419 63.98C220.545 64.28 220.719 64.5433 220.939 64.77C221.159 64.99 221.419 65.16 221.719 65.28C222.019 65.4 222.345 65.46 222.699 65.46ZM227.847 66.5V59.5H228.917L233.307 64.89H232.777V59.5H234.067V66.5H232.997L228.607 61.11H229.137V66.5H227.847ZM237.716 66.5L240.866 59.5H242.146L245.306 66.5H243.946L241.236 60.19H241.756L239.056 66.5H237.716ZM239.166 64.88L239.516 63.86H243.296L243.646 64.88H239.166ZM246.196 66.5V59.5H247.266L251.656 64.89H251.126V59.5H252.416V66.5H251.346L246.956 61.11H247.486V66.5H246.196ZM254.292 66.5V59.5H257.352C258.112 59.5 258.779 59.6467 259.352 59.94C259.925 60.2333 260.372 60.64 260.692 61.16C261.012 61.68 261.172 62.2933 261.172 63C261.172 63.7 261.012 64.3133 260.692 64.84C260.372 65.36 259.925 65.7667 259.352 66.06C258.779 66.3533 258.112 66.5 257.352 66.5H254.292ZM255.592 65.4H257.292C257.819 65.4 258.272 65.3 258.652 65.1C259.039 64.9 259.335 64.62 259.542 64.26C259.755 63.9 259.862 63.48 259.862 63C259.862 62.5133 259.755 62.0933 259.542 61.74C259.335 61.38 259.039 61.1 258.652 60.9C258.272 60.7 257.819 60.6 257.292 60.6H255.592V65.4ZM268.587 66.6C268.041 66.6 267.537 66.5133 267.077 66.34C266.624 66.16 266.227 65.91 265.887 65.59C265.547 65.2633 265.284 64.88 265.097 64.44C264.911 64 264.817 63.52 264.817 63C264.817 62.48 264.911 62 265.097 61.56C265.284 61.12 265.547 60.74 265.887 60.42C266.234 60.0933 266.637 59.8433 267.097 59.67C267.557 59.49 268.061 59.4 268.607 59.4C269.201 59.4 269.734 59.4967 270.207 59.69C270.687 59.8833 271.091 60.1667 271.417 60.54L270.597 61.34C270.324 61.0667 270.027 60.8667 269.707 60.74C269.394 60.6067 269.047 60.54 268.667 60.54C268.301 60.54 267.961 60.6 267.647 60.72C267.334 60.84 267.064 61.01 266.837 61.23C266.611 61.45 266.434 61.71 266.307 62.01C266.187 62.31 266.127 62.64 266.127 63C266.127 63.3533 266.187 63.68 266.307 63.98C266.434 64.28 266.611 64.5433 266.837 64.77C267.064 64.99 267.331 65.16 267.637 65.28C267.944 65.4 268.284 65.46 268.657 65.46C269.004 65.46 269.337 65.4067 269.657 65.3C269.984 65.1867 270.294 65 270.587 64.74L271.327 65.71C270.961 66.0033 270.534 66.2267 270.047 66.38C269.567 66.5267 269.081 66.6 268.587 66.6ZM270.097 65.54V62.92H271.327V65.71L270.097 65.54ZM273.042 66.5V59.5H275.922C276.542 59.5 277.072 59.6 277.512 59.8C277.959 60 278.302 60.2867 278.542 60.66C278.782 61.0333 278.902 61.4767 278.902 61.99C278.902 62.5033 278.782 62.9467 278.542 63.32C278.302 63.6867 277.959 63.97 277.512 64.17C277.072 64.3633 276.542 64.46 275.922 64.46H273.762L274.342 63.87V66.5H273.042ZM277.622 66.5L275.852 63.96H277.242L279.022 66.5H277.622ZM274.342 64.01L273.762 63.39H275.862C276.435 63.39 276.865 63.2667 277.152 63.02C277.445 62.7733 277.592 62.43 277.592 61.99C277.592 61.5433 277.445 61.2 277.152 60.96C276.865 60.72 276.435 60.6 275.862 60.6H273.762L274.342 59.96V64.01ZM283.636 66.6C283.09 66.6 282.586 66.51 282.126 66.33C281.666 66.15 281.266 65.9 280.926 65.58C280.586 65.2533 280.323 64.8733 280.136 64.44C279.95 64 279.856 63.52 279.856 63C279.856 62.48 279.95 62.0033 280.136 61.57C280.323 61.13 280.586 60.75 280.926 60.43C281.266 60.1033 281.666 59.85 282.126 59.67C282.586 59.49 283.086 59.4 283.626 59.4C284.173 59.4 284.673 59.49 285.126 59.67C285.586 59.85 285.986 60.1033 286.326 60.43C286.666 60.75 286.93 61.13 287.116 61.57C287.303 62.0033 287.396 62.48 287.396 63C287.396 63.52 287.303 64 287.116 64.44C286.93 64.88 286.666 65.26 286.326 65.58C285.986 65.9 285.586 66.15 285.126 66.33C284.673 66.51 284.176 66.6 283.636 66.6ZM283.626 65.46C283.98 65.46 284.306 65.4 284.606 65.28C284.906 65.16 285.166 64.99 285.386 64.77C285.606 64.5433 285.776 64.2833 285.896 63.99C286.023 63.69 286.086 63.36 286.086 63C286.086 62.64 286.023 62.3133 285.896 62.02C285.776 61.72 285.606 61.46 285.386 61.24C285.166 61.0133 284.906 60.84 284.606 60.72C284.306 60.6 283.98 60.54 283.626 60.54C283.273 60.54 282.946 60.6 282.646 60.72C282.353 60.84 282.093 61.0133 281.866 61.24C281.646 61.46 281.473 61.72 281.346 62.02C281.226 62.3133 281.166 62.64 281.166 63C281.166 63.3533 281.226 63.68 281.346 63.98C281.473 64.28 281.646 64.5433 281.866 64.77C282.086 64.99 282.346 65.16 282.646 65.28C282.946 65.4 283.273 65.46 283.626 65.46ZM290.21 66.5L287.89 59.5H289.24L291.31 65.83H290.64L292.79 59.5H293.99L296.08 65.83H295.43L297.55 59.5H298.79L296.47 66.5H295.09L293.18 60.79H293.54L291.6 66.5H290.21ZM301.308 66.5V60.6H298.988V59.5H304.928V60.6H302.608V66.5H301.308ZM310.823 59.5H312.123V66.5H310.823V59.5ZM307.203 66.5H305.903V59.5H307.203V66.5ZM310.923 63.5H307.093V62.39H310.923V63.5Z" fill="white"/>
</svg>
