<?xml version="1.0" encoding="UTF-8"?>
<svg id="Layer_1" xmlns="http://www.w3.org/2000/svg" version="1.1" viewBox="0 0 800 208">
  <!-- Generator: Adobe Illustrator 30.5.1, SVG Export Plug-In . SVG Version: 2.1.4 Build 3)  -->
  <defs>
    <style>
      .st0 {
        fill: #fff;
      }
    </style>
  </defs>
  <g>
    <path class="st0" d="M17.31,159.6c18.5,28.75,50.89,47.81,87.77,47.81s69.29-19.06,87.77-47.81c-24.96-19.43-55.55-29.98-87.77-29.98s-62.8,10.55-87.77,29.98Z"/>
    <path class="st0" d="M105.08,111.01c-21.78,0-42.91,4.24-62.8,12.6-12.03,5.06-23.31,11.48-33.69,19.22,1.49,3.67,3.2,7.25,5.11,10.7,26.06-20.06,57.89-30.91,91.4-30.91s65.32,10.88,91.38,30.91c1.91-3.46,3.6-7.03,5.11-10.7-10.38-7.71-21.66-14.14-33.69-19.22-19.89-8.36-41.02-12.6-62.8-12.6"/>
    <path class="st0" d="M36.32,118.55c.49-.21.98-.43,1.47-.64.59-.25,1.18-.51,1.77-.76.65-.27,1.32-.55,1.97-.8.43-.18.88-.37,1.32-.55,1.1-.43,2.22-.86,3.34-1.27.29-.1.59-.21.88-.31.9-.33,1.81-.66,2.73-.98.28-.1.57-.2.85-.29.98-.33,1.97-.66,2.95-.98.2-.06.39-.12.57-.18,3.73-1.17,7.53-2.23,11.36-3.14v-36.73c-7.37,17.38-17.61,33.24-30.13,47.03.29-.14.61-.27.9-.41"/>
    <path class="st0" d="M144.61,76.42v32.22c3.83.92,7.63,1.97,11.36,3.14.2.06.39.12.59.2.98.31,1.97.64,2.95.98.28.1.57.2.85.29.9.31,1.83.64,2.73.98.29.1.59.21.87.31,1.12.41,2.24.84,3.34,1.27.43.18.88.35,1.32.53.67.27,1.32.53,1.97.8.59.25,1.18.51,1.77.76.49.21.98.43,1.47.64.29.14.61.25.9.39-12.52-13.79-22.76-29.66-30.13-47.03v4.51h.02Z"/>
    <path class="st0" d="M105.08.59C47.61.59,1,46.88,1,104c0,11.15,1.79,21.89,5.07,31.97h.02c.24-.18.47-.35.73-.53,6.19-4.59,12.05-9.65,17.59-15.14,14.82-14.73,26.46-31.87,34.58-50.95,2.57-6.05,4.78-12.23,6.57-18.51.57-2.01,1.1-4.04,1.59-6.05h5.46v62.38c10.52-2.05,21.37-3.12,32.47-3.12s21.94,1.07,32.41,3.11h.06v-62.34h5.46c.49,2.03,1.02,4.04,1.59,6.05,1.79,6.27,3.99,12.46,6.57,18.51,8.12,19.08,19.75,36.23,34.58,50.95,5.52,5.49,11.4,10.55,17.59,15.14.24.18.49.35.73.53,3.3-10.06,5.07-20.82,5.07-31.97C209.14,46.92,162.54.61,105.06.61M129.65,44.61c-13.56,0-24.57,10.94-24.57,24.41v.06c0-13.48-11.01-24.41-24.57-24.41v-.04c13.56,0,24.57-10.94,24.57-24.41v-.06c0,13.48,10.99,24.41,24.57,24.41v.04Z"/>
  </g>
  <g>
    <path class="st0" d="M259.28,161.26v-12.22h2.34l5.2,8.62h-1.24l5.11-8.62h2.32l.03,12.22h-2.65l-.02-8.15h.49l-4.08,6.86h-1.27l-4.17-6.86h.59v8.15h-2.65Z"/>
    <path class="st0" d="M275.77,161.26v-12.22h2.83v12.22h-2.83Z"/>
    <path class="st0" d="M281.31,161.26v-12.22h2.34l7.21,8.8h-1.13v-8.8h2.79v12.22h-2.32l-7.22-8.8h1.13v8.8h-2.79Z"/>
    <path class="st0" d="M295.23,161.26v-12.22h2.83v12.22h-2.83Z"/>
    <path class="st0" d="M304.92,161.47c-.98,0-1.91-.13-2.81-.39-.9-.26-1.62-.6-2.16-1.02l.96-2.13c.52.37,1.14.68,1.86.92.72.24,1.44.36,2.17.36.56,0,1.01-.06,1.35-.17.34-.11.6-.26.76-.46.16-.2.24-.42.24-.68,0-.33-.13-.58-.38-.78-.26-.19-.59-.35-1.01-.47-.42-.12-.88-.24-1.39-.35-.51-.11-1.01-.25-1.52-.41-.51-.16-.97-.37-1.39-.63-.42-.26-.76-.59-1.02-1.01-.26-.42-.39-.95-.39-1.61,0-.7.19-1.34.57-1.91.38-.58.95-1.04,1.71-1.38.76-.34,1.72-.51,2.87-.51.77,0,1.52.09,2.27.27.74.18,1.4.45,1.97.81l-.87,2.15c-.57-.33-1.14-.57-1.71-.72-.57-.16-1.13-.24-1.68-.24s-.99.06-1.34.19c-.35.13-.6.29-.75.5-.15.2-.23.44-.23.71,0,.31.13.57.38.76.26.19.59.35,1.01.46.42.12.88.23,1.39.35.51.12,1.01.25,1.52.4.51.15.97.36,1.39.61.42.26.76.59,1.02,1.01.26.42.39.95.39,1.59,0,.69-.19,1.31-.58,1.88-.38.57-.96,1.03-1.72,1.38-.76.35-1.72.52-2.89.52Z"/>
    <path class="st0" d="M314.54,161.26v-9.91h-3.91v-2.3h10.64v2.3h-3.91v9.91h-2.83Z"/>
    <path class="st0" d="M322.52,161.26v-12.22h5.22c1.7,0,3.02.39,3.96,1.18.94.79,1.41,1.87,1.41,3.25,0,.91-.22,1.69-.65,2.35-.43.66-1.04,1.16-1.83,1.51-.79.35-1.73.52-2.83.52h-3.72l1.26-1.24v4.64h-2.83ZM325.34,156.93l-1.26-1.33h3.56c.87,0,1.52-.19,1.95-.57.43-.38.65-.9.65-1.56s-.22-1.2-.65-1.57c-.43-.37-1.08-.56-1.95-.56h-3.56l1.26-1.34v6.93ZM330.28,161.26l-3.05-4.43h3.02l3.09,4.43h-3.05Z"/>
    <path class="st0" d="M337.75,161.26v-4.99l.65,1.71-5.37-8.93h3l4.12,6.86h-1.73l4.14-6.86h2.77l-5.37,8.93.63-1.71v4.99h-2.83Z"/>
    <path class="st0" d="M357.39,161.47c-.97,0-1.86-.16-2.68-.47-.82-.31-1.53-.76-2.13-1.33-.6-.57-1.06-1.24-1.4-2.01-.33-.77-.5-1.61-.5-2.51s.17-1.75.5-2.51c.33-.77.8-1.44,1.4-2.01.6-.57,1.31-1.01,2.13-1.33.81-.31,1.7-.47,2.65-.47s1.85.16,2.66.47c.81.31,1.51.76,2.11,1.33.6.57,1.07,1.24,1.4,2,.34.76.51,1.6.51,2.52s-.17,1.75-.51,2.52c-.34.77-.81,1.44-1.4,2.01-.6.56-1.3,1-2.11,1.32-.81.31-1.69.47-2.64.47ZM357.37,159.06c.55,0,1.05-.09,1.51-.28.46-.19.86-.45,1.21-.8s.62-.76.81-1.24c.19-.48.29-1.01.29-1.59s-.1-1.11-.29-1.59c-.19-.48-.46-.89-.8-1.24-.34-.35-.75-.62-1.21-.8-.47-.19-.97-.28-1.52-.28s-1.05.09-1.51.28c-.46.19-.86.45-1.21.8s-.62.76-.81,1.24c-.19.48-.29,1.01-.29,1.59s.1,1.1.29,1.58c.19.48.46.9.8,1.25.34.35.75.62,1.21.8.47.19.97.28,1.52.28Z"/>
    <path class="st0" d="M366.01,161.26v-12.22h9.23v2.27h-6.4v9.95h-2.83ZM368.63,156.81v-2.27h5.86v2.27h-5.86Z"/>
    <path class="st0" d="M382.1,161.26v-12.22h2.83v12.22h-2.83Z"/>
    <path class="st0" d="M387.65,161.26v-12.22h2.34l7.21,8.8h-1.13v-8.8h2.79v12.22h-2.32l-7.22-8.8h1.13v8.8h-2.79Z"/>
    <path class="st0" d="M401.57,161.26v-12.22h2.34l7.21,8.8h-1.13v-8.8h2.79v12.22h-2.32l-7.22-8.8h1.13v8.8h-2.79Z"/>
    <path class="st0" d="M421.47,161.47c-.97,0-1.86-.16-2.68-.47-.82-.31-1.53-.76-2.13-1.33-.6-.57-1.06-1.24-1.4-2.01-.33-.77-.5-1.61-.5-2.51s.17-1.75.5-2.51c.33-.77.8-1.44,1.4-2.01.6-.57,1.31-1.01,2.13-1.33.81-.31,1.7-.47,2.65-.47s1.85.16,2.66.47c.81.31,1.51.76,2.11,1.33.6.57,1.07,1.24,1.4,2,.34.76.51,1.6.51,2.52s-.17,1.75-.51,2.52c-.34.77-.81,1.44-1.4,2.01-.6.56-1.3,1-2.11,1.32-.81.31-1.69.47-2.64.47ZM421.45,159.06c.55,0,1.05-.09,1.51-.28.46-.19.86-.45,1.21-.8s.62-.76.81-1.24c.19-.48.29-1.01.29-1.59s-.1-1.11-.29-1.59c-.19-.48-.46-.89-.8-1.24-.34-.35-.75-.62-1.21-.8-.47-.19-.97-.28-1.52-.28s-1.05.09-1.51.28c-.46.19-.86.45-1.21.8s-.62.76-.81,1.24c-.19.48-.29,1.01-.29,1.59s.1,1.1.29,1.58c.19.48.46.9.8,1.25.34.35.75.62,1.21.8.47.19.97.28,1.52.28Z"/>
    <path class="st0" d="M433.18,161.26l-5.27-12.22h3.05l4.61,10.82h-1.8l4.68-10.82h2.81l-5.29,12.22h-2.79Z"/>
    <path class="st0" d="M439.69,161.26l5.44-12.22h2.79l5.46,12.22h-2.97l-4.47-10.78h1.12l-4.48,10.78h-2.9ZM442.41,158.64l.75-2.15h6.28l.77,2.15h-7.8Z"/>
    <path class="st0" d="M455.71,161.26v-9.91h-3.91v-2.3h10.64v2.3h-3.91v9.91h-2.83Z"/>
    <path class="st0" d="M463.68,161.26v-12.22h2.83v12.22h-2.83Z"/>
    <path class="st0" d="M475.19,161.47c-.97,0-1.86-.16-2.68-.47-.82-.31-1.53-.76-2.13-1.33-.6-.57-1.06-1.24-1.4-2.01-.33-.77-.5-1.61-.5-2.51s.17-1.75.5-2.51c.33-.77.8-1.44,1.4-2.01.6-.57,1.31-1.01,2.13-1.33.81-.31,1.7-.47,2.65-.47s1.85.16,2.66.47c.81.31,1.51.76,2.11,1.33.6.57,1.07,1.24,1.4,2,.34.76.51,1.6.51,2.52s-.17,1.75-.51,2.52c-.34.77-.81,1.44-1.4,2.01-.6.56-1.3,1-2.11,1.32-.81.31-1.69.47-2.64.47ZM475.17,159.06c.55,0,1.05-.09,1.51-.28.46-.19.86-.45,1.21-.8s.62-.76.81-1.24c.19-.48.29-1.01.29-1.59s-.1-1.11-.29-1.59c-.19-.48-.46-.89-.8-1.24-.34-.35-.75-.62-1.21-.8-.47-.19-.97-.28-1.52-.28s-1.05.09-1.51.28c-.46.19-.86.45-1.21.8s-.62.76-.81,1.24c-.19.48-.29,1.01-.29,1.59s.1,1.1.29,1.58c.19.48.46.9.8,1.25.34.35.75.62,1.21.8.47.19.97.28,1.52.28Z"/>
    <path class="st0" d="M483.82,161.26v-12.22h2.34l7.21,8.8h-1.13v-8.8h2.79v12.22h-2.32l-7.22-8.8h1.13v8.8h-2.79Z"/>
    <path class="st0" d="M501.25,161.26l5.44-12.22h2.79l5.46,12.22h-2.97l-4.47-10.78h1.12l-4.48,10.78h-2.9ZM503.98,158.64l.75-2.15h6.28l.77,2.15h-7.8Z"/>
    <path class="st0" d="M516.08,161.26v-12.22h2.34l7.21,8.8h-1.13v-8.8h2.79v12.22h-2.32l-7.22-8.8h1.13v8.8h-2.79Z"/>
    <path class="st0" d="M530.01,161.26v-12.22h5.55c1.33,0,2.5.25,3.51.76s1.8,1.21,2.37,2.12c.57.91.86,1.98.86,3.23s-.29,2.31-.86,3.22c-.57.91-1.36,1.62-2.37,2.13s-2.18.76-3.51.76h-5.55ZM532.83,158.94h2.58c.81,0,1.52-.15,2.12-.46.6-.31,1.06-.75,1.4-1.32.33-.57.5-1.24.5-2.01s-.17-1.45-.5-2.02c-.33-.56-.8-1-1.4-1.31-.6-.31-1.31-.46-2.12-.46h-2.58v7.57Z"/>
    <path class="st0" d="M259.28,182.2v-12.22h5.55c1.33,0,2.5.25,3.51.76s1.8,1.21,2.37,2.12c.57.91.86,1.98.86,3.23s-.29,2.31-.86,3.22c-.57.91-1.36,1.62-2.37,2.13s-2.18.76-3.51.76h-5.55ZM262.11,179.88h2.58c.81,0,1.52-.15,2.12-.46.6-.31,1.06-.75,1.4-1.32.33-.57.5-1.24.5-2.01s-.17-1.45-.5-2.02c-.33-.56-.8-1-1.4-1.31-.6-.31-1.31-.46-2.12-.46h-2.58v7.57Z"/>
    <path class="st0" d="M273.56,182.2v-12.22h2.83v12.22h-2.83Z"/>
    <path class="st0" d="M285.03,182.41c-.97,0-1.85-.15-2.66-.46-.81-.31-1.51-.75-2.11-1.32-.6-.57-1.06-1.24-1.4-2.01-.33-.77-.5-1.61-.5-2.53s.17-1.76.5-2.53c.33-.77.8-1.44,1.4-2.01.6-.57,1.31-1.01,2.13-1.32.81-.31,1.71-.46,2.69-.46,1.08,0,2.06.18,2.92.54.87.36,1.6.88,2.19,1.57l-1.81,1.68c-.44-.47-.92-.81-1.45-1.04-.52-.23-1.09-.34-1.71-.34s-1.13.09-1.62.28c-.49.19-.91.45-1.27.8-.36.35-.63.76-.82,1.24-.19.48-.29,1.01-.29,1.59s.1,1.09.29,1.57c.19.48.47.89.82,1.25.35.35.77.63,1.26.81.48.19,1.01.28,1.6.28s1.1-.09,1.63-.27c.53-.18,1.04-.49,1.54-.92l1.61,2.04c-.66.5-1.43.88-2.31,1.15-.88.27-1.75.4-2.63.4ZM289.97,180.85l-2.58-.37v-4.59h2.58v4.96Z"/>
    <path class="st0" d="M292.43,182.2v-12.22h2.83v12.22h-2.83Z"/>
    <path class="st0" d="M300.41,182.2v-9.91h-3.91v-2.3h10.64v2.3h-3.91v9.91h-2.83Z"/>
    <path class="st0" d="M305.57,182.2l5.44-12.22h2.79l5.46,12.22h-2.97l-4.47-10.78h1.12l-4.48,10.78h-2.9ZM308.3,179.58l.75-2.15h6.28l.77,2.15h-7.8Z"/>
    <path class="st0" d="M320.4,182.2v-12.22h2.83v9.91h6.13v2.3h-8.95Z"/>
    <path class="st0" d="M338.41,182.2v-9.91h-3.91v-2.3h10.64v2.3h-3.91v9.91h-2.83Z"/>
    <path class="st0" d="M346.39,182.2v-12.22h5.22c1.7,0,3.02.39,3.96,1.18.94.79,1.41,1.87,1.41,3.25,0,.91-.22,1.69-.65,2.35-.43.66-1.04,1.16-1.83,1.51-.79.35-1.73.52-2.83.52h-3.72l1.26-1.24v4.64h-2.83ZM349.21,177.87l-1.26-1.33h3.56c.87,0,1.52-.19,1.95-.57.43-.38.65-.9.65-1.56s-.22-1.2-.65-1.57c-.43-.37-1.08-.56-1.95-.56h-3.56l1.26-1.34v6.93ZM354.15,182.2l-3.05-4.43h3.02l3.09,4.43h-3.05Z"/>
    <path class="st0" d="M357.92,182.2l5.44-12.22h2.79l5.46,12.22h-2.97l-4.47-10.78h1.12l-4.48,10.78h-2.9ZM360.64,179.58l.75-2.15h6.28l.77,2.15h-7.8Z"/>
    <path class="st0" d="M372.75,182.2v-12.22h2.34l7.21,8.8h-1.13v-8.8h2.79v12.22h-2.32l-7.22-8.8h1.13v8.8h-2.79Z"/>
    <path class="st0" d="M390.82,182.41c-.98,0-1.91-.13-2.81-.39-.9-.26-1.62-.6-2.16-1.02l.96-2.13c.52.37,1.14.68,1.86.92.72.24,1.44.36,2.17.36.56,0,1.01-.06,1.35-.17.34-.11.6-.26.76-.46.16-.2.24-.42.24-.68,0-.33-.13-.58-.38-.78-.26-.19-.59-.35-1.01-.47-.42-.12-.88-.24-1.39-.35-.51-.11-1.01-.25-1.52-.41-.51-.16-.97-.37-1.39-.63-.42-.26-.76-.59-1.02-1.01-.26-.42-.39-.95-.39-1.61,0-.7.19-1.34.57-1.91.38-.58.95-1.04,1.71-1.38.76-.34,1.72-.51,2.87-.51.77,0,1.52.09,2.27.27.74.18,1.4.45,1.97.81l-.87,2.15c-.57-.33-1.14-.57-1.71-.72-.57-.16-1.13-.24-1.68-.24s-.99.06-1.34.19c-.35.13-.6.29-.75.5-.15.2-.23.44-.23.71,0,.31.13.57.38.76.26.19.59.35,1.01.46.42.12.88.23,1.39.35.51.12,1.01.25,1.52.4.51.15.97.36,1.39.61.42.26.76.59,1.02,1.01.26.42.39.95.39,1.59,0,.69-.19,1.31-.58,1.88-.38.57-.96,1.03-1.72,1.38-.76.35-1.72.52-2.89.52Z"/>
    <path class="st0" d="M397.87,182.2v-12.22h9.23v2.27h-6.4v9.95h-2.83ZM400.49,177.75v-2.27h5.86v2.27h-5.86Z"/>
    <path class="st0" d="M414.58,182.41c-.97,0-1.86-.16-2.68-.47-.82-.31-1.53-.76-2.13-1.33-.6-.57-1.06-1.24-1.4-2.01-.33-.77-.5-1.61-.5-2.51s.17-1.75.5-2.51c.33-.77.8-1.44,1.4-2.01.6-.57,1.31-1.01,2.13-1.33.81-.31,1.7-.47,2.65-.47s1.85.16,2.66.47c.81.31,1.51.76,2.11,1.33.6.57,1.07,1.24,1.4,2,.34.76.51,1.6.51,2.52s-.17,1.75-.51,2.52c-.34.77-.81,1.44-1.4,2.01-.6.56-1.3,1-2.11,1.32-.81.31-1.69.47-2.64.47ZM414.56,180c.55,0,1.05-.09,1.51-.28.46-.19.86-.45,1.21-.8s.62-.76.81-1.24c.19-.48.29-1.01.29-1.59s-.1-1.11-.29-1.59c-.19-.48-.46-.89-.8-1.24-.34-.35-.75-.62-1.21-.8-.47-.19-.97-.28-1.52-.28s-1.05.09-1.51.28c-.46.19-.86.45-1.21.8s-.62.76-.81,1.24c-.19.48-.29,1.01-.29,1.59s.1,1.1.29,1.58c.19.48.46.9.8,1.25.34.35.75.62,1.21.8.47.19.97.28,1.52.28Z"/>
    <path class="st0" d="M423.21,182.2v-12.22h5.22c1.7,0,3.02.39,3.96,1.18.94.79,1.41,1.87,1.41,3.25,0,.91-.22,1.69-.65,2.35-.43.66-1.04,1.16-1.83,1.51-.79.35-1.73.52-2.83.52h-3.72l1.26-1.24v4.64h-2.83ZM426.04,177.87l-1.26-1.33h3.56c.87,0,1.52-.19,1.95-.57.43-.38.65-.9.65-1.56s-.22-1.2-.65-1.57c-.43-.37-1.08-.56-1.95-.56h-3.56l1.26-1.34v6.93ZM430.98,182.2l-3.05-4.43h3.02l3.09,4.43h-3.05Z"/>
    <path class="st0" d="M435.89,182.2v-12.22h2.34l5.2,8.62h-1.24l5.11-8.62h2.32l.03,12.22h-2.65l-.02-8.15h.49l-4.08,6.86h-1.27l-4.17-6.86h.59v8.15h-2.65Z"/>
    <path class="st0" d="M450.8,182.2l5.44-12.22h2.79l5.46,12.22h-2.97l-4.47-10.78h1.12l-4.48,10.78h-2.9ZM453.52,179.58l.75-2.15h6.28l.77,2.15h-7.8Z"/>
    <path class="st0" d="M466.82,182.2v-9.91h-3.91v-2.3h10.64v2.3h-3.91v9.91h-2.83Z"/>
    <path class="st0" d="M474.79,182.2v-12.22h2.83v12.22h-2.83Z"/>
    <path class="st0" d="M486.3,182.41c-.97,0-1.86-.16-2.68-.47-.82-.31-1.53-.76-2.13-1.33-.6-.57-1.06-1.24-1.4-2.01-.33-.77-.5-1.61-.5-2.51s.17-1.75.5-2.51c.33-.77.8-1.44,1.4-2.01.6-.57,1.31-1.01,2.13-1.33.81-.31,1.7-.47,2.65-.47s1.85.16,2.66.47c.81.31,1.51.76,2.11,1.33.6.57,1.07,1.24,1.4,2,.34.76.51,1.6.51,2.52s-.17,1.75-.51,2.52c-.34.77-.81,1.44-1.4,2.01-.6.56-1.3,1-2.11,1.32-.81.31-1.69.47-2.64.47ZM486.28,180c.55,0,1.05-.09,1.51-.28.46-.19.86-.45,1.21-.8s.62-.76.81-1.24c.19-.48.29-1.01.29-1.59s-.1-1.11-.29-1.59c-.19-.48-.46-.89-.8-1.24-.34-.35-.75-.62-1.21-.8-.47-.19-.97-.28-1.52-.28s-1.05.09-1.51.28c-.46.19-.86.45-1.21.8s-.62.76-.81,1.24c-.19.48-.29,1.01-.29,1.59s.1,1.1.29,1.58c.19.48.46.9.8,1.25.34.35.75.62,1.21.8.47.19.97.28,1.52.28Z"/>
    <path class="st0" d="M494.93,182.2v-12.22h2.34l7.21,8.8h-1.13v-8.8h2.79v12.22h-2.32l-7.22-8.8h1.13v8.8h-2.79Z"/>
  </g>
  <g>
    <polygon class="st0" points="287.49 57.2 262.64 25.92 259.28 25.92 259.28 64.49 263.36 64.49 263.36 33.22 288.15 64.49 291.51 64.49 291.51 25.92 287.49 25.92 287.49 57.2"/>
    <path class="st0" d="M315.01,25.92l-17.63,38.57h4.24l4.61-10.3h21.52l4.61,10.3h4.3l-17.63-38.57h-4.02ZM307.71,50.88l9.28-20.74,9.28,20.74h-18.57Z"/>
    <polygon class="st0" points="334.5 29.45 348.05 29.45 348.05 64.49 352.13 64.49 352.13 29.45 365.69 29.45 365.69 25.92 334.5 25.92 334.5 29.45"/>
    <rect class="st0" x="371.65" y="25.92" width="4.08" height="38.57"/>
    <path class="st0" d="M419.02,31.16c-1.8-1.76-3.93-3.12-6.39-4.08-2.46-.99-5.14-1.49-8.04-1.49s-5.64.5-8.1,1.49c-2.46.96-4.61,2.33-6.45,4.13-1.8,1.76-3.21,3.84-4.24,6.23-.99,2.35-1.49,4.94-1.49,7.77s.5,5.44,1.49,7.82c1.03,2.35,2.44,4.43,4.24,6.23,1.84,1.76,3.99,3.14,6.45,4.13,2.5.96,5.2,1.43,8.1,1.43s5.58-.48,8.04-1.43c2.46-.99,4.59-2.37,6.39-4.13,1.84-1.76,3.25-3.84,4.24-6.23,1.03-2.39,1.54-5,1.54-7.82s-.51-5.44-1.54-7.82c-.99-2.39-2.41-4.46-4.24-6.23ZM419.52,51.6c-.81,1.91-1.95,3.6-3.42,5.07s-3.14,2.55-5.12,3.36c-1.95.77-4.08,1.16-6.39,1.16s-4.46-.39-6.45-1.16c-1.98-.81-3.71-1.93-5.18-3.36-1.43-1.47-2.57-3.18-3.42-5.12-.81-1.95-1.21-4.06-1.21-6.34s.4-4.43,1.21-6.34c.84-1.95,1.98-3.64,3.42-5.07,1.47-1.47,3.2-2.59,5.18-3.36,1.98-.81,4.13-1.21,6.45-1.21s4.44.4,6.39,1.21c1.98.77,3.69,1.89,5.12,3.36,1.47,1.43,2.61,3.12,3.42,5.07.81,1.91,1.21,4.02,1.21,6.34s-.4,4.44-1.21,6.39Z"/>
    <polygon class="st0" points="461.61 57.2 436.76 25.92 433.4 25.92 433.4 64.49 437.47 64.49 437.47 33.22 462.27 64.49 465.63 64.49 465.63 25.92 461.61 25.92 461.61 57.2"/>
    <path class="st0" d="M489.13,25.92l-17.63,38.57h4.24l4.61-10.3h21.52l4.61,10.3h4.3l-17.63-38.57h-4.02ZM481.83,50.88l9.28-20.74,9.28,20.74h-18.57Z"/>
    <polygon class="st0" points="520.69 60.97 520.69 25.92 516.61 25.92 516.61 64.49 542.29 64.49 542.29 60.97 520.69 60.97"/>
  </g>
  <g>
    <rect class="st0" x="259.23" y="86.98" width="7.16" height="38.57"/>
    <polygon class="st0" points="303.44 113.09 282.17 86.98 276.27 86.98 276.27 125.55 283.38 125.55 283.38 99.44 304.65 125.55 310.54 125.55 310.54 86.98 303.44 86.98 303.44 113.09"/>
    <polygon class="st0" points="347.49 113.09 326.22 86.98 320.33 86.98 320.33 125.55 327.44 125.55 327.44 99.44 348.71 125.55 354.6 125.55 354.6 86.98 347.49 86.98 347.49 113.09"/>
    <path class="st0" d="M397.28,92.1c-1.87-1.8-4.08-3.2-6.61-4.19-2.5-.99-5.25-1.49-8.27-1.49s-5.73.5-8.27,1.49c-2.53.99-4.74,2.39-6.61,4.19-1.87,1.76-3.32,3.86-4.35,6.28-1.03,2.39-1.54,5.01-1.54,7.88s.51,5.51,1.54,7.93c1.03,2.39,2.48,4.48,4.35,6.28,1.87,1.76,4.08,3.14,6.61,4.13,2.53.99,5.31,1.49,8.32,1.49s5.71-.5,8.21-1.49c2.53-.99,4.74-2.37,6.61-4.13s3.32-3.86,4.35-6.28,1.54-5.07,1.54-7.93-.51-5.49-1.54-7.88c-1.03-2.42-2.48-4.52-4.35-6.28ZM394.91,111.72c-.66,1.62-1.6,3.05-2.81,4.3-1.21,1.21-2.64,2.15-4.3,2.81-1.65.66-3.45.99-5.4.99s-3.75-.33-5.4-.99c-1.65-.66-3.09-1.6-4.3-2.81-1.21-1.25-2.17-2.7-2.87-4.35-.66-1.65-.99-3.45-.99-5.4s.33-3.78.99-5.4c.7-1.65,1.65-3.09,2.87-4.3,1.25-1.25,2.68-2.2,4.3-2.87,1.65-.66,3.45-.99,5.4-.99s3.75.33,5.4.99c1.65.66,3.09,1.62,4.3,2.87,1.21,1.21,2.15,2.64,2.81,4.3.7,1.62,1.05,3.42,1.05,5.4s-.35,3.8-1.05,5.46Z"/>
    <polygon class="st0" points="437.14 86.98 424.17 116.71 411.35 86.98 403.58 86.98 420.44 125.55 427.5 125.55 444.3 86.98 437.14 86.98"/>
    <path class="st0" d="M458.48,86.98l-17.36,38.57h7.38l3.82-8.93h19.29l3.83,8.93h7.49l-17.41-38.57h-7.05ZM454.73,111l7.22-16.88,7.25,16.88h-14.47Z"/>
    <polygon class="st0" points="480.41 93.04 493.19 93.04 493.19 125.55 500.35 125.55 500.35 93.04 513.14 93.04 513.14 86.98 480.41 86.98 480.41 93.04"/>
    <rect class="st0" x="517.96" y="86.98" width="7.16" height="38.57"/>
    <path class="st0" d="M567.9,92.1c-1.87-1.8-4.08-3.2-6.61-4.19-2.5-.99-5.25-1.49-8.27-1.49s-5.73.5-8.27,1.49c-2.53.99-4.74,2.39-6.61,4.19-1.87,1.76-3.32,3.86-4.35,6.28-1.03,2.39-1.54,5.01-1.54,7.88s.51,5.51,1.54,7.93c1.03,2.39,2.48,4.48,4.35,6.28,1.87,1.76,4.08,3.14,6.61,4.13s5.31,1.49,8.32,1.49,5.71-.5,8.21-1.49c2.53-.99,4.74-2.37,6.61-4.13s3.32-3.86,4.35-6.28c1.03-2.42,1.54-5.07,1.54-7.93s-.51-5.49-1.54-7.88c-1.03-2.42-2.48-4.52-4.35-6.28ZM565.53,111.72c-.66,1.62-1.6,3.05-2.81,4.3-1.21,1.21-2.64,2.15-4.3,2.81-1.65.66-3.45.99-5.4.99s-3.75-.33-5.4-.99c-1.65-.66-3.09-1.6-4.3-2.81-1.21-1.25-2.17-2.7-2.87-4.35-.66-1.65-.99-3.45-.99-5.4s.33-3.78.99-5.4c.7-1.65,1.65-3.09,2.87-4.3,1.25-1.25,2.68-2.2,4.3-2.87,1.65-.66,3.45-.99,5.4-.99s3.75.33,5.4.99c1.65.66,3.09,1.62,4.3,2.87,1.21,1.21,2.15,2.64,2.81,4.3.7,1.62,1.05,3.42,1.05,5.4s-.35,3.8-1.05,5.46Z"/>
    <polygon class="st0" points="608 113.09 586.73 86.98 580.84 86.98 580.84 125.55 587.95 125.55 587.95 99.44 609.22 125.55 615.11 125.55 615.11 86.98 608 86.98 608 113.09"/>
    <polygon class="st0" points="639.57 125.55 646.74 125.55 646.74 110.78 665.36 110.78 665.36 104.72 646.74 104.72 646.74 92.99 667.73 92.99 667.73 86.98 639.57 86.98 639.57 125.55"/>
    <path class="st0" d="M700.5,108.47c0,3.97-.84,6.85-2.53,8.65-1.69,1.8-4.1,2.7-7.22,2.7s-5.55-.9-7.27-2.7c-1.69-1.8-2.53-4.68-2.53-8.65v-21.49h-7.16v21.76c0,5.62,1.49,9.92,4.46,12.89,3.01,2.98,7.16,4.46,12.45,4.46s9.37-1.49,12.34-4.46c3.01-2.98,4.52-7.27,4.52-12.89v-21.76h-7.05v21.49Z"/>
    <polygon class="st0" points="744.2 113.09 722.93 86.98 717.03 86.98 717.03 125.55 724.14 125.55 724.14 99.44 745.41 125.55 751.31 125.55 751.31 86.98 744.2 86.98 744.2 113.09"/>
    <path class="st0" d="M796.36,96.13c-1.76-2.87-4.22-5.11-7.38-6.72-3.16-1.62-6.83-2.42-11.02-2.42h-16.86v38.57h16.86c4.19,0,7.86-.81,11.02-2.42,3.16-1.62,5.62-3.86,7.38-6.72,1.76-2.9,2.64-6.28,2.64-10.14s-.88-7.27-2.64-10.14ZM790.02,113.21c-1.14,1.98-2.77,3.53-4.9,4.63-2.09,1.1-4.59,1.65-7.49,1.65h-9.37v-26.45h9.37c2.9,0,5.4.55,7.49,1.65,2.13,1.1,3.77,2.64,4.9,4.63,1.18,1.95,1.76,4.26,1.76,6.94s-.59,4.96-1.76,6.94Z"/>
  </g>
</svg>