<svg width="304" height="94" viewBox="0 0 304 94" fill="none" xmlns="http://www.w3.org/2000/svg">
<g clip-path="url(#clip0_4551_6506)">
<path fill-rule="evenodd" clip-rule="evenodd" d="M33.717 11.6175C34.1743 11.6175 34.7027 11.6551 35.1141 11.7019C34.8073 11.408 34.2506 11.0546 33.4198 10.9572C33.4204 10.9645 33.4198 10.97 33.4211 10.9775C33.4541 11.2097 33.5696 11.4761 33.7174 11.6175H33.717ZM29.8993 16.6807C30.2029 16.6807 30.3934 16.6564 30.5792 16.6331C30.8027 16.6038 31.0211 16.5765 31.4042 16.5867C31.8356 16.5968 32.2007 16.3966 32.5314 16.215C32.8386 16.0452 33.1211 15.8903 33.4434 15.8903C33.777 15.8888 34.0284 15.9309 34.2555 16.0193L34.2549 16.0208C34.4826 16.1095 34.6776 16.243 34.899 16.4256C35.3597 16.8074 35.6314 17.1648 35.7883 17.6103C35.94 18.0427 35.9769 18.5492 35.9721 19.2386C35.9597 21.0124 35.7583 21.9646 35.4999 22.4786C35.2041 23.0682 34.8334 23.1405 34.5506 23.1595C34.5448 23.1595 32.4176 23.3176 31.4042 23.1723C31.2276 23.1475 31.0528 23.1114 30.8664 23.0719L30.42 22.9864C30.12 22.9339 29.9286 22.8903 29.7433 22.8194C29.5603 22.7482 29.3919 22.6512 29.1309 22.4882H29.1302C29.0574 22.4449 28.9554 22.3692 28.8448 22.2923C28.659 22.162 28.4441 22.0182 28.3348 22.0182C28.3099 22.0182 28.3078 22.0246 28.3078 22.0319C28.3078 22.0349 28.3069 22.04 28.3069 22.0426C28.3326 22.0789 28.4569 22.1554 28.4511 22.2633C28.4454 22.4434 28.4372 22.6655 28.4098 22.9048C28.2945 23.9004 27.924 24.5573 27.6752 24.913L28.2894 24.8498C29.2986 24.7425 30.2462 24.6421 30.7974 24.6408C30.9276 24.6393 31.1177 24.6553 31.3442 24.6846C31.4972 24.7034 31.6588 24.728 31.8216 24.7555L32.3574 24.856C33.0962 25.0042 33.8938 25.2181 34.3845 25.4469C34.6123 25.4315 35.3546 25.3956 36.1468 25.3582L37.5525 25.2898C37.7439 25.1809 37.9361 25.0459 38.1236 24.8792C38.3229 24.7019 38.5168 24.496 38.6985 24.2682C39.642 23.0868 40.2898 21.3216 39.9551 19.8686L40.3665 19.7757C40.7319 21.3577 40.0395 23.2635 39.0294 24.5295C38.8307 24.7773 38.6211 25.0025 38.4049 25.1918C38.286 25.2971 38.1606 25.3683 38.0381 25.4546L38.3029 25.5443C39.1654 25.8259 40.5844 26.2905 41.2965 27.8537C41.5221 27.983 42.2835 28.4818 42.4371 29.1682C42.5297 29.2101 42.6204 29.2336 42.7129 29.2793C43.2276 29.5325 43.7336 29.8399 44.2183 30.1751C44.5851 27.7764 42.1412 26.1166 42.1333 26.1109L41.5232 25.6973L42.2599 25.7278C43.2444 25.7667 43.8658 25.6738 44.3158 25.4999C44.7546 25.3285 45.0444 25.0687 45.3529 24.7735H45.3536C46.0071 24.1561 46.2403 23.3784 46.3196 22.9952C43.215 23.0503 43.2411 20.8686 43.2411 20.8631V20.6294L43.4741 20.6542C45.7434 20.8864 46.5971 19.3082 46.8448 18.6802C46.3729 18.6485 45.9741 18.5682 45.6369 18.4409C45.219 18.2828 44.8929 18.0521 44.6374 17.7444C44.2003 17.2176 44.16 16.1986 44.1206 15.1985C44.109 14.8849 44.097 14.573 44.0706 14.2649L44.0691 14.2547L44.2791 14.2365L44.2755 14.0272L44.3113 14.0257H44.3121C44.445 14.0235 44.5821 14.0278 44.7197 14.0336C44.7699 13.9054 44.8354 13.7936 44.919 13.6759C45.144 13.3608 45.4616 12.9154 45.4577 11.336C45.4556 10.2321 45.2402 9.53288 45.1271 9.23507C44.3111 9.54271 43.7484 9.84394 43.3821 10.221C42.9981 10.619 42.81 11.1168 42.7191 11.8162C42.6249 12.5405 42.7119 13.5815 42.7119 13.5843L42.7346 13.8137L42.5031 13.8152C42.0431 13.8152 41.6953 13.796 41.3754 13.6785C41.0479 13.5582 40.7638 13.3418 40.4466 12.9528L40.7732 12.6872C41.0385 13.0126 41.2661 13.1893 41.5232 13.2839C41.7358 13.3608 41.9775 13.3871 42.2796 13.3929C42.2591 13.0314 42.2321 12.314 42.3041 11.7628C42.4063 10.9724 42.6259 10.3998 43.0798 9.92982C43.4119 9.58736 43.8656 9.306 44.4864 9.03682C44.1056 8.98341 43.5971 8.93321 42.957 8.93363C42.2634 8.93513 41.7362 9.06438 41.3248 9.28058C40.9176 9.49422 40.6191 9.79437 40.3791 10.1415C40.1638 10.4534 39.9934 10.9457 40.0041 11.4319C40.0067 11.5243 40.0158 11.6164 40.0311 11.7075C40.0469 11.7961 40.0705 11.8831 40.1019 11.9675L40.0594 11.9835L39.708 12.1185L39.7065 12.1157L39.705 12.1128C39.6651 12.0048 39.6351 11.8935 39.6154 11.7801C39.5957 11.6712 39.5854 11.5567 39.5833 11.4404V11.4392C39.5726 10.863 39.7736 10.2763 40.0324 9.90312C40.2446 9.59676 40.5182 9.33783 40.8381 9.11351C40.5066 9.08724 40.1824 9.06438 39.8357 9.04836C39.2889 9.02208 38.6754 9.01033 37.8343 9.01204C36.7444 9.01332 35.1519 9.09621 33.9439 9.17013L33.2415 9.21286L32.6908 9.25046L32.6334 9.25473C32.5781 9.50255 32.4651 9.84266 32.4647 9.84437L32.3196 9.79181L32.3055 9.83091L32.2637 9.82941L32.2579 9.98323C32.0743 9.97468 31.8881 9.97639 31.7023 9.98472C31.1083 10.0136 30.5289 10.1313 30.0664 10.3389C29.6293 10.5348 29.3008 10.8111 29.1754 11.1678C29.1375 11.2791 29.1183 11.3958 29.1189 11.5133C29.1201 11.828 29.2939 12.0495 29.3925 12.1512C29.6201 12.1001 29.8447 12.0364 30.0651 11.9604C30.3716 11.8536 30.5681 11.7891 31.0273 11.8211L30.9973 12.242C30.6244 12.2142 30.4594 12.2708 30.2016 12.3595C30.0096 12.4247 29.7701 12.5076 29.3754 12.589C28.8354 12.7022 28.5139 12.8667 28.3329 13.1658C28.1409 13.4794 28.0794 13.9569 28.068 14.6723C28.0541 15.4837 28.1966 15.9905 28.4916 16.2853C28.7856 16.5769 29.2566 16.6788 29.901 16.6769L29.8993 16.6807ZM32.9121 10.6425C32.9121 10.641 33.0885 10.1212 33.3793 9.87919L33.6504 10.2018C33.5586 10.2787 33.4806 10.4047 33.4226 10.518C35.1201 10.691 35.8011 11.8795 35.8033 11.8822L36.0416 12.2903L35.5791 12.1942C35.2367 12.1232 34.3676 12.0346 33.6799 12.0361C33.5535 12.0361 33.4286 12.0403 33.3107 12.0489C33.2171 12.0541 33.1239 12.0658 33.0319 12.0839L33.0261 12.0854L32.9366 11.6731L32.9424 11.6716H32.9445C33.0259 11.6556 33.1245 11.646 33.2259 11.637C33.1172 11.4462 33.033 11.2358 33.0024 11.0375C32.9964 10.9969 32.9959 10.9563 32.9938 10.9153L32.8224 10.9111L32.9119 10.6425H32.9121ZM8.32714 13.3089C8.74414 13.2378 9.63536 12.9996 10.1049 12.2187C9.942 11.8502 9.14829 10.4378 6.783 11.1533C7.356 11.4904 8.26586 12.1959 8.32714 13.3089ZM15.0977 14.6065C15.3913 14.702 15.7599 14.7706 16.2549 14.8067C16.3348 14.5456 16.467 13.9314 16.2756 13.1564C16.2028 12.8603 16.077 12.5163 15.7871 12.2159C15.5475 11.966 15.1924 11.7425 14.6571 11.5904C14.847 12.1331 15.0536 13.1641 14.4857 14.3036C14.6593 14.4254 14.8534 14.5271 15.0994 14.607L15.0977 14.6065ZM21.6321 18.1315C21.8769 18.5509 22.2313 18.8707 22.7096 19.1014C23.5264 19.495 24.4157 19.7156 25.3631 19.8359C26.3203 19.9592 27.3394 19.9825 28.4016 19.9797C28.6798 19.9797 28.9723 19.9622 29.2678 19.9462C30.3546 19.8853 31.4899 19.8201 32.7414 20.4973C34.2392 21.3096 34.6164 22.2598 34.7128 22.7008C34.8474 22.6553 34.9914 22.5534 35.1225 22.2932C35.2982 21.9441 35.4452 21.3532 35.5121 20.3598C35.1242 20.3561 34.3663 20.2944 33.8539 19.9098V19.9083L33.6296 19.7385L33.6289 19.7398C33.0508 19.3029 32.6282 19.0186 31.5971 19.0213C30.9392 19.0228 30.7624 19.1158 30.5867 19.2085C30.3677 19.3245 30.1496 19.4409 29.4004 19.4422C28.9577 19.4422 28.4925 19.4394 28.0616 19.4134C27.618 19.3871 27.2019 19.3379 26.8637 19.2493C26.0559 19.0356 25.386 18.6861 24.846 18.2595C24.7374 18.174 24.6371 18.0882 24.5445 18.0027C24.4504 17.9159 24.3598 17.8254 24.273 17.7314L24.2709 17.7299C23.8359 17.2595 23.6593 16.5132 23.7291 15.7659C23.7431 15.6222 23.7656 15.4784 23.7969 15.3365C23.8287 15.1944 23.8693 15.0543 23.9184 14.9172V14.9155L23.922 14.9054V14.9069C24.0763 14.4845 24.3426 13.9861 24.5205 13.6717C24.4911 13.6732 24.4622 13.6732 24.4326 13.6759C23.7469 13.7251 22.9575 13.9823 22.3273 14.4237C21.7123 14.8509 21.2499 15.4598 21.1948 16.2133C21.1876 16.3181 21.1878 16.4232 21.1954 16.528C21.2419 17.174 21.3827 17.7051 21.6321 18.132V18.1315ZM3.29572 19.1542C3.15214 19.6776 3.23529 20.3976 3.56207 21.0346C3.70779 21.3188 3.90129 21.5845 4.14279 21.8052C4.38193 22.0259 4.66779 22.2013 5.00314 22.3088C5.69314 22.5295 6.59593 22.4613 7.72071 21.8879L7.91207 22.2611C7.01421 22.7192 6.24064 22.8743 5.57743 22.8315C5.43707 23.1503 5.33272 23.481 5.29457 23.8301C5.25536 24.177 5.28493 24.5479 5.37814 24.9354C5.73922 25.0256 6.54386 25.4341 6.40029 27.1991C6.426 27.2158 6.44422 27.2312 6.47529 27.2483C6.55455 27.2915 6.6357 27.3312 6.7185 27.3673C6.8195 27.4102 6.92169 27.4503 7.02493 27.4875H7.02579C7.52229 27.6619 8.15421 27.8022 8.69079 27.8011C8.949 27.8011 9.19436 27.7704 9.42321 27.7153C10.1098 27.5516 10.6607 27.1684 11.0653 26.7169C11.4714 26.2655 11.7306 25.7458 11.8335 25.3119C11.8671 25.1709 11.8836 25.0416 11.8836 24.9299C11.8836 24.8109 11.874 24.6863 11.8579 24.5624C11.8498 24.5015 11.8395 24.4391 11.8279 24.3753C11.817 24.316 11.8044 24.257 11.7902 24.1984C11.7388 23.9894 11.6766 23.8209 11.6175 23.7425L11.9539 23.4904C12.0474 23.6137 12.1361 23.8386 12.2004 24.0997C12.2158 24.1621 12.2299 24.2304 12.2432 24.3005C12.256 24.3703 12.2669 24.4405 12.2758 24.5109C12.294 24.65 12.3035 24.7901 12.3043 24.9303C12.3049 25.0769 12.2846 25.2379 12.2447 25.4078C12.1633 25.7524 11.9661 26.1371 11.7176 26.5144C12.0094 26.7082 12.5582 26.9579 13.2266 27.2557C14.9008 28.0047 17.1664 29.0296 17.733 30.3272C17.7924 30.2979 17.856 30.2631 17.913 30.2343C18.0834 30.1531 18.2426 30.0832 18.3838 30.0281C18.423 30.0127 18.4519 30.0084 18.4909 29.9956C18.0152 29.2829 17.9049 28.3596 17.8892 27.7877C16.875 27.5365 15.5743 26.799 14.5549 25.9959C14.3543 25.8381 14.1595 25.673 13.971 25.5009C13.7899 25.3343 13.6254 25.1687 13.4835 25.0104L13.482 25.0089L13.794 24.7258L13.797 24.7288L13.7991 24.7303C13.9441 24.8916 14.0969 25.0457 14.2571 25.192C14.4328 25.3516 14.6205 25.5129 14.8153 25.6663C15.7639 26.4146 16.9528 27.0919 17.8918 27.3497C17.8939 27.2972 17.8969 27.2596 17.8969 27.2596L17.913 27.0498L18.1209 27.0643C19.1829 27.1369 20.2046 27.1348 21.1809 27.0835C20.8969 26.7951 20.6822 26.4847 20.5866 26.1196C20.4581 25.6347 20.4838 25.0835 20.5991 24.446L20.6471 24.186L20.8903 24.2928C20.8939 24.2934 21.7931 24.6795 23.1287 24.9198C22.7173 24.7643 22.293 24.5934 21.8644 24.3943H21.8636C21.5884 24.2682 21.3096 24.1332 21.0306 23.9926C20.7537 23.8524 20.4796 23.7068 20.2084 23.5558L20.1403 23.5182H20.139C18.9036 22.827 17.6346 22.0013 16.6236 21.207C16.4337 21.0569 16.2467 20.9029 16.0629 20.7454C15.8871 20.5931 15.723 20.4448 15.5743 20.2997L15.3654 20.1213L15.6019 19.9688C16.2309 19.5597 16.6939 19.1604 16.9954 18.7084C17.2901 18.2627 17.4336 17.7562 17.4321 17.1262C17.4306 16.5169 17.2314 16.0494 16.9365 15.7098C16.8731 15.6367 16.8045 15.5683 16.7312 15.5051C16.6592 15.4427 16.5827 15.3861 16.5047 15.335C16.449 15.2983 16.3929 15.2677 16.3365 15.238C15.7549 15.2017 15.3159 15.127 14.9715 15.0146C14.7336 14.9368 14.5442 14.8366 14.3681 14.7262C14.3548 14.8787 14.3518 15.0456 14.3569 15.2453C14.3724 15.8854 14.3934 16.7724 13.9187 18.1529L13.5201 18.0179C13.9701 16.704 13.9504 15.8623 13.9365 15.2556C13.9284 14.9219 13.9226 14.6516 13.9888 14.4006C13.6609 13.8665 13.263 13.3598 12.7138 12.9987C12.1577 12.6334 11.4309 12.4176 10.4492 12.4546C9.79457 13.5146 8.5155 13.7242 8.20564 13.7571C7.86707 14 7.6455 14.2399 7.53064 14.5461C7.41922 14.8413 7.40036 15.2346 7.43079 15.7433C7.58079 15.7824 7.73079 15.8232 7.88721 15.8522C8.2335 15.9163 8.54164 16.1368 8.86821 16.4968C9.17336 16.8322 9.49929 17.2922 9.89893 17.8611L9.55607 18.1025C9.16436 17.5449 8.84636 17.0963 8.55814 16.7779C8.29243 16.4846 8.05736 16.3075 7.81329 16.2641H7.81264C7.55336 16.2163 7.33264 16.1565 7.11022 16.0971C6.71636 15.9903 6.31243 15.8834 5.72272 15.8471C5.35414 15.8253 5.07043 15.8728 4.82357 16.0195C4.581 16.1633 4.35986 16.4169 4.12072 16.7833C4.46872 18.3351 3.60429 18.9846 3.30172 19.1572L3.29572 19.1542ZM41.8629 8.64864L41.8189 7.60674L40.9339 7.34396C40.2289 7.15105 39.4639 7.17562 38.4962 7.20766L37.2062 7.23501C36.9201 7.23501 36.6238 7.23223 36.324 7.22924C35.0374 7.216 33.6654 7.20361 32.7525 7.47022H32.7519C32.7116 7.48197 32.6717 7.49501 32.6334 7.50782L32.6591 8.83878H32.6606L33.213 8.79968L33.9176 8.75696C35.1244 8.68282 36.7247 8.60164 37.8326 8.59887C38.6871 8.59737 39.3069 8.60912 39.8539 8.63518C40.4025 8.66082 40.8846 8.70034 41.4619 8.75268L41.4576 8.79755C41.5894 8.74627 41.7148 8.68859 41.8648 8.65142L41.8629 8.64864ZM34.3029 4.38724C34.3037 4.79956 34.4814 5.18538 34.6611 5.57719C34.8369 5.96046 34.9907 6.3606 35.0389 6.81116L36.3276 6.80966L37.2062 6.81393L37.2523 6.81329L37.2471 3.78115C36.8593 3.68459 35.7904 3.50086 35.481 3.44788C35.4118 3.50727 35.3456 3.56816 35.2611 3.61622C35.1418 3.68309 35.0211 3.74013 34.8986 3.79781C34.5986 3.94309 34.3024 4.10118 34.3029 4.38745V4.38724ZM36.9703 2.16072L36.966 2.23036L36.9645 2.24788C36.9521 2.44656 36.8946 2.68156 36.8415 2.89947C36.8133 3.01048 36.7883 3.12225 36.7665 3.23467L38.2333 3.2492C38.1707 2.88559 38.0456 2.25215 38.0447 2.25066L38.0301 2.18101H38.1009C38.2515 2.18101 39.0651 2.30706 39.3047 2.34338L39.3141 1.0936C39.0223 1.12715 38.1274 1.26067 38.1257 1.26067L38.0601 1.27071V1.20405C38.0601 1.01071 38.1816 0.234145 38.2187 0.00491364L36.7757 0C36.8293 0.304859 36.9647 1.18568 36.9647 1.18846L36.9765 1.26259L36.9009 1.25255L35.7002 1.07566L35.6929 2.34402L36.9696 2.15815L36.9703 2.16072ZM32.634 7.06688C33.186 6.90494 33.8818 6.8447 34.6176 6.82077C34.5705 6.44626 34.4351 6.09355 34.2786 5.75173C34.0794 5.31933 33.8833 4.89078 33.8818 4.38745C33.8803 3.85016 34.2954 3.62263 34.7162 3.41925C34.8219 3.36798 34.9258 3.3182 35.0175 3.26821C34.8851 3.20626 34.7593 3.13148 34.6189 3.08982C34.5476 3.06749 34.4754 3.04761 34.4027 3.03022C34.3322 3.01425 34.2613 2.99979 34.1901 2.98685C34.0044 2.95331 33.8329 2.93771 33.693 2.93771C33.1069 2.93921 32.5693 3.16844 32.2474 3.58375C32.1774 3.67519 32.1178 3.77389 32.0704 3.87985C32.0209 3.99176 31.9849 4.10917 31.9633 4.22957C31.9443 4.33786 31.9348 4.44758 31.9348 4.55751C31.9378 5.75216 32.3505 6.7398 32.5245 7.10405C32.5614 7.09166 32.5952 7.07841 32.6338 7.06688H32.634ZM39.8846 6.77505C39.9238 6.30078 40.0682 5.89273 40.2324 5.5005C40.4029 5.09566 40.5716 4.69359 40.5709 4.22936C40.5701 4.03068 40.2032 3.85186 39.8591 3.6863C39.6034 3.56388 39.3821 3.43463 39.2301 3.27718C39.1888 3.29214 39.15 3.30196 39.1086 3.31777C38.6844 3.47458 38.2151 3.63908 37.6686 3.77581L37.6729 6.80517L38.4829 6.78851C38.9976 6.77078 39.4558 6.75796 39.8844 6.77526L39.8846 6.77505ZM40.9918 4.22915C40.9933 4.78033 40.8086 5.22191 40.6221 5.66478C40.47 6.02626 40.3359 6.39713 40.3024 6.80923C40.5549 6.83615 40.8032 6.87332 41.0449 6.93912C41.2984 7.00813 41.7178 7.13503 41.9374 7.20361C42.1689 6.85752 42.8439 5.75643 42.8411 4.61967C42.8411 4.38745 42.8096 4.18428 42.7558 4.00739C42.6501 3.66045 42.4558 3.40921 42.2179 3.23082C41.9784 3.05073 41.6972 2.94455 41.4311 2.89541C41.3042 2.87105 41.1752 2.85882 41.046 2.85888C40.5531 2.85974 40.1203 2.97788 39.6844 3.12294C39.7864 3.18275 39.9122 3.24471 40.0423 3.30752C40.5017 3.5297 40.9901 3.76641 40.9916 4.22915H40.9918ZM5.57743 83.9602C5.18872 84.0691 4.89236 84.255 4.64207 84.4344H4.64143C3.81429 85.0311 4.02472 86.0312 4.17 86.471C4.518 86.2895 4.90607 86.1647 5.34064 86.1096C5.81807 86.0502 6.34886 86.0745 6.93986 86.1982C7.49593 84.979 7.14986 84.1544 7.0185 83.9134C6.41721 83.8151 5.95136 83.8536 5.57722 83.9597L5.57743 83.9602ZM44.9889 81.1457C45.8726 80.9528 46.5729 81.3562 46.8527 81.5553C47.0505 81.3955 47.4459 80.9789 47.4441 80.204C47.4429 79.7802 47.3443 79.5417 47.2862 79.4388C46.9509 79.3982 46.6326 79.3866 46.3348 79.4025C45.5959 79.4388 44.9814 79.6422 44.5365 79.9671C44.1058 80.2807 43.8341 80.7105 43.7644 81.2139C43.7571 81.2629 43.7525 81.3124 43.7505 81.3619C44.0278 81.3243 44.5074 81.2519 44.988 81.1457H44.9886H44.9889ZM44.1746 86.962C43.8306 87.5602 43.8613 88.3263 43.9144 88.7501C44.3833 88.4292 45.3501 87.8372 46.1023 87.8357C46.3273 87.8357 46.7597 87.9142 47.0076 87.9618C47.1255 87.5394 47.3244 86.4104 46.3665 85.6218C46.035 85.6671 44.7808 85.9064 44.1744 86.9618L44.1746 86.962ZM50.9233 90.5673C50.6518 90.3438 50.3511 90.2439 50.1197 90.2276C50.0554 90.2231 49.9908 90.2265 49.9273 90.2379C49.788 90.2684 49.4724 90.5515 49.1456 91.0044C49.0764 91.1014 49.0095 91.2016 48.9491 91.3005C48.8828 91.4091 48.8212 91.5204 48.7644 91.6342L48.7584 91.647C48.5597 92.0478 48.4905 92.4556 48.5276 92.8797C48.5576 93.2307 48.6594 93.5937 48.819 93.974C49.1447 93.6432 49.7734 93.0425 50.2982 92.7776C50.6981 92.5768 51.3204 92.4843 51.6319 92.4497C51.6392 92.1518 51.6148 91.8906 51.5627 91.6628C51.4479 91.1448 51.2019 90.7921 50.9237 90.5654L50.9233 90.5673ZM37.4597 78.2965C36.2784 77.5402 34.2501 76.6173 34.2444 76.6141L34.0172 76.5109L34.1586 76.3047C34.2491 76.1727 34.3515 76.0349 34.4565 75.8941C34.9211 75.2711 35.4416 74.5732 35.4394 73.5339C35.4386 73.1115 35.3811 72.7761 35.1941 72.4742C35.0027 72.1634 34.6699 71.8745 34.1205 71.5526C33.6009 71.2492 33.0345 71.0766 32.4092 70.9807C31.7694 70.8846 31.0704 70.8662 30.3011 70.8675C28.8598 70.8705 27.5597 70.1808 26.8382 69.1227C26.6864 68.9008 26.5608 68.6622 26.4641 68.4115C26.366 68.1568 26.299 67.8913 26.2646 67.6206C26.2482 67.4853 26.2401 67.3491 26.2401 67.2128C26.238 66.169 26.4099 65.2678 27.1877 64.5116C27.9429 63.7784 29.2689 63.202 31.5731 62.7939C32.2211 62.6794 33.1609 62.7448 34.0309 62.8072L34.6037 62.8448C33.9559 62.253 33.4059 61.5672 33.0561 60.8765C32.9619 60.6907 32.8804 60.5033 32.8157 60.3175C32.7513 60.1369 32.7014 59.9515 32.6666 59.7631C32.6381 59.605 32.6237 59.4465 32.6237 59.2888C32.6216 58.5951 32.706 57.8837 32.853 57.3058C32.8851 57.1776 32.9216 57.0559 32.9616 56.9384C32.9985 56.8284 33.0412 56.7204 33.0896 56.6149C33.1314 56.5235 33.1749 56.4419 33.2188 56.371C33.426 56.0388 33.7425 55.7369 34.0099 55.4698C34.2364 55.2434 34.4218 55.0532 34.4214 54.9691C34.4214 54.9349 34.4089 54.9058 34.4068 54.8717C33.8175 54.6678 33.1635 54.535 32.3749 54.5029C31.5146 54.4666 30.5064 54.5409 29.2884 54.7336L29.2871 54.7351H29.2785C28.7074 54.8238 28.0116 54.8441 27.3144 54.8629C26.5785 54.8821 25.8401 54.902 25.2709 55.0052C24.2278 55.1953 23.3173 55.3998 22.4623 55.6461C21.6179 55.891 20.7925 56.1966 19.9924 56.5605C18.1496 57.3966 16.986 58.2529 16.1507 59.1689C15.315 60.0833 14.8007 61.0675 14.2618 62.1505L14.2609 62.1517L14.2596 62.1532C14.2065 62.259 14.1139 62.387 13.9845 62.5292C13.863 62.6628 13.7059 62.8134 13.5131 62.9736C12.5556 63.7762 10.7445 64.8211 8.44993 65.148C7.3935 65.2988 6.66707 65.3979 6.05336 65.3178C5.55107 65.2542 5.13922 65.0722 4.71493 64.7139C4.74193 65.6297 5.10879 67.742 7.75779 69.0614L7.76722 69.0672H7.76786C8.08029 69.221 8.39679 69.3502 8.7165 69.4564C9.03793 69.5589 9.35936 69.6391 9.684 69.6944C11.3554 69.9775 13.101 69.6145 14.8125 68.6783L15.0572 68.5448L15.1198 68.8161C15.1204 68.8191 15.4052 70.1313 16.0361 70.7641C17.2635 71.995 18.3285 72.985 19.6697 73.7336C21.009 74.4841 22.6333 74.9979 24.9853 75.281L25.1839 75.3058L25.1706 75.5032C25.1706 75.5089 25.0999 77.161 22.9374 79.6067C22.8426 79.7156 22.7394 79.8229 22.6309 79.9301C22.4552 80.1032 22.2684 80.2668 22.0716 80.4221C21.8741 80.5787 21.6686 80.7251 21.456 80.8607C20.4467 81.5051 19.2756 81.9172 18.2237 81.9187C17.5693 81.9217 17.1137 81.83 16.7546 81.4978C16.4117 81.1784 16.1818 80.6475 15.9767 79.7661C15.8121 79.0621 15.636 78.5947 15.3092 78.2781C14.9796 77.9604 14.4735 77.7688 13.6524 77.612V77.6105C13.555 77.593 13.4568 77.5809 13.3581 77.5744C13.2657 77.57 13.1731 77.5715 13.0809 77.5786C12.6501 77.6096 12.3152 77.7673 12.1594 77.9621C12.0684 78.2001 11.4729 79.5659 9.84236 79.8299C9.5205 80.0675 9.32764 80.291 9.22564 80.5484C9.13822 80.7697 9.11636 81.043 9.11486 81.3585C9.67457 81.2801 10.1749 81.2983 10.6633 81.4514C11.3361 81.6619 11.9758 82.118 12.7234 82.8999L12.4176 83.1904C11.7219 82.4619 11.1373 82.0411 10.5384 81.8535C9.94372 81.6676 9.31757 81.7069 8.53779 81.8988H8.53714C7.13421 82.2406 7.32214 83.4765 7.35343 83.6427C7.467 83.8258 8.04514 84.8976 7.26771 86.4847C7.20129 86.9536 7.36843 87.5482 7.63671 88.0387C7.8975 88.5162 8.24186 88.8877 8.54164 88.9373V88.9358L8.54807 88.9373C8.61021 88.9445 8.74821 88.8486 8.74821 88.8486L8.74886 88.8501L8.751 88.8486C8.79514 88.8155 8.81872 88.557 8.84957 88.2085C8.92607 87.3625 9.04093 86.0792 10.1089 85.2604L10.1104 85.2589L10.1164 85.2546C10.2514 85.1514 10.4074 85.0623 10.5776 84.9769C10.7469 84.8983 10.929 84.8316 11.1193 84.7782C12.0928 84.5069 13.3614 84.5517 14.4279 84.9886L14.2676 85.3774C13.2887 84.9771 12.1251 84.9348 11.2333 85.1852C11.0694 85.2302 10.9097 85.289 10.7559 85.361C10.614 85.4261 10.4844 85.5031 10.3708 85.5902L10.365 85.5945C9.44421 86.3027 9.33643 87.4724 9.26936 88.2451C9.2415 88.547 9.22007 88.798 9.15 88.9751C9.19864 89.0193 9.24857 89.0973 9.3 89.1597C9.37714 89.0906 9.45064 89.0016 9.52864 88.9477C9.78429 88.7704 10.0451 88.6721 10.2654 88.6704C10.4059 88.6704 10.5546 88.708 10.6999 88.7794C10.9031 88.8798 11.1075 89.0479 11.2806 89.2707C11.4499 89.4887 11.5924 89.7628 11.6792 90.0794C11.7366 90.2883 11.7696 90.5177 11.7703 90.7602C11.7706 90.9021 11.7592 91.0438 11.7362 91.1839C11.7287 91.2266 11.7204 91.2692 11.7114 91.3116C11.6916 91.4001 11.6685 91.4815 11.6424 91.5526C11.6136 91.631 11.5798 91.6992 11.5416 91.7588C11.5549 91.7763 11.5631 91.7934 11.5774 91.8109V91.8124C11.652 91.9028 11.7341 91.9867 11.823 92.0632C11.9199 92.1491 12.0287 92.232 12.1444 92.3102L12.1453 92.3116C12.7056 92.6834 13.4739 92.9664 14.1966 92.9647C14.3196 92.9647 14.4491 92.9502 14.5824 92.9241C14.7088 92.8985 14.838 92.8605 14.9698 92.8126C15.1001 92.7635 15.2338 92.7007 15.3705 92.6268C15.9426 92.314 16.5062 91.7844 16.9412 91.0638C16.5846 90.5991 16.4906 90.158 16.4899 89.6833C16.4891 89.56 16.5024 89.4205 16.5257 89.2769C16.5418 89.1829 16.5621 89.084 16.5868 88.9881C16.6116 88.8864 16.6404 88.7851 16.6725 88.6877C16.8101 88.2711 17.0196 87.8545 17.2731 87.5758L17.5856 87.8586C17.3745 88.091 17.1951 88.4525 17.0745 88.8183C17.0439 88.9127 17.0166 89.0028 16.9959 89.0881C16.974 89.1767 16.9556 89.2624 16.9423 89.3449C16.9228 89.4566 16.9123 89.5697 16.9108 89.6831C16.9123 90.0723 16.9879 90.4321 17.2761 90.8096C17.5813 91.2091 18.1215 91.6342 19.0468 92.1377C19.7556 92.5244 20.4726 92.3621 21.1519 92.1965C21.1637 92.1031 21.1674 92.0106 21.1963 91.9128H21.1954C21.2998 91.5703 21.5218 91.2089 21.864 90.9301C22.2054 90.6523 22.6663 90.4631 23.2487 90.4616C23.4716 90.4616 23.7244 90.51 23.9837 90.5726C24.1926 90.3092 24.3857 89.9377 24.5136 89.5241C24.5451 89.4224 24.5736 89.3165 24.5972 89.2058C24.6199 89.1001 24.6386 88.9943 24.6519 88.8896C24.6669 88.7649 24.6754 88.6456 24.6748 88.5371C24.6741 88.0928 24.4813 87.7112 24.2454 87.4048C24 87.0882 23.7041 86.8473 23.5168 86.6994C23.1536 86.4121 21.921 85.9376 21.9176 85.9361L21.5199 85.788L21.8788 85.5616C22.7327 85.0232 23.6304 84.8288 24.5466 84.8993C25.4106 84.963 26.2901 85.2593 27.1644 85.7165C27.4686 85.4494 28.3644 84.6265 29.3216 83.3639L29.4039 83.2562L29.5363 83.2851C29.547 83.2881 33.2229 84.0755 33.6092 86.6349C33.9949 86.6875 35.1255 86.6915 36.2166 85.2706C36.5944 84.7786 36.6165 83.635 36.5402 82.9249C36.5256 82.7871 36.5076 82.6668 36.4871 82.5709C36.4704 82.491 36.4539 82.4342 36.4408 82.4111H36.4399C36.0291 81.6941 34.9112 80.9293 33.8119 80.4429C33.6019 80.3484 33.3868 80.2645 33.1755 80.1929C32.9819 80.1246 32.7844 80.0678 32.5841 80.0231L32.5798 80.0216L32.6709 79.612H32.6751C32.8819 79.6584 33.0966 79.7193 33.3129 79.7936C33.5276 79.8663 33.7532 79.956 33.984 80.0577C35.1525 80.576 36.3514 81.4074 36.8083 82.2017L36.8089 82.2047H36.8098C36.843 82.2641 36.8751 82.3611 36.9004 82.4825C36.9079 82.5166 36.9129 82.5675 36.9197 82.6064C37.3279 82.4782 37.6984 82.3115 37.9611 82.0586C38.2596 81.771 38.4411 81.3762 38.4401 80.8248C38.4379 80.1891 38.3775 79.6665 38.2211 79.2471C38.0803 78.8523 37.8102 78.5164 37.4544 78.2935L37.4597 78.2965ZM69.2113 84.0356C68.565 83.6728 67.1869 83.6147 66.7487 83.6083C66.6351 83.8854 66.3861 84.5791 66.3883 85.3253C66.3883 85.4385 66.4022 85.553 66.4316 85.6663V85.6678C66.4461 85.7259 66.4641 85.781 66.4845 85.8333H66.4854C66.5289 85.9423 66.5899 86.0512 66.6686 86.1581C66.72 86.2264 66.7808 86.2948 66.8475 86.3597C67.0832 86.2145 67.5889 85.9808 68.3931 85.978C69.2085 85.9765 69.7341 86.1899 70.0363 86.3753C70.0783 85.7515 70.0487 84.5045 69.2113 84.0369V84.0356ZM69.9184 64.0755C69.5061 64.1146 69.0056 64.161 68.3764 64.2524C65.7368 64.6387 65.0921 65.8682 65.0906 65.8712L64.6958 66.6012L64.6937 65.7707C64.6907 64.7201 64.2111 63.5442 63.3069 62.8589C63.1196 62.7179 62.9147 62.5961 62.6912 62.5032C62.4677 62.4102 62.2266 62.3436 61.9682 62.3109C61.8282 62.293 61.6872 62.2839 61.5461 62.2836C61.0665 62.2851 60.3349 62.5982 59.6432 63.0296C59.4668 63.14 59.2946 63.259 59.1306 63.3812C58.9707 63.4989 58.8162 63.6237 58.6676 63.7553C58.5251 63.883 58.3954 64.011 58.2836 64.1356C57.6551 64.838 57.2186 65.2909 56.7064 65.5768C56.1874 65.8656 55.6131 65.9733 54.7183 65.9763C53.5427 65.9793 52.6779 65.6295 52.0425 64.8077C51.4258 64.0123 51.0388 62.7781 50.7996 60.9915C50.4984 58.7344 50.2311 57.4265 49.824 56.3539C49.4194 55.2872 48.8674 54.4367 47.9998 53.101L48.3463 52.8618C48.3521 52.869 50.2419 55.5354 55.4177 55.5241C56.9863 55.5198 58.6573 55.0349 60.132 54.2701C60.4369 54.112 60.732 53.9421 61.0134 53.7637C61.2966 53.5854 61.5705 53.3963 61.8298 53.1991C61.9252 53.1259 62.0195 53.0514 62.1128 52.9756C62.9593 52.2845 63.7123 51.4503 64.2536 50.402C64.7942 49.3524 65.124 48.0853 65.1203 46.5321C65.1161 44.519 64.9886 44.0255 64.5718 42.4013H64.5711L64.4469 41.9191L63.2426 37.2774C62.8043 35.6384 62.3306 33.9389 61.8313 32.2854C61.0136 29.5754 60.2623 26.8987 59.7156 24.3919C59.1671 21.8796 58.8225 19.5323 58.8178 17.4902C58.8114 14.8033 59.2626 13.8862 59.7096 13.0352L59.7701 12.9207V12.9192C60.2301 12.0467 60.6816 11.4751 61.2208 11.1151C61.7672 10.7523 62.3893 10.6143 63.1871 10.613C64.9836 10.6088 65.916 10.9963 66.3842 11.5652C66.8093 12.0835 66.8385 12.7244 66.7796 13.3563C67.2223 13.3341 67.8178 13.3157 68.4338 13.3029L70.1839 13.2724C70.1775 12.8782 70.1471 12.5061 70.0918 12.1561C70.0356 11.8049 69.9557 11.4753 69.8543 11.1691C69.3486 9.64654 68.2815 8.68838 66.8595 8.26324C66.6659 8.20491 66.4701 8.15403 66.2726 8.11071C65.9144 8.03242 65.5524 7.97288 65.1881 7.93232C64.8006 7.88959 64.3995 7.86118 63.9924 7.85413C62.0642 7.82486 59.9239 8.2344 58.4098 9.38248H58.4106C57.2079 10.2954 56.4568 11.4943 56.0076 12.8442C55.5533 14.2085 55.4048 15.7315 55.4083 17.2712C55.4143 19.7913 55.8401 22.4694 56.4662 25.1864C57.0932 27.9018 57.9234 30.6671 58.7368 33.3495L58.7374 33.3523L58.7383 33.3538C59.3839 35.4891 59.9226 37.568 60.4337 39.5403L60.8844 41.269L60.9733 41.6057C61.3753 43.1167 61.6326 44.0877 61.638 46.3377C61.6386 46.708 61.6116 47.0547 61.5615 47.3803C61.2651 49.2716 60.1601 50.443 58.8889 51.1569C57.6347 51.8609 56.2189 52.1151 55.2718 52.176C55.1111 52.1862 54.9594 52.1909 54.8211 52.1909C54.6866 52.1922 54.5563 52.188 54.4301 52.179C54.01 52.1541 53.5935 52.0861 53.1874 51.976C52.7807 51.8671 52.3845 51.716 52.0016 51.5304C50.1266 50.616 48.5426 48.8072 47.583 46.4512C47.5624 46.4005 47.5406 46.3444 47.5174 46.2813V46.2801C46.9695 44.8256 46.8542 43.0678 46.746 41.4027L46.6689 40.2999C46.5296 40.124 46.3864 39.9512 46.2394 39.7817C45.9309 39.4282 45.6031 39.0919 45.2576 38.7744C44.9446 38.4871 44.6152 38.2181 44.271 37.9687C42.7061 36.8335 41.1932 36.3951 40.0811 36.3985C37.1554 36.4045 34.0397 39.1769 34.0303 39.1843L33.84 39.3495L33.7106 39.1333C33.666 39.0617 33.6266 38.987 33.5927 38.9098C33.5563 38.8299 33.522 38.74 33.4907 38.6428C33.3501 38.2074 33.2863 37.5763 33.3371 36.8162C32.577 36.8424 31.4938 37.3263 30.2702 37.8908L29.1084 38.4163C27.7151 39.0245 26.364 39.351 25.1205 39.4772C24.8779 39.5007 24.6379 39.5178 24.4014 39.5285C24.1682 39.537 23.9374 39.54 23.7103 39.5358L23.6689 39.5343H23.6683C23.6565 39.5343 23.6441 39.5285 23.6319 39.5279C22.4747 40.3102 20.3151 41.2369 18.4708 42.0295L18.1371 42.1733L18.1363 42.1718C18.0834 42.1953 17.8614 42.3419 17.5273 42.5611C16.5544 43.1998 14.6554 44.4464 12.7751 45.3289L12.7547 45.3375L12.438 45.4855L12.4551 45.1373C12.4551 45.1315 12.5923 43.1516 11.0897 41.6828C10.1983 40.8103 9.38829 40.8975 8.42293 41.002L8.10064 41.034C7.76293 42.4446 6.51493 42.4833 6.15064 42.4596C5.80136 42.7412 5.62136 43.0136 5.55493 43.2665C5.4975 43.4844 5.51764 43.6948 5.55064 43.892C5.64236 43.8863 5.72636 43.8685 5.82064 43.8685C5.96122 43.8685 6.09493 43.8745 6.22136 43.8845C6.48172 43.9063 6.73779 43.9514 6.98507 44.0155C7.2267 44.0786 7.46282 44.1611 7.69114 44.262V44.2605C8.77114 44.738 9.5955 45.6005 9.95293 46.545L9.55821 46.6932C9.2385 45.85 8.49707 45.0777 7.52079 44.6466V44.6451C7.31764 44.5554 7.10293 44.4795 6.87836 44.4214C6.65764 44.3648 6.42664 44.3244 6.18622 44.3039C6.0647 44.2936 5.94281 44.2883 5.82086 44.2879C4.85486 44.2907 4.08986 44.5928 3.64929 45.1051C3.55969 45.21 3.48254 45.3249 3.41936 45.4475C3.35687 45.5726 3.30967 45.7047 3.27879 45.841C3.26207 45.9164 3.25029 45.9987 3.24407 46.082C3.26636 46.1888 3.30622 46.3715 3.34479 46.5858C3.38872 46.825 3.42622 47.0893 3.42707 47.2779C3.42857 48.0513 3.19564 48.4203 3.04864 48.5833C3.06322 48.6523 3.0765 48.7204 3.09793 48.7931C3.12793 48.8992 3.16222 49.0024 3.19993 49.1007C3.37929 49.563 3.666 49.9963 4.02922 50.2727C4.41493 49.8241 4.93714 49.4453 5.55793 49.2052C5.97292 49.0457 6.40845 48.9455 6.85157 48.9076L6.888 49.3274C6.47164 49.3637 6.07414 49.4577 5.71007 49.5972C5.11222 49.8294 4.60564 50.1881 4.26214 50.6226C3.92786 51.0495 3.74893 51.5535 3.79543 52.0918C3.81086 52.2632 3.85843 52.44 3.921 52.6169C4.13529 52.7099 4.39179 52.8763 4.62107 53.119C4.6742 53.174 4.72448 53.2317 4.77172 53.2918C4.821 53.3529 4.86643 53.4166 4.908 53.4837H4.90864L4.91143 53.4894C5.16857 53.8949 5.12272 54.9439 5.10536 55.2427C5.16107 55.3154 5.21807 55.3874 5.28107 55.4521V55.4534C5.37964 55.5566 5.4915 55.6542 5.61107 55.7452C5.72893 55.8339 5.85493 55.914 5.98607 55.9862C6.59764 56.3203 7.3275 56.4712 8.02736 56.4684C8.14668 56.4682 8.26593 56.4628 8.38479 56.4524C8.59002 56.4335 8.79358 56.3995 8.99379 56.3507C9.18548 56.3041 9.37343 56.2435 9.55607 56.1691C10.3481 55.8452 10.9275 55.3032 11.1182 54.7394C10.8461 54.4061 10.6131 54.0333 10.4696 53.6289C10.2789 53.0936 10.2086 52.5315 10.281 52.057C10.3341 51.7145 10.4616 51.4127 10.671 51.189L10.9783 51.4778C10.8283 51.6346 10.7387 51.8596 10.6989 52.1187C10.6363 52.5251 10.6995 53.0143 10.8675 53.4875C11.0368 53.9618 11.3111 54.4164 11.6683 54.7518C11.9589 55.0246 12.3047 55.218 12.6932 55.2773C13.6412 55.4209 14.4302 55.2701 15.0004 54.958C15.1101 54.8971 15.2115 54.8302 15.3021 54.7621C15.378 54.704 15.4449 54.6409 15.5089 54.5768C15.57 54.2265 15.9171 52.7938 17.3295 52.684C17.4351 52.4999 17.5481 52.226 17.6368 51.9156C17.6638 51.8211 17.6874 51.7325 17.706 51.6515C17.726 51.5644 17.7432 51.4767 17.7576 51.3885C17.7812 51.2433 17.7941 51.1072 17.7941 50.9869C17.7919 49.8471 17.328 48.9285 16.7771 48.325C16.6685 48.2045 16.551 48.0924 16.4256 47.9894C16.3089 47.8939 16.1921 47.811 16.0776 47.7458H16.077C16.0149 47.7095 15.9555 47.6774 15.9 47.6529L16.0736 47.2696C16.1464 47.3012 16.2193 47.339 16.2904 47.3816H16.2898C16.4222 47.458 16.5583 47.5525 16.6935 47.6644C16.8289 47.7749 16.9624 47.9011 17.0899 48.0419C17.3863 48.3666 17.6578 48.7768 17.8607 49.2545C18.9208 49.0883 19.9378 48.7204 20.7921 48.4047L21.2413 48.2406L21.4016 48.1842L21.4916 48.3263C21.4959 48.3335 22.9438 50.719 26.1437 50.7096C26.271 50.7096 26.4034 50.7053 26.5376 50.6981C26.7677 50.6852 26.997 50.6617 27.2226 50.6282C27.4498 50.5951 27.669 50.5528 27.8771 50.5034C28.6918 50.309 29.3927 49.9911 29.9059 49.6198C29.7932 49.5993 29.6781 49.591 29.5667 49.5632C29.3139 49.4996 29.0659 49.4167 28.8287 49.3175C27.684 48.839 26.7212 47.962 26.2174 46.9665L26.5939 46.7759C27.054 47.686 27.9381 48.4876 28.9939 48.9287C29.2138 49.0206 29.4401 49.0963 29.6711 49.1552C29.9019 49.2118 30.1378 49.2526 30.3754 49.2712C30.4965 49.2814 30.6137 49.2861 30.7241 49.2861C31.1741 49.2861 31.6526 49.1481 32.1291 48.9364C32.6156 48.7185 33.1026 48.4224 33.5569 48.1145C34.5011 47.4715 34.8255 46.8359 34.9363 46.5005C31.9191 46.5817 31.2994 45.0187 31.2973 45.014L31.2159 44.8154L31.4173 44.737C33.4796 43.9386 35.7516 43.4203 38.0023 43.5188C38.4411 43.5393 38.8802 43.5829 39.3169 43.6513C39.7558 43.7201 40.19 43.8161 40.617 43.9386V43.9371L40.6213 43.9386L40.7316 43.9702L40.7653 44.0792C40.7674 44.0849 41.4343 46.2739 44.0471 46.1728L44.0638 46.5922C43.5636 46.6118 43.1434 46.5409 42.7631 46.4341C42.7573 46.514 42.7423 46.5937 42.7491 46.6721C42.7864 47.0861 43.0048 47.4882 43.3564 47.8172C43.7181 48.1551 44.2179 48.4181 44.8059 48.5435C45.1487 48.6147 45.5265 48.6397 45.9212 48.6044L45.9566 49.0225C45.5194 49.0616 45.1022 49.0353 44.7201 48.9541C44.0533 48.8148 43.4833 48.5145 43.0674 48.1257C42.6424 47.7262 42.3761 47.2299 42.3294 46.7103C42.3176 46.5774 42.3351 46.4433 42.3529 46.308C41.07 45.7797 40.5401 44.6716 40.4029 44.318C40.0243 44.2112 39.6392 44.1309 39.2522 44.0696C38.8324 44.0037 38.4093 43.9616 37.9847 43.9433C35.8809 43.8504 33.7526 44.315 31.8004 45.045C32.0719 45.4182 32.9186 46.2034 35.1911 46.0726L35.4375 46.0581L35.4126 46.3038C35.4126 46.3065 35.3325 47.42 33.7959 48.4649C33.3251 48.7845 32.8172 49.0919 32.3019 49.3212C32.1527 49.388 32.0019 49.4295 31.8519 49.4814C32.1497 49.8873 32.5629 50.0629 33.4789 50.4096L34.2047 50.6895C34.482 50.7985 34.7426 50.9463 34.9847 51.1236C35.2247 51.2998 35.4466 51.4991 35.6473 51.7188C35.8474 51.9335 36.0291 52.1687 36.1916 52.408C36.8415 53.3689 37.1874 54.4546 37.1889 54.9862C37.1892 55.1373 37.1838 55.2884 37.1728 55.4391C37.1248 56.124 36.9771 56.911 36.8293 57.7019C36.6482 58.6701 36.465 59.6473 36.4667 60.4279C36.4682 61.1376 36.6778 61.705 36.8882 62.2754C37.0802 62.795 37.2733 63.3193 37.3286 63.9679C37.4181 65.0132 37.5454 65.9158 37.7786 66.7695C38.013 67.6198 38.3565 68.4299 38.8815 69.2979L39.4956 70.2921C40.4668 71.8453 41.2806 73.1459 41.2836 74.3506C41.2858 75.5974 41.0079 76.3827 40.8015 76.7903C41.2714 76.7587 42.1414 76.6164 43.0566 76.049C43.5885 75.7179 44.1609 75.3028 44.6929 74.7339C45.1858 74.2062 45.6371 73.5255 46.0018 72.677C45.3401 72.2027 44.7255 71.6703 44.2174 71.0847C43.851 70.6639 43.5356 70.2182 43.2885 69.7551C43.0391 69.2893 42.8591 68.8057 42.7674 68.3137C42.74 68.1687 42.7206 68.0223 42.7093 67.8753L43.1306 67.8432C43.1409 67.9772 43.1576 68.1088 43.182 68.2385C43.2651 68.6856 43.4306 69.1283 43.6594 69.5579C43.8902 69.9903 44.1887 70.4114 44.5352 70.8091C46.2574 72.7917 49.1644 74.2391 51.2368 74.2333C54.0542 74.2273 56.7234 72.8083 56.7311 72.8036L56.9376 72.6964L57.0259 72.9111L57.0274 72.9154V72.9167C57.1161 73.1374 57.2018 73.3973 57.2813 73.6873C57.3608 73.9772 57.4348 74.294 57.4999 74.6221C57.8368 76.3366 57.9853 78.5919 57.7356 80.2673C57.6414 80.9 57.5033 81.2963 57.2282 81.5491H57.2288C56.9494 81.8029 56.5613 81.8845 55.9688 81.8858C55.2947 81.8885 54.888 81.8116 54.5961 81.6696C54.2876 81.5185 54.1243 81.3111 53.9276 81.0496C53.1176 79.9682 52.4336 79.2394 51.7487 78.785C51.0776 78.3407 50.397 78.157 49.5795 78.1582C48.1294 78.161 47.8545 78.7603 47.6518 79.2136V79.2149L47.6432 79.2341C47.7306 79.3879 47.8639 79.6956 47.8646 80.2068C47.8667 81.2436 47.271 81.7736 47.0417 81.9383C47.0117 82.1338 46.9864 82.3694 47.0053 82.6378C47.022 82.8664 47.0882 83.1184 47.1917 83.3769C47.3036 83.2817 47.4216 83.1795 47.568 83.0821C47.7703 82.9486 47.9953 82.8382 48.2109 82.8166H48.2121L48.2211 82.8151H48.2218C48.2689 82.8108 48.3381 82.8065 48.4219 82.8023C48.5006 82.798 48.5994 82.795 48.7144 82.792C49.2793 82.7818 50.1495 82.8048 50.7122 82.9576L50.6025 83.3639C50.0826 83.2229 49.2585 83.2026 48.7221 83.2129C48.6287 83.214 48.5352 83.2169 48.4419 83.2216C48.3817 83.2241 48.3217 83.2284 48.2619 83.2347H48.2539C48.1146 83.2496 47.9533 83.3321 47.7988 83.4333C47.6306 83.5449 47.4731 83.6784 47.3578 83.7788C46.8379 84.2257 46.7471 84.7686 46.6667 85.2529C46.6624 85.2736 46.6573 85.308 46.6528 85.3334C47.8656 86.3647 47.4896 87.8437 47.3721 88.2017C47.4107 88.3053 47.4536 88.4085 47.5046 88.5072C47.5633 88.6208 47.6302 88.7301 47.7047 88.8341C48.0304 89.2844 48.4873 89.5946 48.9917 89.7224C48.9268 89.0345 48.9654 88.0603 49.464 87.207V87.2055C49.8711 86.5144 50.3301 86.0978 50.8774 85.8803C51.4196 85.6654 52.0331 85.6539 52.7541 85.7671L52.6877 86.1822C52.0391 86.079 51.4952 86.0861 51.0324 86.2707C50.5759 86.4522 50.1838 86.8122 49.8289 87.4172C49.3575 88.2248 49.3457 89.181 49.4201 89.8065V89.808C49.4308 89.8999 49.4445 89.9762 49.4578 90.052C49.6056 89.933 49.7394 89.8495 49.8328 89.8283C49.9239 89.8097 50.0304 89.8027 50.1446 89.8097C50.4504 89.83 50.841 89.9593 51.1877 90.2434C51.5291 90.5222 51.8319 90.9506 51.9709 91.5744C52.0299 91.8393 52.0502 92.1463 52.0408 92.4823C52.1556 92.5144 52.3065 92.5614 52.4361 92.6195C53.0754 92.9058 53.4776 93.0782 53.8826 93.148C54.2846 93.2177 54.7112 93.1871 55.4055 93.0724C56.5172 92.8883 57.2955 92.4353 57.8049 91.656C58.3269 90.8561 58.5806 89.7076 58.6326 88.1577L58.6391 87.9548H58.8426C58.8426 87.9548 59.0559 87.9562 59.3156 87.9259C58.9326 87.5696 58.7786 87.1457 58.5474 85.9359L58.9616 85.859C59.2631 87.4352 59.4036 87.5296 60.2269 88.0765L60.4423 88.2218H60.4431C61.875 89.1842 63.1911 89.3583 64.2889 89.174C64.5043 89.1376 64.7102 89.0885 64.9056 89.0287C65.1011 88.9689 65.2901 88.9009 65.4675 88.8225H65.4666L65.4726 88.8195H65.4763C66.4401 88.4017 66.5912 87.6266 66.6141 87.0256C66.6178 86.9092 66.6171 86.8094 66.6171 86.7112C66.5096 86.6129 66.405 86.5131 66.3257 86.4087C66.2258 86.2736 66.1472 86.1331 66.0889 85.9893V85.9878C66.0593 85.9137 66.0353 85.841 66.0169 85.7699C65.9805 85.6263 65.9625 85.4768 65.9625 85.3247C65.9604 84.453 66.2631 83.6641 66.3733 83.4049C66.1532 82.9548 65.8997 82.5839 65.5963 82.3229C65.2852 82.0496 64.8959 81.8805 64.4833 81.8396C63.2398 81.7046 62.2161 82.5478 62.2134 82.5506L61.6892 82.9744L61.8784 82.3301C62.9884 78.5417 65.6798 78.1948 66.4941 78.177L66.2798 73.615L66.2713 73.3813L66.507 73.3959C67.9286 73.492 69.0047 73.2897 69.8018 72.9081C70.4929 72.5785 70.9753 72.1142 71.2933 71.59C71.613 71.0659 71.7696 70.4825 71.8076 69.9179C71.8504 69.2742 71.7283 68.6739 71.5294 68.2034C71.0612 68.4811 70.5433 68.6709 69.9722 68.6911C69.1493 68.7189 68.2258 68.7809 67.4676 68.9279C66.7601 69.0642 66.2102 69.2643 66.0711 69.5649L65.6854 69.3865C65.8922 68.9422 66.5539 68.6751 67.386 68.5143C68.1666 68.3647 69.1131 68.3006 69.9578 68.2703C71.1221 68.2312 72.1056 67.4862 72.6343 66.4063C72.7444 66.1814 72.8351 65.9421 72.9021 65.6923C72.9707 65.4411 73.0163 65.1783 73.0376 64.9083C73.0461 64.7876 73.0513 64.6701 73.0513 64.5558C73.0485 63.4483 72.5505 62.8067 72.2441 62.5177C71.8562 63.895 71.4255 63.9356 69.9139 64.0764L69.9184 64.0755ZM22.1014 46.216C20.4786 46.7924 19.47 47.1508 18.4586 47.2743L18.4093 46.8562C19.3768 46.7387 20.3679 46.3858 21.963 45.8184L24.1622 45.0508L24.2976 45.4503L22.1034 46.2164L22.1014 46.216ZM36.7494 55.4087V55.4072C36.76 55.2663 36.7655 55.125 36.7661 54.9836C36.7648 54.5147 36.4438 53.5351 35.8395 52.6406C35.6882 52.4172 35.5191 52.2006 35.3344 51.9991C35.1497 51.8004 34.9494 51.6163 34.7353 51.4607C34.5227 51.3054 34.2932 51.1749 34.0479 51.0794H34.0472L33.7879 50.9796L32.9807 51.9632V51.9647L32.8256 52.1548C33.405 52.4757 34.8369 53.4232 34.8405 54.9693C34.8405 55.2171 34.6009 55.4756 34.3069 55.7689C34.0541 56.0217 33.7519 56.3105 33.5754 56.5936C33.5381 56.6512 33.5034 56.7183 33.4708 56.7895C33.4326 56.8736 33.3949 56.9696 33.3594 57.0736C33.3246 57.1753 33.2919 57.2885 33.2608 57.4103C33.1211 57.9572 33.0409 58.6323 33.0422 59.2886C33.0434 59.4229 33.0563 59.5568 33.0806 59.6889C33.1108 59.8553 33.1544 60.019 33.2109 60.1784C33.2735 60.3525 33.3467 60.5227 33.4301 60.6879C33.8274 61.4702 34.4921 62.2569 35.2794 62.8798L35.2744 62.8862L35.7613 62.9219C36.084 62.9463 36.375 62.9646 36.6791 62.977C36.6198 62.7892 36.5563 62.6028 36.4886 62.4179C36.2666 61.8144 36.0444 61.213 36.0429 60.4254C36.0407 59.6035 36.2271 58.6094 36.4114 57.6237C36.5571 56.8454 36.7018 56.0734 36.7483 55.4083L36.7494 55.4087ZM17.5033 56.2131C17.7947 55.8648 18.0459 55.406 18.1281 54.9253V54.9238C18.1467 54.8154 18.1561 54.7057 18.1562 54.5958C18.1556 54.4862 18.1443 54.3769 18.1224 54.2694L18.1215 54.2651C18.0251 53.8122 17.5521 53.2696 17.3826 53.0865C16.3412 53.1517 16.0262 54.1692 15.9435 54.5563C16.5171 54.8699 17.2048 55.7869 17.5035 56.2129L17.5033 56.2131ZM12.0879 72.5687C13.1136 73.0098 14.3721 73.1638 15.7204 72.8833C16.1908 72.7863 16.6734 72.6214 17.1596 72.4118C16.6723 71.9759 16.1981 71.5257 15.7376 71.0617C15.2091 70.5318 14.9029 69.6247 14.7767 69.1761C13.0952 70.0441 11.3824 70.3731 9.72536 70.1197C9.77186 70.2684 9.80829 70.4216 9.876 70.5626C10.2868 71.4159 11.0717 72.1313 12.0874 72.5687H12.0879ZM9.10757 76.7559C8.95757 76.7559 8.76472 76.8051 8.55514 76.8862C8.4439 76.9291 8.33553 76.9791 8.23071 77.0358C8.01429 77.1518 7.80771 77.2896 7.64357 77.4391C7.56279 77.5118 7.49357 77.5872 7.4385 77.6598C8.01343 77.86 9.42922 78.4381 9.87579 79.4046C11.0704 79.1679 11.5851 78.2275 11.7304 77.898C11.2922 77.4622 10.7004 77.1518 10.1546 76.9632C10.0185 76.9204 9.88821 76.879 9.76671 76.8499C9.64371 76.8179 9.52564 76.7965 9.41529 76.7805C9.31332 76.7654 9.21044 76.7571 9.10736 76.7557L9.10757 76.7559ZM45.2619 13.9227C45.2246 13.9767 45.2104 14.0252 45.1811 14.0737C45.24 14.081 45.2959 14.0831 45.3559 14.0912C46.2831 14.216 47.2914 14.5384 48.1744 15.1393C48.8826 15.6211 49.3916 16.0234 49.7876 16.469C50.1883 16.9189 50.4669 17.4069 50.7126 18.0555L50.7186 18.0711C50.8386 18.3928 50.9115 18.7084 50.9835 19.0183C53.9771 19.148 54.3017 16.9238 54.3291 16.2919C53.3649 16.0868 52.6331 15.8909 52.0011 15.5015C51.3283 15.0849 50.7849 14.4561 50.2149 13.3779C50.0027 12.9799 49.4606 12.2888 48.8987 11.7709V11.7724C48.789 11.6707 48.6795 11.5802 48.5751 11.4968H48.5743C48.4676 11.4142 48.3647 11.343 48.27 11.2864H48.2679L48.2657 11.2849C47.8886 11.0642 47.4851 10.8888 47.0501 10.7786C46.6714 10.682 46.2643 10.6474 45.8338 10.6632C45.8535 10.8811 45.8766 11.0862 45.8794 11.342C45.8831 13.0564 45.5199 13.5655 45.2623 13.9255L45.2619 13.9227ZM10.95 89.5307C10.8161 89.3577 10.6646 89.2302 10.5161 89.1577C10.4271 89.1144 10.3425 89.0909 10.2675 89.0909C10.1351 89.0909 9.95957 89.165 9.77464 89.2938C9.62314 89.4006 9.46972 89.5408 9.3285 89.7089C9.17862 89.887 9.05323 90.0842 8.95564 90.2953H8.955C8.82172 90.5844 8.73814 90.911 8.73857 91.2546C8.73921 91.728 8.87143 92.0487 8.97729 92.2273C9.3 91.9367 10.0367 91.4368 11.2007 91.5308C11.2196 91.4926 11.2363 91.4534 11.2509 91.4133C11.2712 91.3556 11.2894 91.2915 11.3044 91.2247C11.3109 91.1941 11.3177 91.158 11.3248 91.1189C11.3439 91.0014 11.3537 90.8825 11.3541 90.7634C11.3538 90.5706 11.328 90.3787 11.2776 90.1926C11.2056 89.933 11.0891 89.7093 10.9519 89.5307H10.95ZM23.2534 90.8852C22.7792 90.8867 22.407 91.039 22.1344 91.2597C21.8855 91.4618 21.7015 91.7322 21.6051 92.0376H21.6043C21.5857 92.0999 21.5717 92.1635 21.5623 92.2279C22.6444 92.6488 22.8939 93.5198 22.9455 94.0118C24.4185 93.1636 24.0448 91.4165 23.9205 90.9724C23.6788 90.9115 23.4559 90.8837 23.253 90.8852H23.2534ZM30.4586 20.7522C30.438 20.7394 30.4549 20.7522 30.465 20.7608C30.4684 20.7595 30.4678 20.7565 30.4596 20.7522H30.4584H30.4586ZM29.3621 22.1379C29.5935 22.2793 29.7446 22.3679 29.8965 22.4258C30.0486 22.4857 30.2171 22.5233 30.4929 22.5711C30.5606 22.5826 30.6326 22.5985 30.7029 22.6123C30.6664 22.544 30.6092 22.4825 30.5807 22.4098C30.4896 22.1791 30.441 21.9236 30.4389 21.613L30.4374 21.4361L30.4228 20.8144C30.4213 20.7887 30.4307 20.7768 30.4416 20.7695C29.9402 20.7781 29.8644 20.8201 29.8151 20.9191H29.8142L29.7564 21.0351V21.0366C29.5024 21.5429 29.7238 21.1077 29.7579 21.0425L29.7591 21.0383L29.7606 21.0368L29.7579 21.0428C29.7154 21.1325 29.6261 21.3198 29.5371 21.5478C29.4636 21.7341 29.4047 21.9424 29.3623 22.1379H29.3621ZM18.3064 27.4959C18.2897 28.2551 18.4329 30.7959 20.8821 30.5199C20.7146 29.7422 20.8515 28.783 20.8521 28.7787L20.8757 28.5946H21.0621C21.0636 28.5946 21.4217 28.6063 22.2911 28.5976C24.6996 28.5756 26.3961 28.4395 27.6669 28.213C28.9219 27.9896 29.7531 27.6772 30.4476 27.2987C31.5319 26.7078 32.8026 26.0474 33.5934 25.702C33.6465 25.6785 33.6855 25.6656 33.7352 25.6447C33.3049 25.5003 32.778 25.3683 32.2742 25.2666C32.1006 25.2315 31.9263 25.1995 31.7516 25.1706C31.5983 25.1449 31.4447 25.1217 31.2906 25.101C31.0817 25.0747 30.9099 25.0604 30.7971 25.0604C30.4551 25.0613 29.9214 25.1068 29.3186 25.1672L29.3289 25.1796L29.3252 25.1826C29.0709 25.3873 28.7655 25.5874 28.4128 25.7791C28.0635 25.9709 27.6703 26.1508 27.2394 26.3196C25.0744 27.1641 21.8865 27.7114 18.3086 27.4946L18.3064 27.4959ZM15.1035 41.1045C15.7892 41.529 16.7291 41.7518 18.0109 41.7657L18.3028 41.6397C19.9442 40.9351 21.8357 40.1228 23.0166 39.4172C22.2549 39.1769 21.6104 38.6619 21.2091 37.973C21.1049 37.7907 21.0211 37.5975 20.9593 37.3968C20.9091 37.2328 20.8871 37.0601 20.8704 36.8862L19.8411 37.0238C18.6596 37.7252 17.556 38.3405 16.5219 38.7821C15.5719 39.1884 14.6764 39.4388 13.8206 39.4903C14.0979 40.1814 14.499 40.7285 15.1031 41.1045H15.1035ZM33.957 38.6919C34.7143 38.0694 37.4462 35.9819 40.08 35.9774C41.2684 35.9747 42.8736 36.4333 44.5179 37.6267C44.8577 37.8717 45.2008 38.1518 45.5428 38.4642C45.8992 38.792 46.2375 39.139 46.5561 39.5035C46.7165 39.6873 46.8723 39.875 47.0233 40.0664C47.9169 40.8099 48.6911 41.2613 49.4361 41.5239C50.1834 41.7879 50.9072 41.8663 51.6956 41.8648C54.6313 41.8576 55.8343 39.0068 56.1705 37.9835L56.0644 38.0098C55.9511 38.0349 55.8374 38.0587 55.7235 38.0809C55.1721 38.1852 54.4772 38.2636 53.7675 38.2651C53.6261 38.2666 53.4857 38.2636 53.3481 38.2578C53.0171 38.245 52.6828 38.2155 52.3511 38.1691C52.0159 38.1213 51.6804 38.0531 51.3482 37.9662C49.7291 37.5389 48.1764 36.6062 47.0814 34.8962C47.0503 34.8471 47.0057 34.7937 46.9513 34.7351V34.7336C46.818 34.5914 46.6249 34.4361 46.3864 34.275C46.1417 34.1079 45.8535 33.9383 45.5357 33.7723C43.9757 32.9566 41.685 32.1961 40.1679 32.1991C38.7536 32.2021 37.2004 32.4789 37.0243 32.511C35.6565 33.1459 34.8819 33.7447 34.4325 34.392C33.9864 35.0366 33.8503 35.7495 33.7596 36.6087C33.6739 37.4347 33.7502 38.0749 33.8904 38.5131C33.9102 38.5733 33.9323 38.6329 33.9566 38.6915L33.957 38.6919ZM23.7163 39.1143C23.9391 39.1179 24.162 39.115 24.3846 39.1055C24.6164 39.0968 24.8478 39.0804 25.0785 39.0564C26.2806 38.9357 27.5893 38.6195 28.9386 38.0288L28.9586 38.0215L30.0936 37.5062C31.3725 36.917 32.5097 36.4103 33.3636 36.3936C33.4622 35.5493 33.6193 34.8283 34.0866 34.1547C34.4874 33.5762 35.1298 33.0406 36.1262 32.4986C35.3387 32.4935 34.1119 32.527 33.0411 32.7396C31.9127 32.9645 31.2641 33.3292 30.6619 33.6667C30.0463 34.0133 29.4739 34.3333 28.5227 34.4711C28.3954 34.6414 28.1166 34.8172 27.756 34.9892C27.4161 35.1505 26.9904 35.3156 26.5532 35.4724C23.8046 36.4564 22.6078 36.6307 21.714 36.7602L21.4316 36.8021L21.2846 36.8247C21.2974 36.9785 21.3193 37.1311 21.3632 37.2734C21.4146 37.4432 21.4875 37.6088 21.5764 37.7639C22.0271 38.5505 22.8879 39.0948 23.6764 39.1111L23.7163 39.1123V39.1143ZM28.2099 25.4116C28.3009 25.3625 28.3614 25.3091 28.4456 25.2578L28.3333 25.2693L25.7456 25.5061C25.6588 25.5103 25.5853 25.5103 25.503 25.5135V25.5163C25.4972 25.5163 25.4893 25.5142 25.4816 25.5142L25.1501 25.5236C23.1911 25.5278 21.5679 24.998 20.9679 24.7746C20.8993 25.2467 20.8965 25.6569 20.9899 26.0126C21.0945 26.4149 21.3285 26.7545 21.7335 27.0491C23.8365 26.8889 25.6806 26.4723 27.0806 25.9284C27.4999 25.766 27.8762 25.5919 28.2073 25.4114L28.2099 25.4116ZM66.5606 13.7881C66.4599 13.7943 66.3595 13.8055 66.2599 13.8216C66.1457 13.8387 66.0343 13.865 65.9278 13.897C65.8291 13.9276 65.7333 13.9669 65.6417 14.0145C65.2539 14.2192 65.0063 14.5914 65.0079 15.1977C65.0079 15.3295 65.0198 15.4632 65.0456 15.5908C65.0608 15.6707 65.0822 15.7493 65.1096 15.826C65.1362 15.9014 65.1675 15.9725 65.2035 16.0364C65.3492 16.2979 65.5828 16.4908 65.9102 16.5562L65.9183 16.5575H65.919C66.0384 16.5788 66.1993 16.5981 66.3893 16.6126C66.5908 16.6275 66.8136 16.6361 67.0483 16.6414C68.2907 16.6707 70.0011 16.6008 70.6633 16.5444C70.7741 16.5359 70.8711 16.4953 70.9579 16.4325C71.0505 16.3658 71.1321 16.2744 71.2022 16.1669C71.2764 16.0537 71.3376 15.926 71.3848 15.7969C71.4825 15.5299 71.5262 15.2539 71.5254 15.0652C71.5254 14.9464 71.5099 14.8227 71.481 14.6995C71.4308 14.4875 71.3389 14.2829 71.2106 14.113C71.0869 13.9507 70.929 13.8199 70.7434 13.7488C70.6336 13.7069 70.5168 13.6862 70.3993 13.6877L68.4424 13.7212L66.561 13.7881H66.5606ZM1.16036 17.5878C2.0025 17.6502 2.7 18.0437 3.17743 18.7351C3.44957 18.5464 3.97372 18.0194 3.70822 16.8627C3.40736 16.697 2.26607 16.1278 1.37722 16.4782H1.37636C0.728573 16.7346 0.466716 17.2845 0.365359 17.625C0.449545 17.611 0.534254 17.6003 0.619287 17.593C0.799307 17.5783 0.980187 17.5773 1.16036 17.59V17.5878ZM72.7796 17.3601C72.5546 17.2178 72.321 17.1016 72.0838 17.0146C71.8493 16.9275 71.6141 16.8694 71.3852 16.8433H71.3846C71.2999 16.8348 71.2191 16.8288 71.145 16.8273L71.1456 16.7952C71.0123 16.8803 70.8671 16.9476 70.6995 16.9619H70.6986C70.0339 17.0185 68.3044 17.0896 67.0391 17.0593C66.7851 17.0535 66.5543 17.0448 66.3598 17.03C66.1541 17.0159 65.9768 16.9954 65.8401 16.9694L65.8307 16.9676H65.8286C65.6092 16.9259 65.4029 16.8327 65.2268 16.6957L65.223 16.6963C65.106 16.7113 64.9873 16.7314 64.8701 16.7587C64.7489 16.7863 64.6295 16.8213 64.5126 16.8634C63.8998 17.077 63.3006 17.4688 62.8455 18.0027L62.844 18.0042C62.3593 18.5716 62.0608 19.2019 61.8846 20.0075C61.7031 20.8334 61.6472 21.8392 61.6511 23.1415C61.6526 24.0226 61.8568 24.9354 62.2939 25.8833C62.7345 26.8398 63.4108 27.8311 64.3519 28.8572C65.283 29.8734 65.9297 30.6602 66.3461 31.3858C66.7746 32.1305 66.9589 32.8094 66.9602 33.598C66.9623 34.6311 66.5059 35.4557 66.1898 35.9014C66.9356 35.8608 67.5323 35.6942 68.0076 35.4542C68.2169 35.3482 68.4145 35.2208 68.5974 35.074C69.4759 34.3643 69.7374 33.3756 69.7641 32.8372C69.8085 31.9429 69.7384 31.2059 69.5835 30.5598C69.4292 29.9153 69.1907 29.3607 68.8969 28.8326H68.8956C68.7885 28.6424 68.6764 28.4566 68.5583 28.2763C68.3706 27.9879 68.1812 27.7208 67.9986 27.4638H67.998C67.4177 26.6467 66.8944 25.9077 66.8929 25.2313H67.3142C67.3151 25.7729 67.8028 26.4608 68.3428 27.2215H68.3421L68.9121 28.0475C69.0373 28.2404 69.1575 28.4352 69.2657 28.6307H69.2651C69.5751 29.1898 69.8291 29.7792 69.9928 30.4626C70.1492 31.1172 70.2178 31.8656 70.1831 32.7475C70.3024 32.7206 70.4263 32.6983 70.5323 32.6545C70.7181 32.5789 70.8859 32.4787 71.0376 32.3612C71.1897 32.2412 71.3277 32.1044 71.4489 31.9534C72.0116 31.2554 72.2439 30.3015 72.2423 29.6818C72.2419 29.5694 72.2373 29.4571 72.2284 29.3451C72.0988 27.557 70.9988 25.9675 70.1333 24.7177C69.6105 23.9615 69.1691 23.3242 69.0495 22.8021L69.4613 22.7102C69.5627 23.1528 69.9821 23.7598 70.4805 24.4782C71.2532 25.5945 72.2038 26.9735 72.5385 28.5544C73.8488 27.5817 73.6517 25.8064 73.5317 24.8166V24.8137C73.3809 24.4883 72.819 23.3082 72.3274 22.735C72.2387 22.6318 72.1479 22.5363 72.0574 22.4419C71.5903 21.9526 71.1506 21.4925 70.836 19.8359L71.2508 19.7594C71.5423 21.2921 71.9404 21.7087 72.363 22.1515C72.4608 22.2519 72.5556 22.355 72.6476 22.4607C73.086 22.9717 73.5673 23.9134 73.8058 24.4086C74.1094 23.9775 74.3432 23.5508 74.5065 23.0687C74.7073 22.4795 74.8065 21.8082 74.805 20.9466C74.8013 19.3747 73.89 18.0578 72.7791 17.3597L72.7796 17.3601ZM3.00729 47.2745C3.00729 47.1147 2.97214 46.8772 2.93229 46.6561C2.91002 46.5323 2.88573 46.409 2.85943 46.286C2.24657 46.2655 -0.00235529 46.3294 1.85154e-06 48.4369C0.315645 48.2831 0.646288 48.1801 1.03157 48.1378C1.506 48.0872 2.05929 48.1321 2.76407 48.2917C2.84979 48.1912 3.00879 47.9186 3.00729 47.2741V47.2745ZM4.55486 53.7103L4.55272 53.7076H4.55186C4.51828 53.6531 4.48143 53.6007 4.4415 53.5507C4.40195 53.501 4.36019 53.453 4.31636 53.407L4.3155 53.4055C4.12264 53.2025 3.90879 53.0487 3.747 52.9816C3.49629 53.0863 2.65072 53.4708 2.32736 53.9996L2.32607 54.0009L2.32457 54.0039C2.27491 54.0868 2.23432 54.1748 2.2035 54.2664C2.17136 54.3626 2.14779 54.4638 2.13214 54.5713V54.5728C2.06464 55.033 2.14672 55.5598 2.33743 55.9969C2.65243 55.6672 3.34714 55.1637 4.69179 55.1071C4.70936 54.7486 4.72436 53.9821 4.55464 53.7105L4.55486 53.7103ZM29.3113 17.0648C29.2856 17.2238 29.2806 17.3964 29.3424 17.6344C29.4259 17.9519 29.622 18.387 29.9466 18.9803C30.1622 18.9444 30.2831 18.8917 30.3902 18.835C30.4146 18.8222 30.4431 18.8094 30.4686 18.7966L30.4847 18.5738C30.525 17.9816 30.5655 17.4735 30.744 17.0381C30.7076 17.0424 30.6677 17.0454 30.6321 17.0497C30.4341 17.0745 30.2301 17.101 29.8997 17.1022C29.688 17.1022 29.4941 17.0883 29.3115 17.0651L29.3113 17.0648ZM51.5357 21.1607C50.9357 20.6683 50.7799 19.9835 50.6087 19.2416C50.5309 18.9049 50.4493 18.555 50.3241 18.2161L50.3184 18.2016C50.0912 17.6006 49.8351 17.1535 49.4715 16.7457C49.104 16.3321 48.6186 15.9503 47.9364 15.4856C47.1122 14.9238 46.1685 14.6234 45.2989 14.5061C45.1284 14.4848 44.9604 14.467 44.7966 14.457C44.6938 14.4519 44.5991 14.4527 44.5024 14.4519L44.5416 15.1857C44.5781 16.1129 44.6151 17.058 44.9627 17.4774C45.1723 17.7286 45.4401 17.9188 45.7849 18.0493C46.1449 18.186 46.5894 18.2599 47.1392 18.2742L47.4062 18.2828L47.3372 18.5396C47.3357 18.5439 47.1064 19.3749 46.4094 20.0906C47.274 20.4196 48.0036 20.8244 48.6216 21.4254C49.2949 22.077 49.8538 22.9407 50.3818 24.1322C50.4722 24.3362 50.5721 24.509 50.6689 24.6897C53.8989 24.4605 54.3371 22.4006 54.3874 21.7099C53.1868 21.8302 52.401 21.8695 51.5359 21.1588L51.5357 21.1607ZM32.9578 32.3253C34.6421 31.9899 36.7048 32.0856 36.9396 32.0989C37.1531 32.06 38.7311 31.7814 40.1676 31.7784C41.7516 31.7741 44.1242 32.5578 45.7305 33.3999C46.0669 33.5757 46.3695 33.7524 46.6236 33.9255C46.7441 34.0064 46.8609 34.0926 46.9738 34.1837C46.5692 32.439 44.5834 30.6709 42.5252 29.6579C42.0585 29.4286 41.5866 29.2385 41.1298 29.096C40.677 28.955 40.2384 28.8638 39.8334 28.829C39.7133 28.8179 39.5928 28.812 39.4723 28.8114C37.8276 28.8157 35.433 29.1934 33.1515 29.7375L31.7651 30.093C31.3071 30.2191 30.8679 30.3488 30.4549 30.4793V30.4808L29.9706 30.6372C29.2811 30.8679 28.6635 31.0016 28.0056 31.0743C27.357 31.1452 26.6676 31.1569 25.8313 31.1469L23.9336 31.1394C24.018 31.6953 24.1971 32.1121 24.4401 32.4473C24.7183 32.8291 25.0858 33.1139 25.4936 33.3822L25.7811 33.5781C26.2569 33.9071 26.5665 34.1222 27.4626 34.1207C28.9959 34.1177 29.6912 33.7272 30.4547 33.2976C31.0858 32.9436 31.764 32.5618 32.9571 32.3255L32.9578 32.3253ZM49.9952 24.3041C49.4901 23.1633 48.9602 22.3417 48.3274 21.7277C47.7066 21.1259 46.9774 20.7204 46.0738 20.4016C45.5231 20.8283 44.7598 21.15 43.6916 21.0964C43.7938 21.5882 44.2761 22.6944 46.5566 22.5696L46.7987 22.5568L46.7784 22.7978C46.7784 22.8006 46.6641 24.1223 45.6426 25.0837C45.5174 25.1999 45.388 25.3116 45.2546 25.4185C45.3493 25.4313 45.4341 25.4163 45.5331 25.4407C45.8117 25.509 46.1023 25.6208 46.4014 25.7686C47.9079 26.5133 49.6249 28.203 50.2929 29.7939C50.4536 30.1772 50.6053 30.5054 50.757 30.7903C51.2149 30.8151 52.7756 30.8209 54.0928 29.8286C55.0303 29.1231 55.1927 28.1131 55.2178 27.6858C54.0945 27.7106 53.1114 27.5377 52.2581 27.05C51.348 26.5304 50.5965 25.6609 49.9952 24.3039V24.3041ZM34.3644 25.8705C34.3215 25.8763 34.2465 25.8961 34.1501 25.9314C34.0455 25.9677 33.9135 26.0216 33.7614 26.0882C32.9818 26.4279 31.7231 27.0823 30.6486 27.6691C29.9158 28.068 29.0449 28.3963 27.7412 28.6283C26.4546 28.8576 24.7361 28.9958 22.2947 29.0172H21.2507C21.2083 29.4508 21.1442 30.5254 21.5104 30.9519C21.6261 31.0869 21.723 31.2204 21.8169 31.3484C21.9825 31.5748 22.1398 31.7895 22.3547 31.9493L22.3569 31.9508C22.3989 31.9829 22.4526 32.0132 22.5141 32.0423C22.5789 32.0728 22.6569 32.1046 22.7434 32.1337C23.103 32.2559 23.5573 32.3255 23.8834 32.2869C23.6921 31.9188 23.5393 31.5024 23.4855 30.9495L23.4628 30.7188H23.6957C23.6979 30.7188 24.4633 30.7072 25.8369 30.726C26.6529 30.7378 27.3253 30.726 27.9604 30.6564C28.5889 30.587 29.1793 30.4592 29.8382 30.2385L30.3279 30.0789H30.3287C30.7581 29.9435 31.203 29.8115 31.6536 29.6884C32.1185 29.5612 32.5854 29.4416 33.0542 29.3297C35.3636 28.7785 37.7949 28.3965 39.4727 28.3918C39.6066 28.3918 39.7397 28.3976 39.8696 28.4079C40.3056 28.4455 40.7734 28.5442 41.2556 28.6937C41.4703 28.7606 41.6931 28.8721 41.9121 28.9586C41.6297 28.51 41.0329 28.1932 41.0306 28.1895L40.9689 28.1545L40.9389 28.0878C40.3131 26.6452 38.9792 26.2078 38.1718 25.9451C37.9179 25.8622 37.7248 25.7904 37.5825 25.7062L36.1671 25.7752L34.3684 25.8682V25.8667L34.3648 25.8682L34.3644 25.8705ZM6.1965 42.0389C6.50293 42.055 7.4715 42.0172 7.71429 40.8966C7.37786 40.5352 5.79172 39.0124 4.07679 40.3843C4.6185 40.5873 5.02757 40.827 5.35393 41.091C5.71822 41.3859 5.97472 41.7063 6.19607 42.0389H6.1965ZM53.4422 32.8462C53.2783 32.8359 53.1225 32.8227 52.9798 32.8071C52.8371 32.7915 52.6995 32.7695 52.5731 32.7447H52.5709L52.5019 32.7302L52.4998 32.7287C51.8366 32.5791 51.3628 32.3063 50.9599 31.8491C50.5699 31.4063 50.2571 30.797 49.9035 29.9563V29.9548C49.2729 28.4525 47.6449 26.8528 46.2161 26.1463C45.9431 26.0109 45.6795 25.9096 45.4329 25.8487C45.1963 25.7906 44.9771 25.7686 44.7864 25.7932L44.7799 25.7947L44.7714 25.728C44.6706 25.7823 44.5888 25.847 44.4707 25.8936C44.076 26.0474 43.5741 26.1435 42.8657 26.1576C43.6543 26.8513 45.0579 28.4205 44.6151 30.4613C46.1916 31.6534 47.4186 33.2076 47.4688 34.7174C47.6173 34.9454 47.7917 35.1272 47.9574 35.3263C49.1824 35.6826 50.3216 35.9148 51.3285 35.9133C52.3243 35.9121 53.1934 35.6826 53.8931 35.1165C54.9167 34.2876 55.2231 33.2758 55.3142 32.7985C54.8288 32.8669 54.0913 32.8857 53.4435 32.8464L53.4422 32.8462ZM11.6278 38.6567C11.8271 38.7686 12.0521 38.8628 12.3045 38.9354C12.561 39.0081 12.8449 39.0572 13.1584 39.0792C13.2778 39.0865 13.3974 39.0908 13.5163 39.0908C14.3979 39.0895 15.342 38.8267 16.3577 38.3943C17.2952 37.9931 18.3004 37.4359 19.3626 36.8121C17.9059 35.9747 17.7036 34.8268 17.7227 34.2331C17.0449 34.5074 16.3787 34.8484 15.7931 35.162C15.2194 35.4696 14.7161 35.7382 14.3246 35.8674V35.8659L14.3216 35.8674C12.7052 36.3998 10.8341 36.619 10.1811 36.6831C10.3515 37.3507 10.7554 38.1696 11.6276 38.6571L11.6278 38.6567ZM5.26243 25.333C4.77107 25.7163 3.90557 25.8799 3.11443 25.8949C2.95903 25.8982 2.80357 25.8957 2.64836 25.8874L2.58793 25.8846C3.58329 27.7556 5.49107 27.307 5.98993 27.1519C6.11357 25.6507 5.4825 25.3787 5.26264 25.333H5.26243ZM15.6795 32.0796C15.1609 32.5005 14.6066 32.759 14.0649 32.9171C13.5291 33.0767 13.008 33.1378 12.5486 33.1649C12.0309 33.197 11.2864 33.1912 10.9101 33.1854C10.9761 33.7195 11.328 35.115 13.1426 35.7587C13.4949 35.6732 13.8482 35.5796 14.1904 35.4668H14.1926V35.4656C14.5521 35.3481 15.0384 35.0881 15.594 34.7909C16.254 34.4373 17.0115 34.0389 17.7904 33.7441L17.8131 33.6544L17.9203 33.6732C18.1255 33.5227 18.3399 33.385 18.5623 33.2611C18.843 33.1012 19.1651 32.9372 19.4998 32.7804C19.8341 32.6251 20.1791 32.4785 20.5059 32.3522C20.9794 32.1717 21.42 32.0335 21.7652 31.9656C21.6632 31.8481 21.5717 31.7231 21.4781 31.5947C21.3876 31.4714 21.2944 31.3447 21.192 31.2245H21.1911C21.1219 31.1439 21.0669 31.0461 21.0189 30.9407C19.9502 31.0918 19.2373 30.8126 18.7716 30.3434C18.7003 30.3633 18.6302 30.3819 18.5372 30.4176C18.4033 30.4697 18.2539 30.5351 18.0951 30.6105C17.2652 31.0078 16.1758 31.6786 15.6806 32.0794L15.6795 32.0796ZM21.8081 32.8765C22.0832 32.744 22.3404 32.6227 22.5795 32.521C22.4929 32.4905 22.4087 32.4569 22.3322 32.4206C22.2594 32.386 22.1998 32.3488 22.1445 32.3116V32.3364C21.8503 32.3379 21.2852 32.5035 20.6574 32.7445C20.326 32.8727 19.9992 33.0121 19.6774 33.1626C19.3685 33.3051 19.0654 33.46 18.7689 33.6268C18.6939 33.6691 18.6306 33.7097 18.5621 33.7516C18.7157 33.764 18.8788 33.7742 19.0446 33.7733C19.9562 33.7721 20.9604 33.2871 21.8081 32.8761V32.8765ZM19.8206 36.6023C19.9277 36.5923 20.2757 36.5532 21.366 36.3844V36.3829L21.6521 36.341H21.6536C22.53 36.215 23.7043 36.0435 26.4107 35.0753C26.8277 34.9242 27.2391 34.7646 27.5732 34.6048C27.6279 34.5792 27.6636 34.5557 27.7125 34.5309C27.6289 34.5337 27.5518 34.5395 27.4626 34.5395C26.4326 34.5424 26.0805 34.2985 25.5396 33.9227L25.2611 33.7325C24.8169 33.4394 24.4125 33.1258 24.0992 32.6936C24.0949 32.6876 24.0928 32.6791 24.0885 32.6731C23.9327 32.7082 23.7534 32.7206 23.5577 32.7094L23.5571 32.7137C23.5335 32.7079 23.5029 32.7094 23.4739 32.7079C23.4624 32.7071 23.4516 32.7071 23.4396 32.7058C23.4345 32.7065 23.4311 32.705 23.4251 32.705H23.4242C23.0946 32.7225 22.5808 32.9705 21.9917 33.2553C21.105 33.6834 20.0554 34.1914 19.0449 34.1944C18.7131 34.1944 18.3634 34.1594 18.1466 34.132C18.1041 34.5907 18.1684 35.8012 19.8208 36.6023H19.8206Z" fill="#221F20"/>
</g>
<path d="M97.394 27V12.3H98.675L108.818 25.068H108.146V12.3H109.679V27H108.398L98.276 14.232H98.948V27H97.394ZM111.915 27L118.635 12.3H120.168L126.888 27H125.25L119.076 13.203H119.706L113.532 27H111.915ZM114.561 23.073L115.023 21.813H123.57L124.032 23.073H114.561ZM131.227 27V13.644H126.061V12.3H137.947V13.644H132.781V27H131.227ZM140.22 27V12.3H141.774V27H140.22ZM152.773 27.126C151.667 27.126 150.638 26.944 149.686 26.58C148.748 26.202 147.929 25.677 147.229 25.005C146.543 24.319 146.004 23.528 145.612 22.632C145.234 21.722 145.045 20.728 145.045 19.65C145.045 18.572 145.234 17.585 145.612 16.689C146.004 15.779 146.543 14.988 147.229 14.316C147.929 13.63 148.748 13.105 149.686 12.741C150.624 12.363 151.653 12.174 152.773 12.174C153.879 12.174 154.901 12.363 155.839 12.741C156.777 13.105 157.589 13.623 158.275 14.295C158.975 14.967 159.514 15.758 159.892 16.668C160.284 17.578 160.48 18.572 160.48 19.65C160.48 20.728 160.284 21.722 159.892 22.632C159.514 23.542 158.975 24.333 158.275 25.005C157.589 25.677 156.777 26.202 155.839 26.58C154.901 26.944 153.879 27.126 152.773 27.126ZM152.773 25.74C153.655 25.74 154.467 25.593 155.209 25.299C155.965 24.991 156.616 24.564 157.162 24.018C157.722 23.458 158.156 22.814 158.464 22.086C158.772 21.344 158.926 20.532 158.926 19.65C158.926 18.768 158.772 17.963 158.464 17.235C158.156 16.493 157.722 15.849 157.162 15.303C156.616 14.743 155.965 14.316 155.209 14.022C154.467 13.714 153.655 13.56 152.773 13.56C151.891 13.56 151.072 13.714 150.316 14.022C149.56 14.316 148.902 14.743 148.342 15.303C147.796 15.849 147.362 16.493 147.04 17.235C146.732 17.963 146.578 18.768 146.578 19.65C146.578 20.518 146.732 21.323 147.04 22.065C147.362 22.807 147.796 23.458 148.342 24.018C148.902 24.564 149.56 24.991 150.316 25.299C151.072 25.593 151.891 25.74 152.773 25.74ZM163.753 27V12.3H165.034L175.177 25.068H174.505V12.3H176.038V27H174.757L164.635 14.232H165.307V27H163.753ZM178.274 27L184.994 12.3H186.527L193.247 27H191.609L185.435 13.203H186.065L179.891 27H178.274ZM180.92 23.073L181.382 21.813H189.929L190.391 23.073H180.92ZM195.469 27V12.3H197.023V25.656H205.255V27H195.469ZM96.974 49V34.3H99.704V49H96.974ZM103.47 49V34.3H105.717L114.936 45.619H113.823V34.3H116.532V49H114.285L105.066 37.681H106.179V49H103.47ZM120.261 49V34.3H122.508L131.727 45.619H130.614V34.3H133.323V49H131.076L121.857 37.681H122.97V49H120.261ZM143.94 49.21C142.792 49.21 141.735 49.021 140.769 48.643C139.803 48.265 138.963 47.74 138.249 47.068C137.535 46.382 136.982 45.584 136.59 44.674C136.198 43.75 136.002 42.742 136.002 41.65C136.002 40.558 136.198 39.557 136.59 38.647C136.982 37.723 137.535 36.925 138.249 36.253C138.963 35.567 139.803 35.035 140.769 34.657C141.735 34.279 142.785 34.09 143.919 34.09C145.067 34.09 146.117 34.279 147.069 34.657C148.035 35.035 148.875 35.567 149.589 36.253C150.303 36.925 150.856 37.723 151.248 38.647C151.64 39.557 151.836 40.558 151.836 41.65C151.836 42.742 151.64 43.75 151.248 44.674C150.856 45.598 150.303 46.396 149.589 47.068C148.875 47.74 148.035 48.265 147.069 48.643C146.117 49.021 145.074 49.21 143.94 49.21ZM143.919 46.816C144.661 46.816 145.347 46.69 145.977 46.438C146.607 46.186 147.153 45.829 147.615 45.367C148.077 44.891 148.434 44.345 148.686 43.729C148.952 43.099 149.085 42.406 149.085 41.65C149.085 40.894 148.952 40.208 148.686 39.592C148.434 38.962 148.077 38.416 147.615 37.954C147.153 37.478 146.607 37.114 145.977 36.862C145.347 36.61 144.661 36.484 143.919 36.484C143.177 36.484 142.491 36.61 141.861 36.862C141.245 37.114 140.699 37.478 140.223 37.954C139.761 38.416 139.397 38.962 139.131 39.592C138.879 40.208 138.753 40.894 138.753 41.65C138.753 42.392 138.879 43.078 139.131 43.708C139.397 44.338 139.761 44.891 140.223 45.367C140.685 45.829 141.231 46.186 141.861 46.438C142.491 46.69 143.177 46.816 143.919 46.816ZM158.395 49L151.969 34.3H154.93L160.663 47.593H158.962L164.758 34.3H167.488L161.083 49H158.395ZM166.279 49L172.894 34.3H175.582L182.218 49H179.362L173.671 35.749H174.763L169.093 49H166.279ZM169.324 45.598L170.059 43.456H177.997L178.732 45.598H169.324ZM186.121 49V36.61H181.249V34.3H193.723V36.61H188.851V49H186.121ZM195.562 49V34.3H198.292V49H195.562ZM208.946 49.21C207.798 49.21 206.741 49.021 205.775 48.643C204.809 48.265 203.969 47.74 203.255 47.068C202.541 46.382 201.988 45.584 201.596 44.674C201.204 43.75 201.008 42.742 201.008 41.65C201.008 40.558 201.204 39.557 201.596 38.647C201.988 37.723 202.541 36.925 203.255 36.253C203.969 35.567 204.809 35.035 205.775 34.657C206.741 34.279 207.791 34.09 208.925 34.09C210.073 34.09 211.123 34.279 212.075 34.657C213.041 35.035 213.881 35.567 214.595 36.253C215.309 36.925 215.862 37.723 216.254 38.647C216.646 39.557 216.842 40.558 216.842 41.65C216.842 42.742 216.646 43.75 216.254 44.674C215.862 45.598 215.309 46.396 214.595 47.068C213.881 47.74 213.041 48.265 212.075 48.643C211.123 49.021 210.08 49.21 208.946 49.21ZM208.925 46.816C209.667 46.816 210.353 46.69 210.983 46.438C211.613 46.186 212.159 45.829 212.621 45.367C213.083 44.891 213.44 44.345 213.692 43.729C213.958 43.099 214.091 42.406 214.091 41.65C214.091 40.894 213.958 40.208 213.692 39.592C213.44 38.962 213.083 38.416 212.621 37.954C212.159 37.478 211.613 37.114 210.983 36.862C210.353 36.61 209.667 36.484 208.925 36.484C208.183 36.484 207.497 36.61 206.867 36.862C206.251 37.114 205.705 37.478 205.229 37.954C204.767 38.416 204.403 38.962 204.137 39.592C203.885 40.208 203.759 40.894 203.759 41.65C203.759 42.392 203.885 43.078 204.137 43.708C204.403 44.338 204.767 44.891 205.229 45.367C205.691 45.829 206.237 46.186 206.867 46.438C207.497 46.69 208.183 46.816 208.925 46.816ZM219.525 49V34.3H221.772L230.991 45.619H229.878V34.3H232.587V49H230.34L221.121 37.681H222.234V49H219.525ZM241.91 49V34.3H252.641V36.589H244.64V49H241.91ZM244.409 43.372V41.062H251.738V43.372H244.409ZM261.392 49.21C259.376 49.21 257.794 48.643 256.646 47.509C255.512 46.375 254.945 44.737 254.945 42.595V34.3H257.675V42.49C257.675 44.002 257.997 45.101 258.641 45.787C259.299 46.473 260.223 46.816 261.413 46.816C262.603 46.816 263.52 46.473 264.164 45.787C264.808 45.101 265.13 44.002 265.13 42.49V34.3H267.818V42.595C267.818 44.737 267.244 46.375 266.096 47.509C264.962 48.643 263.394 49.21 261.392 49.21ZM271.432 49V34.3H273.679L282.898 45.619H281.785V34.3H284.494V49H282.247L273.028 37.681H274.141V49H271.432ZM288.222 49V34.3H294.648C296.244 34.3 297.644 34.608 298.848 35.224C300.052 35.84 300.99 36.694 301.662 37.786C302.334 38.878 302.67 40.166 302.67 41.65C302.67 43.12 302.334 44.408 301.662 45.514C300.99 46.606 300.052 47.46 298.848 48.076C297.644 48.692 296.244 49 294.648 49H288.222ZM290.952 46.69H294.522C295.614 46.69 296.566 46.48 297.378 46.06C298.19 45.64 298.813 45.052 299.247 44.296C299.695 43.54 299.919 42.658 299.919 41.65C299.919 40.628 299.695 39.746 299.247 39.004C298.813 38.248 298.19 37.66 297.378 37.24C296.566 36.82 295.614 36.61 294.522 36.61H290.952V46.69Z" fill="black"/>
<path d="M96.128 68V59.6H97.412L101.084 65.732H100.412L104.024 59.6H105.308L105.32 68H103.844L103.832 61.916H104.144L101.072 67.04H100.376L97.256 61.916H97.616V68H96.128ZM107.589 68V59.6H109.149V68H107.589ZM111.421 68V59.6H112.705L117.973 66.068H117.337V59.6H118.885V68H117.601L112.333 61.532H112.969V68H111.421ZM121.136 68V59.6H122.696V68H121.136ZM127.572 68.12C126.916 68.12 126.288 68.028 125.688 67.844C125.088 67.652 124.612 67.408 124.26 67.112L124.8 65.9C125.136 66.164 125.552 66.384 126.048 66.56C126.544 66.736 127.052 66.824 127.572 66.824C128.012 66.824 128.368 66.776 128.64 66.68C128.912 66.584 129.112 66.456 129.24 66.296C129.368 66.128 129.432 65.94 129.432 65.732C129.432 65.476 129.34 65.272 129.156 65.12C128.972 64.96 128.732 64.836 128.436 64.748C128.148 64.652 127.824 64.564 127.464 64.484C127.112 64.404 126.756 64.312 126.396 64.208C126.044 64.096 125.72 63.956 125.424 63.788C125.136 63.612 124.9 63.38 124.716 63.092C124.532 62.804 124.44 62.436 124.44 61.988C124.44 61.532 124.56 61.116 124.8 60.74C125.048 60.356 125.42 60.052 125.916 59.828C126.42 59.596 127.056 59.48 127.824 59.48C128.328 59.48 128.828 59.544 129.324 59.672C129.82 59.8 130.252 59.984 130.62 60.224L130.128 61.436C129.752 61.212 129.364 61.048 128.964 60.944C128.564 60.832 128.18 60.776 127.812 60.776C127.38 60.776 127.028 60.828 126.756 60.932C126.492 61.036 126.296 61.172 126.168 61.34C126.048 61.508 125.988 61.7 125.988 61.916C125.988 62.172 126.076 62.38 126.252 62.54C126.436 62.692 126.672 62.812 126.96 62.9C127.256 62.988 127.584 63.076 127.944 63.164C128.304 63.244 128.66 63.336 129.012 63.44C129.372 63.544 129.696 63.68 129.984 63.848C130.28 64.016 130.516 64.244 130.692 64.532C130.876 64.82 130.968 65.184 130.968 65.624C130.968 66.072 130.844 66.488 130.596 66.872C130.356 67.248 129.984 67.552 129.48 67.784C128.976 68.008 128.34 68.12 127.572 68.12ZM134.102 68V60.92H131.318V59.6H138.446V60.92H135.662V68H134.102ZM139.616 68V59.6H143.06C144.18 59.6 145.056 59.864 145.688 60.392C146.328 60.92 146.648 61.652 146.648 62.588C146.648 63.204 146.504 63.736 146.216 64.184C145.928 64.624 145.516 64.964 144.98 65.204C144.452 65.436 143.816 65.552 143.072 65.552H140.48L141.176 64.844V68H139.616ZM145.112 68L142.988 64.952H144.656L146.792 68H145.112ZM141.176 65.012L140.48 64.268H143C143.688 64.268 144.204 64.12 144.548 63.824C144.9 63.528 145.076 63.116 145.076 62.588C145.076 62.052 144.9 61.64 144.548 61.352C144.204 61.064 143.688 60.92 143 60.92H140.48L141.176 60.152V65.012ZM150.34 68V64.676L150.688 65.636L147.04 59.6H148.708L151.636 64.46H150.7L153.652 59.6H155.188L151.54 65.636L151.9 64.676V68H150.34ZM163.462 68.12C162.806 68.12 162.202 68.012 161.65 67.796C161.098 67.58 160.618 67.28 160.21 66.896C159.802 66.504 159.486 66.048 159.262 65.528C159.038 65 158.926 64.424 158.926 63.8C158.926 63.176 159.038 62.604 159.262 62.084C159.486 61.556 159.802 61.1 160.21 60.716C160.618 60.324 161.098 60.02 161.65 59.804C162.202 59.588 162.802 59.48 163.45 59.48C164.106 59.48 164.706 59.588 165.25 59.804C165.802 60.02 166.282 60.324 166.69 60.716C167.098 61.1 167.414 61.556 167.638 62.084C167.862 62.604 167.974 63.176 167.974 63.8C167.974 64.424 167.862 65 167.638 65.528C167.414 66.056 167.098 66.512 166.69 66.896C166.282 67.28 165.802 67.58 165.25 67.796C164.706 68.012 164.11 68.12 163.462 68.12ZM163.45 66.752C163.874 66.752 164.266 66.68 164.626 66.536C164.986 66.392 165.298 66.188 165.562 65.924C165.826 65.652 166.03 65.34 166.174 64.988C166.326 64.628 166.402 64.232 166.402 63.8C166.402 63.368 166.326 62.976 166.174 62.624C166.03 62.264 165.826 61.952 165.562 61.688C165.298 61.416 164.986 61.208 164.626 61.064C164.266 60.92 163.874 60.848 163.45 60.848C163.026 60.848 162.634 60.92 162.274 61.064C161.922 61.208 161.61 61.416 161.338 61.688C161.074 61.952 160.866 62.264 160.714 62.624C160.57 62.976 160.498 63.368 160.498 63.8C160.498 64.224 160.57 64.616 160.714 64.976C160.866 65.336 161.074 65.652 161.338 65.924C161.602 66.188 161.914 66.392 162.274 66.536C162.634 66.68 163.026 66.752 163.45 66.752ZM169.628 68V59.6H175.76V60.908H171.188V68H169.628ZM171.056 64.784V63.464H175.244V64.784H171.056ZM180.585 68V59.6H182.145V68H180.585ZM184.417 68V59.6H185.701L190.969 66.068H190.333V59.6H191.881V68H190.597L185.329 61.532H185.965V68H184.417ZM194.132 68V59.6H195.416L200.684 66.068H200.048V59.6H201.596V68H200.312L195.044 61.532H195.68V68H194.132ZM207.783 68.12C207.127 68.12 206.523 68.012 205.971 67.796C205.419 67.58 204.939 67.28 204.531 66.896C204.123 66.504 203.807 66.048 203.583 65.528C203.359 65 203.247 64.424 203.247 63.8C203.247 63.176 203.359 62.604 203.583 62.084C203.807 61.556 204.123 61.1 204.531 60.716C204.939 60.324 205.419 60.02 205.971 59.804C206.523 59.588 207.123 59.48 207.771 59.48C208.427 59.48 209.027 59.588 209.571 59.804C210.123 60.02 210.603 60.324 211.011 60.716C211.419 61.1 211.735 61.556 211.959 62.084C212.183 62.604 212.295 63.176 212.295 63.8C212.295 64.424 212.183 65 211.959 65.528C211.735 66.056 211.419 66.512 211.011 66.896C210.603 67.28 210.123 67.58 209.571 67.796C209.027 68.012 208.431 68.12 207.783 68.12ZM207.771 66.752C208.195 66.752 208.587 66.68 208.947 66.536C209.307 66.392 209.619 66.188 209.883 65.924C210.147 65.652 210.351 65.34 210.495 64.988C210.647 64.628 210.723 64.232 210.723 63.8C210.723 63.368 210.647 62.976 210.495 62.624C210.351 62.264 210.147 61.952 209.883 61.688C209.619 61.416 209.307 61.208 208.947 61.064C208.587 60.92 208.195 60.848 207.771 60.848C207.347 60.848 206.955 60.92 206.595 61.064C206.243 61.208 205.931 61.416 205.659 61.688C205.395 61.952 205.187 62.264 205.035 62.624C204.891 62.976 204.819 63.368 204.819 63.8C204.819 64.224 204.891 64.616 205.035 64.976C205.187 65.336 205.395 65.652 205.659 65.924C205.923 66.188 206.235 66.392 206.595 66.536C206.955 66.68 207.347 66.752 207.771 66.752ZM216.163 68L212.491 59.6H214.183L217.459 67.196H216.487L219.799 59.6H221.359L217.699 68H216.163ZM220.788 68L224.568 59.6H226.104L229.896 68H228.264L225.012 60.428H225.636L222.396 68H220.788ZM222.528 66.056L222.948 64.832H227.484L227.904 66.056H222.528ZM232.246 68V60.92H229.462V59.6H236.59V60.92H233.806V68H232.246ZM237.761 68V59.6H239.321V68H237.761ZM245.529 68.12C244.873 68.12 244.269 68.012 243.717 67.796C243.165 67.58 242.685 67.28 242.277 66.896C241.869 66.504 241.553 66.048 241.329 65.528C241.105 65 240.993 64.424 240.993 63.8C240.993 63.176 241.105 62.604 241.329 62.084C241.553 61.556 241.869 61.1 242.277 60.716C242.685 60.324 243.165 60.02 243.717 59.804C244.269 59.588 244.869 59.48 245.517 59.48C246.173 59.48 246.773 59.588 247.317 59.804C247.869 60.02 248.349 60.324 248.757 60.716C249.165 61.1 249.481 61.556 249.705 62.084C249.929 62.604 250.041 63.176 250.041 63.8C250.041 64.424 249.929 65 249.705 65.528C249.481 66.056 249.165 66.512 248.757 66.896C248.349 67.28 247.869 67.58 247.317 67.796C246.773 68.012 246.177 68.12 245.529 68.12ZM245.517 66.752C245.941 66.752 246.333 66.68 246.693 66.536C247.053 66.392 247.365 66.188 247.629 65.924C247.893 65.652 248.097 65.34 248.241 64.988C248.393 64.628 248.469 64.232 248.469 63.8C248.469 63.368 248.393 62.976 248.241 62.624C248.097 62.264 247.893 61.952 247.629 61.688C247.365 61.416 247.053 61.208 246.693 61.064C246.333 60.92 245.941 60.848 245.517 60.848C245.093 60.848 244.701 60.92 244.341 61.064C243.989 61.208 243.677 61.416 243.405 61.688C243.141 61.952 242.933 62.264 242.781 62.624C242.637 62.976 242.565 63.368 242.565 63.8C242.565 64.224 242.637 64.616 242.781 64.976C242.933 65.336 243.141 65.652 243.405 65.924C243.669 66.188 243.981 66.392 244.341 66.536C244.701 66.68 245.093 66.752 245.517 66.752ZM251.694 68V59.6H252.978L258.246 66.068H257.61V59.6H259.158V68H257.874L252.606 61.532H253.242V68H251.694ZM263.538 68L267.318 59.6H268.854L272.646 68H271.014L267.762 60.428H268.386L265.146 68H263.538ZM265.278 66.056L265.698 64.832H270.234L270.654 66.056H265.278ZM273.714 68V59.6H274.998L280.266 66.068H279.63V59.6H281.178V68H279.894L274.626 61.532H275.262V68H273.714ZM283.429 68V59.6H287.101C288.013 59.6 288.813 59.776 289.501 60.128C290.189 60.48 290.725 60.968 291.109 61.592C291.493 62.216 291.685 62.952 291.685 63.8C291.685 64.64 291.493 65.376 291.109 66.008C290.725 66.632 290.189 67.12 289.501 67.472C288.813 67.824 288.013 68 287.101 68H283.429ZM284.989 66.68H287.029C287.653 66.68 288.197 66.56 288.661 66.32C289.125 66.08 289.481 65.744 289.729 65.312C289.985 64.88 290.113 64.376 290.113 63.8C290.113 63.216 289.985 62.712 289.729 62.288C289.481 61.856 289.125 61.52 288.661 61.28C288.197 61.04 287.653 60.92 287.029 60.92H284.989V66.68ZM96.128 83V74.6H99.8C100.712 74.6 101.512 74.776 102.2 75.128C102.888 75.48 103.424 75.968 103.808 76.592C104.192 77.216 104.384 77.952 104.384 78.8C104.384 79.64 104.192 80.376 103.808 81.008C103.424 81.632 102.888 82.12 102.2 82.472C101.512 82.824 100.712 83 99.8 83H96.128ZM97.688 81.68H99.728C100.352 81.68 100.896 81.56 101.36 81.32C101.824 81.08 102.18 80.744 102.428 80.312C102.684 79.88 102.812 79.376 102.812 78.8C102.812 78.216 102.684 77.712 102.428 77.288C102.18 76.856 101.824 76.52 101.36 76.28C100.896 76.04 100.352 75.92 99.728 75.92H97.688V81.68ZM106.042 83V74.6H107.602V83H106.042ZM113.798 83.12C113.142 83.12 112.538 83.016 111.986 82.808C111.442 82.592 110.966 82.292 110.558 81.908C110.15 81.516 109.834 81.056 109.61 80.528C109.386 80 109.274 79.424 109.274 78.8C109.274 78.176 109.386 77.6 109.61 77.072C109.834 76.544 110.15 76.088 110.558 75.704C110.974 75.312 111.458 75.012 112.01 74.804C112.562 74.588 113.166 74.48 113.822 74.48C114.534 74.48 115.174 74.596 115.742 74.828C116.318 75.06 116.802 75.4 117.194 75.848L116.21 76.808C115.882 76.48 115.526 76.24 115.142 76.088C114.766 75.928 114.35 75.848 113.894 75.848C113.454 75.848 113.046 75.92 112.67 76.064C112.294 76.208 111.97 76.412 111.698 76.676C111.426 76.94 111.214 77.252 111.062 77.612C110.918 77.972 110.846 78.368 110.846 78.8C110.846 79.224 110.918 79.616 111.062 79.976C111.214 80.336 111.426 80.652 111.698 80.924C111.97 81.188 112.29 81.392 112.658 81.536C113.026 81.68 113.434 81.752 113.882 81.752C114.298 81.752 114.698 81.688 115.082 81.56C115.474 81.424 115.846 81.2 116.198 80.888L117.086 82.052C116.646 82.404 116.134 82.672 115.55 82.856C114.974 83.032 114.39 83.12 113.798 83.12ZM117.086 82.052L115.61 81.848V78.704H117.086V82.052ZM119.144 83V74.6H120.704V83H119.144ZM124.68 83V75.92H121.896V74.6H129.024V75.92H126.24V83H124.68ZM128.585 83L132.365 74.6H133.901L137.693 83H136.061L132.809 75.428H133.433L130.193 83H128.585ZM130.325 81.056L130.745 79.832H135.281L135.701 81.056H130.325ZM138.761 83V74.6H140.321V81.68H144.713V83H138.761ZM150.965 83V75.92H148.181V74.6H155.309V75.92H152.525V83H150.965ZM156.48 83V74.6H159.924C161.044 74.6 161.92 74.864 162.552 75.392C163.192 75.92 163.512 76.652 163.512 77.588C163.512 78.204 163.368 78.736 163.08 79.184C162.792 79.624 162.38 79.964 161.844 80.204C161.316 80.436 160.68 80.552 159.936 80.552H157.344L158.04 79.844V83H156.48ZM161.976 83L159.852 79.952H161.52L163.656 83H161.976ZM158.04 80.012L157.344 79.268H159.864C160.552 79.268 161.068 79.12 161.412 78.824C161.764 78.528 161.94 78.116 161.94 77.588C161.94 77.052 161.764 76.64 161.412 76.352C161.068 76.064 160.552 75.92 159.864 75.92H157.344L158.04 75.152V80.012ZM164.069 83L167.849 74.6H169.385L173.177 83H171.545L168.293 75.428H168.917L165.677 83H164.069ZM165.809 81.056L166.229 79.832H170.765L171.185 81.056H165.809ZM174.245 83V74.6H175.529L180.797 81.068H180.161V74.6H181.709V83H180.425L175.157 76.532H175.793V83H174.245ZM186.564 83.12C185.908 83.12 185.28 83.028 184.68 82.844C184.08 82.652 183.604 82.408 183.252 82.112L183.792 80.9C184.128 81.164 184.544 81.384 185.04 81.56C185.536 81.736 186.044 81.824 186.564 81.824C187.004 81.824 187.36 81.776 187.632 81.68C187.904 81.584 188.104 81.456 188.232 81.296C188.36 81.128 188.424 80.94 188.424 80.732C188.424 80.476 188.332 80.272 188.148 80.12C187.964 79.96 187.724 79.836 187.428 79.748C187.14 79.652 186.816 79.564 186.456 79.484C186.104 79.404 185.748 79.312 185.388 79.208C185.036 79.096 184.712 78.956 184.416 78.788C184.128 78.612 183.892 78.38 183.708 78.092C183.524 77.804 183.432 77.436 183.432 76.988C183.432 76.532 183.552 76.116 183.792 75.74C184.04 75.356 184.412 75.052 184.908 74.828C185.412 74.596 186.048 74.48 186.816 74.48C187.32 74.48 187.82 74.544 188.316 74.672C188.812 74.8 189.244 74.984 189.612 75.224L189.12 76.436C188.744 76.212 188.356 76.048 187.956 75.944C187.556 75.832 187.172 75.776 186.804 75.776C186.372 75.776 186.02 75.828 185.748 75.932C185.484 76.036 185.288 76.172 185.16 76.34C185.04 76.508 184.98 76.7 184.98 76.916C184.98 77.172 185.068 77.38 185.244 77.54C185.428 77.692 185.664 77.812 185.952 77.9C186.248 77.988 186.576 78.076 186.936 78.164C187.296 78.244 187.652 78.336 188.004 78.44C188.364 78.544 188.688 78.68 188.976 78.848C189.272 79.016 189.508 79.244 189.684 79.532C189.868 79.82 189.96 80.184 189.96 80.624C189.96 81.072 189.836 81.488 189.588 81.872C189.348 82.248 188.976 82.552 188.472 82.784C187.968 83.008 187.332 83.12 186.564 83.12ZM191.507 83V74.6H197.639V75.908H193.067V83H191.507ZM192.935 79.784V78.464H197.123V79.784H192.935ZM202.99 83.12C202.334 83.12 201.73 83.012 201.178 82.796C200.626 82.58 200.146 82.28 199.738 81.896C199.33 81.504 199.014 81.048 198.79 80.528C198.566 80 198.454 79.424 198.454 78.8C198.454 78.176 198.566 77.604 198.79 77.084C199.014 76.556 199.33 76.1 199.738 75.716C200.146 75.324 200.626 75.02 201.178 74.804C201.73 74.588 202.33 74.48 202.978 74.48C203.634 74.48 204.234 74.588 204.778 74.804C205.33 75.02 205.81 75.324 206.218 75.716C206.626 76.1 206.942 76.556 207.166 77.084C207.39 77.604 207.502 78.176 207.502 78.8C207.502 79.424 207.39 80 207.166 80.528C206.942 81.056 206.626 81.512 206.218 81.896C205.81 82.28 205.33 82.58 204.778 82.796C204.234 83.012 203.638 83.12 202.99 83.12ZM202.978 81.752C203.402 81.752 203.794 81.68 204.154 81.536C204.514 81.392 204.826 81.188 205.09 80.924C205.354 80.652 205.558 80.34 205.702 79.988C205.854 79.628 205.93 79.232 205.93 78.8C205.93 78.368 205.854 77.976 205.702 77.624C205.558 77.264 205.354 76.952 205.09 76.688C204.826 76.416 204.514 76.208 204.154 76.064C203.794 75.92 203.402 75.848 202.978 75.848C202.554 75.848 202.162 75.92 201.802 76.064C201.45 76.208 201.138 76.416 200.866 76.688C200.602 76.952 200.394 77.264 200.242 77.624C200.098 77.976 200.026 78.368 200.026 78.8C200.026 79.224 200.098 79.616 200.242 79.976C200.394 80.336 200.602 80.652 200.866 80.924C201.13 81.188 201.442 81.392 201.802 81.536C202.162 81.68 202.554 81.752 202.978 81.752ZM209.155 83V74.6H212.599C213.719 74.6 214.595 74.864 215.227 75.392C215.867 75.92 216.187 76.652 216.187 77.588C216.187 78.204 216.043 78.736 215.755 79.184C215.467 79.624 215.055 79.964 214.519 80.204C213.991 80.436 213.355 80.552 212.611 80.552H210.019L210.715 79.844V83H209.155ZM214.651 83L212.527 79.952H214.195L216.331 83H214.651ZM210.715 80.012L210.019 79.268H212.539C213.227 79.268 213.743 79.12 214.087 78.824C214.439 78.528 214.615 78.116 214.615 77.588C214.615 77.052 214.439 76.64 214.087 76.352C213.743 76.064 213.227 75.92 212.539 75.92H210.019L210.715 75.152V80.012ZM217.933 83V74.6H219.217L222.889 80.732H222.217L225.829 74.6H227.113L227.125 83H225.649L225.637 76.916H225.949L222.877 82.04H222.181L219.061 76.916H219.421V83H217.933ZM228.206 83L231.986 74.6H233.522L237.314 83H235.682L232.43 75.428H233.054L229.814 83H228.206ZM229.946 81.056L230.366 79.832H234.902L235.322 81.056H229.946ZM239.664 83V75.92H236.88V74.6H244.008V75.92H241.224V83H239.664ZM245.179 83V74.6H246.739V83H245.179ZM252.947 83.12C252.291 83.12 251.687 83.012 251.135 82.796C250.583 82.58 250.103 82.28 249.695 81.896C249.287 81.504 248.971 81.048 248.747 80.528C248.523 80 248.411 79.424 248.411 78.8C248.411 78.176 248.523 77.604 248.747 77.084C248.971 76.556 249.287 76.1 249.695 75.716C250.103 75.324 250.583 75.02 251.135 74.804C251.687 74.588 252.287 74.48 252.935 74.48C253.591 74.48 254.191 74.588 254.735 74.804C255.287 75.02 255.767 75.324 256.175 75.716C256.583 76.1 256.899 76.556 257.123 77.084C257.347 77.604 257.459 78.176 257.459 78.8C257.459 79.424 257.347 80 257.123 80.528C256.899 81.056 256.583 81.512 256.175 81.896C255.767 82.28 255.287 82.58 254.735 82.796C254.191 83.012 253.595 83.12 252.947 83.12ZM252.935 81.752C253.359 81.752 253.751 81.68 254.111 81.536C254.471 81.392 254.783 81.188 255.047 80.924C255.311 80.652 255.515 80.34 255.659 79.988C255.811 79.628 255.887 79.232 255.887 78.8C255.887 78.368 255.811 77.976 255.659 77.624C255.515 77.264 255.311 76.952 255.047 76.688C254.783 76.416 254.471 76.208 254.111 76.064C253.751 75.92 253.359 75.848 252.935 75.848C252.511 75.848 252.119 75.92 251.759 76.064C251.407 76.208 251.095 76.416 250.823 76.688C250.559 76.952 250.351 77.264 250.199 77.624C250.055 77.976 249.983 78.368 249.983 78.8C249.983 79.224 250.055 79.616 250.199 79.976C250.351 80.336 250.559 80.652 250.823 80.924C251.087 81.188 251.399 81.392 251.759 81.536C252.119 81.68 252.511 81.752 252.935 81.752ZM259.112 83V74.6H260.396L265.664 81.068H265.028V74.6H266.576V83H265.292L260.024 76.532H260.66V83H259.112Z" fill="black"/>
<defs>
<clipPath id="clip0_4551_6506">
<rect width="75" height="94" fill="white"/>
</clipPath>
</defs>
</svg>
