<svg width="343" height="94" viewBox="0 0 343 94" fill="none" xmlns="http://www.w3.org/2000/svg">
<g clip-path="url(#clip0_4551_6507)">
<path fill-rule="evenodd" clip-rule="evenodd" d="M33.717 11.6175C34.1743 11.6175 34.7027 11.6551 35.1141 11.7019C34.8073 11.408 34.2506 11.0546 33.4198 10.9572C33.4204 10.9645 33.4198 10.97 33.4211 10.9775C33.4541 11.2097 33.5696 11.4761 33.7174 11.6175H33.717ZM29.8993 16.6807C30.2029 16.6807 30.3934 16.6564 30.5792 16.6331C30.8027 16.6038 31.0211 16.5765 31.4042 16.5867C31.8356 16.5968 32.2007 16.3966 32.5314 16.215C32.8386 16.0452 33.1211 15.8903 33.4434 15.8903C33.777 15.8888 34.0284 15.9309 34.2555 16.0193L34.2549 16.0208C34.4826 16.1095 34.6776 16.243 34.899 16.4256C35.3597 16.8074 35.6314 17.1648 35.7883 17.6103C35.94 18.0427 35.9769 18.5492 35.9721 19.2386C35.9597 21.0124 35.7583 21.9646 35.4999 22.4786C35.2041 23.0682 34.8334 23.1405 34.5506 23.1595C34.5448 23.1595 32.4176 23.3176 31.4042 23.1723C31.2276 23.1475 31.0528 23.1114 30.8664 23.0719L30.42 22.9864C30.12 22.9339 29.9286 22.8903 29.7433 22.8194C29.5603 22.7482 29.3919 22.6512 29.1309 22.4882H29.1302C29.0574 22.4449 28.9554 22.3692 28.8448 22.2923C28.659 22.162 28.4441 22.0182 28.3348 22.0182C28.3099 22.0182 28.3078 22.0246 28.3078 22.0319C28.3078 22.0349 28.3069 22.04 28.3069 22.0426C28.3326 22.0789 28.4569 22.1554 28.4511 22.2633C28.4454 22.4434 28.4372 22.6655 28.4098 22.9048C28.2945 23.9004 27.924 24.5573 27.6752 24.913L28.2894 24.8498C29.2986 24.7425 30.2462 24.6421 30.7974 24.6408C30.9276 24.6393 31.1177 24.6553 31.3442 24.6846C31.4972 24.7034 31.6588 24.728 31.8216 24.7555L32.3574 24.856C33.0962 25.0042 33.8938 25.2181 34.3845 25.4469C34.6123 25.4315 35.3546 25.3956 36.1468 25.3582L37.5525 25.2898C37.7439 25.1809 37.9361 25.0459 38.1236 24.8792C38.3229 24.7019 38.5168 24.496 38.6985 24.2682C39.642 23.0868 40.2898 21.3216 39.9551 19.8686L40.3665 19.7757C40.7319 21.3577 40.0395 23.2635 39.0294 24.5295C38.8307 24.7773 38.6211 25.0025 38.4049 25.1918C38.286 25.2971 38.1606 25.3683 38.0381 25.4546L38.3029 25.5443C39.1654 25.8259 40.5844 26.2905 41.2965 27.8537C41.5221 27.983 42.2835 28.4818 42.4371 29.1682C42.5297 29.2101 42.6204 29.2336 42.7129 29.2793C43.2276 29.5325 43.7336 29.8399 44.2183 30.1751C44.5851 27.7764 42.1412 26.1166 42.1333 26.1109L41.5232 25.6973L42.2599 25.7278C43.2444 25.7667 43.8658 25.6738 44.3158 25.4999C44.7546 25.3285 45.0444 25.0687 45.3529 24.7735H45.3536C46.0071 24.1561 46.2403 23.3784 46.3196 22.9952C43.215 23.0503 43.2411 20.8686 43.2411 20.8631V20.6294L43.4741 20.6542C45.7434 20.8864 46.5971 19.3082 46.8448 18.6802C46.3729 18.6485 45.9741 18.5682 45.6369 18.4409C45.219 18.2828 44.8929 18.0521 44.6374 17.7444C44.2003 17.2176 44.16 16.1986 44.1206 15.1985C44.109 14.8849 44.097 14.573 44.0706 14.2649L44.0691 14.2547L44.2791 14.2365L44.2755 14.0272L44.3113 14.0257H44.3121C44.445 14.0235 44.5821 14.0278 44.7197 14.0336C44.7699 13.9054 44.8354 13.7936 44.919 13.6759C45.144 13.3608 45.4616 12.9154 45.4577 11.336C45.4556 10.2321 45.2402 9.53288 45.1271 9.23507C44.3111 9.54271 43.7484 9.84394 43.3821 10.221C42.9981 10.619 42.81 11.1168 42.7191 11.8162C42.6249 12.5405 42.7119 13.5815 42.7119 13.5843L42.7346 13.8137L42.5031 13.8152C42.0431 13.8152 41.6953 13.796 41.3754 13.6785C41.0479 13.5582 40.7638 13.3418 40.4466 12.9528L40.7732 12.6872C41.0385 13.0126 41.2661 13.1893 41.5232 13.2839C41.7358 13.3608 41.9775 13.3871 42.2796 13.3929C42.2591 13.0314 42.2321 12.314 42.3041 11.7628C42.4063 10.9724 42.6259 10.3998 43.0798 9.92982C43.4119 9.58736 43.8656 9.306 44.4864 9.03682C44.1056 8.98341 43.5971 8.93321 42.957 8.93363C42.2634 8.93513 41.7362 9.06438 41.3248 9.28058C40.9176 9.49422 40.6191 9.79437 40.3791 10.1415C40.1638 10.4534 39.9934 10.9457 40.0041 11.4319C40.0067 11.5243 40.0158 11.6164 40.0311 11.7075C40.0469 11.7961 40.0705 11.8831 40.1019 11.9675L40.0594 11.9835L39.708 12.1185L39.7065 12.1157L39.705 12.1128C39.6651 12.0048 39.6351 11.8935 39.6154 11.7801C39.5957 11.6712 39.5854 11.5567 39.5833 11.4404V11.4392C39.5726 10.863 39.7736 10.2763 40.0324 9.90312C40.2446 9.59676 40.5182 9.33783 40.8381 9.11351C40.5066 9.08724 40.1824 9.06438 39.8357 9.04836C39.2889 9.02208 38.6754 9.01033 37.8343 9.01204C36.7444 9.01332 35.1519 9.09621 33.9439 9.17013L33.2415 9.21286L32.6908 9.25046L32.6334 9.25473C32.5781 9.50255 32.4651 9.84266 32.4647 9.84437L32.3196 9.79181L32.3055 9.83091L32.2637 9.82941L32.2579 9.98323C32.0743 9.97468 31.8881 9.97639 31.7023 9.98472C31.1083 10.0136 30.5289 10.1313 30.0664 10.3389C29.6293 10.5348 29.3008 10.8111 29.1754 11.1678C29.1375 11.2791 29.1183 11.3958 29.1189 11.5133C29.1201 11.828 29.2939 12.0495 29.3925 12.1512C29.6201 12.1001 29.8447 12.0364 30.0651 11.9604C30.3716 11.8536 30.5681 11.7891 31.0273 11.8211L30.9973 12.242C30.6244 12.2142 30.4594 12.2708 30.2016 12.3595C30.0096 12.4247 29.7701 12.5076 29.3754 12.589C28.8354 12.7022 28.5139 12.8667 28.3329 13.1658C28.1409 13.4794 28.0794 13.9569 28.068 14.6723C28.0541 15.4837 28.1966 15.9905 28.4916 16.2853C28.7856 16.5769 29.2566 16.6788 29.901 16.6769L29.8993 16.6807ZM32.9121 10.6425C32.9121 10.641 33.0885 10.1212 33.3793 9.87919L33.6504 10.2018C33.5586 10.2787 33.4806 10.4047 33.4226 10.518C35.1201 10.691 35.8011 11.8795 35.8033 11.8822L36.0416 12.2903L35.5791 12.1942C35.2367 12.1232 34.3676 12.0346 33.6799 12.0361C33.5535 12.0361 33.4286 12.0403 33.3107 12.0489C33.2171 12.0541 33.1239 12.0658 33.0319 12.0839L33.0261 12.0854L32.9366 11.6731L32.9424 11.6716H32.9445C33.0259 11.6556 33.1245 11.646 33.2259 11.637C33.1172 11.4462 33.033 11.2358 33.0024 11.0375C32.9964 10.9969 32.9959 10.9563 32.9938 10.9153L32.8224 10.9111L32.9119 10.6425H32.9121ZM8.32714 13.3089C8.74414 13.2378 9.63536 12.9996 10.1049 12.2187C9.942 11.8502 9.14829 10.4378 6.783 11.1533C7.356 11.4904 8.26586 12.1959 8.32714 13.3089ZM15.0977 14.6065C15.3913 14.702 15.7599 14.7706 16.2549 14.8067C16.3348 14.5456 16.467 13.9314 16.2756 13.1564C16.2028 12.8603 16.077 12.5163 15.7871 12.2159C15.5475 11.966 15.1924 11.7425 14.6571 11.5904C14.847 12.1331 15.0536 13.1641 14.4857 14.3036C14.6593 14.4254 14.8534 14.5271 15.0994 14.607L15.0977 14.6065ZM21.6321 18.1315C21.8769 18.5509 22.2313 18.8707 22.7096 19.1014C23.5264 19.495 24.4157 19.7156 25.3631 19.8359C26.3203 19.9592 27.3394 19.9825 28.4016 19.9797C28.6798 19.9797 28.9723 19.9622 29.2678 19.9462C30.3546 19.8853 31.4899 19.8201 32.7414 20.4973C34.2392 21.3096 34.6164 22.2598 34.7128 22.7008C34.8474 22.6553 34.9914 22.5534 35.1225 22.2932C35.2982 21.9441 35.4452 21.3532 35.5121 20.3598C35.1242 20.3561 34.3663 20.2944 33.8539 19.9098V19.9083L33.6296 19.7385L33.6289 19.7398C33.0508 19.3029 32.6282 19.0186 31.5971 19.0213C30.9392 19.0228 30.7624 19.1158 30.5867 19.2085C30.3677 19.3245 30.1496 19.4409 29.4004 19.4422C28.9577 19.4422 28.4925 19.4394 28.0616 19.4134C27.618 19.3871 27.2019 19.3379 26.8637 19.2493C26.0559 19.0356 25.386 18.6861 24.846 18.2595C24.7374 18.174 24.6371 18.0882 24.5445 18.0027C24.4504 17.9159 24.3598 17.8254 24.273 17.7314L24.2709 17.7299C23.8359 17.2595 23.6593 16.5132 23.7291 15.7659C23.7431 15.6222 23.7656 15.4784 23.7969 15.3365C23.8287 15.1944 23.8693 15.0543 23.9184 14.9172V14.9155L23.922 14.9054V14.9069C24.0763 14.4845 24.3426 13.9861 24.5205 13.6717C24.4911 13.6732 24.4622 13.6732 24.4326 13.6759C23.7469 13.7251 22.9575 13.9823 22.3273 14.4237C21.7123 14.8509 21.2499 15.4598 21.1948 16.2133C21.1876 16.3181 21.1878 16.4232 21.1954 16.528C21.2419 17.174 21.3827 17.7051 21.6321 18.132V18.1315ZM3.29572 19.1542C3.15214 19.6776 3.23529 20.3976 3.56207 21.0346C3.70779 21.3188 3.90129 21.5845 4.14279 21.8052C4.38193 22.0259 4.66779 22.2013 5.00314 22.3088C5.69314 22.5295 6.59593 22.4613 7.72071 21.8879L7.91207 22.2611C7.01421 22.7192 6.24064 22.8743 5.57743 22.8315C5.43707 23.1503 5.33272 23.481 5.29457 23.8301C5.25536 24.177 5.28493 24.5479 5.37814 24.9354C5.73922 25.0256 6.54386 25.4341 6.40029 27.1991C6.426 27.2158 6.44422 27.2312 6.47529 27.2483C6.55455 27.2915 6.6357 27.3312 6.7185 27.3673C6.8195 27.4102 6.92169 27.4503 7.02493 27.4875H7.02579C7.52229 27.6619 8.15421 27.8022 8.69079 27.8011C8.949 27.8011 9.19436 27.7704 9.42321 27.7153C10.1098 27.5516 10.6607 27.1684 11.0653 26.7169C11.4714 26.2655 11.7306 25.7458 11.8335 25.3119C11.8671 25.1709 11.8836 25.0416 11.8836 24.9299C11.8836 24.8109 11.874 24.6863 11.8579 24.5624C11.8498 24.5015 11.8395 24.4391 11.8279 24.3753C11.817 24.316 11.8044 24.257 11.7902 24.1984C11.7388 23.9894 11.6766 23.8209 11.6175 23.7425L11.9539 23.4904C12.0474 23.6137 12.1361 23.8386 12.2004 24.0997C12.2158 24.1621 12.2299 24.2304 12.2432 24.3005C12.256 24.3703 12.2669 24.4405 12.2758 24.5109C12.294 24.65 12.3035 24.7901 12.3043 24.9303C12.3049 25.0769 12.2846 25.2379 12.2447 25.4078C12.1633 25.7524 11.9661 26.1371 11.7176 26.5144C12.0094 26.7082 12.5582 26.9579 13.2266 27.2557C14.9008 28.0047 17.1664 29.0296 17.733 30.3272C17.7924 30.2979 17.856 30.2631 17.913 30.2343C18.0834 30.1531 18.2426 30.0832 18.3838 30.0281C18.423 30.0127 18.4519 30.0084 18.4909 29.9956C18.0152 29.2829 17.9049 28.3596 17.8892 27.7877C16.875 27.5365 15.5743 26.799 14.5549 25.9959C14.3543 25.8381 14.1595 25.673 13.971 25.5009C13.7899 25.3343 13.6254 25.1687 13.4835 25.0104L13.482 25.0089L13.794 24.7258L13.797 24.7288L13.7991 24.7303C13.9441 24.8916 14.0969 25.0457 14.2571 25.192C14.4328 25.3516 14.6205 25.5129 14.8153 25.6663C15.7639 26.4146 16.9528 27.0919 17.8918 27.3497C17.8939 27.2972 17.8969 27.2596 17.8969 27.2596L17.913 27.0498L18.1209 27.0643C19.1829 27.1369 20.2046 27.1348 21.1809 27.0835C20.8969 26.7951 20.6822 26.4847 20.5866 26.1196C20.4581 25.6347 20.4838 25.0835 20.5991 24.446L20.6471 24.186L20.8903 24.2928C20.8939 24.2934 21.7931 24.6795 23.1287 24.9198C22.7173 24.7643 22.293 24.5934 21.8644 24.3943H21.8636C21.5884 24.2682 21.3096 24.1332 21.0306 23.9926C20.7537 23.8524 20.4796 23.7068 20.2084 23.5558L20.1403 23.5182H20.139C18.9036 22.827 17.6346 22.0013 16.6236 21.207C16.4337 21.0569 16.2467 20.9029 16.0629 20.7454C15.8871 20.5931 15.723 20.4448 15.5743 20.2997L15.3654 20.1213L15.6019 19.9688C16.2309 19.5597 16.6939 19.1604 16.9954 18.7084C17.2901 18.2627 17.4336 17.7562 17.4321 17.1262C17.4306 16.5169 17.2314 16.0494 16.9365 15.7098C16.8731 15.6367 16.8045 15.5683 16.7312 15.5051C16.6592 15.4427 16.5827 15.3861 16.5047 15.335C16.449 15.2983 16.3929 15.2677 16.3365 15.238C15.7549 15.2017 15.3159 15.127 14.9715 15.0146C14.7336 14.9368 14.5442 14.8366 14.3681 14.7262C14.3548 14.8787 14.3518 15.0456 14.3569 15.2453C14.3724 15.8854 14.3934 16.7724 13.9187 18.1529L13.5201 18.0179C13.9701 16.704 13.9504 15.8623 13.9365 15.2556C13.9284 14.9219 13.9226 14.6516 13.9888 14.4006C13.6609 13.8665 13.263 13.3598 12.7138 12.9987C12.1577 12.6334 11.4309 12.4176 10.4492 12.4546C9.79457 13.5146 8.5155 13.7242 8.20564 13.7571C7.86707 14 7.6455 14.2399 7.53064 14.5461C7.41922 14.8413 7.40036 15.2346 7.43079 15.7433C7.58079 15.7824 7.73079 15.8232 7.88721 15.8522C8.2335 15.9163 8.54164 16.1368 8.86821 16.4968C9.17336 16.8322 9.49929 17.2922 9.89893 17.8611L9.55607 18.1025C9.16436 17.5449 8.84636 17.0963 8.55814 16.7779C8.29243 16.4846 8.05736 16.3075 7.81329 16.2641H7.81264C7.55336 16.2163 7.33264 16.1565 7.11022 16.0971C6.71636 15.9903 6.31243 15.8834 5.72272 15.8471C5.35414 15.8253 5.07043 15.8728 4.82357 16.0195C4.581 16.1633 4.35986 16.4169 4.12072 16.7833C4.46872 18.3351 3.60429 18.9846 3.30172 19.1572L3.29572 19.1542ZM41.8629 8.64864L41.8189 7.60674L40.9339 7.34396C40.2289 7.15105 39.4639 7.17562 38.4962 7.20766L37.2062 7.23501C36.9201 7.23501 36.6238 7.23223 36.324 7.22924C35.0374 7.216 33.6654 7.20361 32.7525 7.47022H32.7519C32.7116 7.48197 32.6717 7.49501 32.6334 7.50782L32.6591 8.83878H32.6606L33.213 8.79968L33.9176 8.75696C35.1244 8.68282 36.7247 8.60164 37.8326 8.59887C38.6871 8.59737 39.3069 8.60912 39.8539 8.63518C40.4025 8.66082 40.8846 8.70034 41.4619 8.75268L41.4576 8.79755C41.5894 8.74627 41.7148 8.68859 41.8648 8.65142L41.8629 8.64864ZM34.3029 4.38724C34.3037 4.79956 34.4814 5.18538 34.6611 5.57719C34.8369 5.96046 34.9907 6.3606 35.0389 6.81116L36.3276 6.80966L37.2062 6.81393L37.2523 6.81329L37.2471 3.78115C36.8593 3.68459 35.7904 3.50086 35.481 3.44788C35.4118 3.50727 35.3456 3.56816 35.2611 3.61622C35.1418 3.68309 35.0211 3.74013 34.8986 3.79781C34.5986 3.94309 34.3024 4.10118 34.3029 4.38745V4.38724ZM36.9703 2.16072L36.966 2.23036L36.9645 2.24788C36.9521 2.44656 36.8946 2.68156 36.8415 2.89947C36.8133 3.01048 36.7883 3.12225 36.7665 3.23467L38.2333 3.2492C38.1707 2.88559 38.0456 2.25215 38.0447 2.25066L38.0301 2.18101H38.1009C38.2515 2.18101 39.0651 2.30706 39.3047 2.34338L39.3141 1.0936C39.0223 1.12715 38.1274 1.26067 38.1257 1.26067L38.0601 1.27071V1.20405C38.0601 1.01071 38.1816 0.234145 38.2187 0.00491364L36.7757 0C36.8293 0.304859 36.9647 1.18568 36.9647 1.18846L36.9765 1.26259L36.9009 1.25255L35.7002 1.07566L35.6929 2.34402L36.9696 2.15815L36.9703 2.16072ZM32.634 7.06688C33.186 6.90494 33.8818 6.8447 34.6176 6.82077C34.5705 6.44626 34.4351 6.09355 34.2786 5.75173C34.0794 5.31933 33.8833 4.89078 33.8818 4.38745C33.8803 3.85016 34.2954 3.62263 34.7162 3.41925C34.8219 3.36798 34.9258 3.3182 35.0175 3.26821C34.8851 3.20626 34.7593 3.13148 34.6189 3.08982C34.5476 3.06749 34.4754 3.04761 34.4027 3.03022C34.3322 3.01425 34.2613 2.99979 34.1901 2.98685C34.0044 2.95331 33.8329 2.93771 33.693 2.93771C33.1069 2.93921 32.5693 3.16844 32.2474 3.58375C32.1774 3.67519 32.1178 3.77389 32.0704 3.87985C32.0209 3.99176 31.9849 4.10917 31.9633 4.22957C31.9443 4.33786 31.9348 4.44758 31.9348 4.55751C31.9378 5.75216 32.3505 6.7398 32.5245 7.10405C32.5614 7.09166 32.5952 7.07841 32.6338 7.06688H32.634ZM39.8846 6.77505C39.9238 6.30078 40.0682 5.89273 40.2324 5.5005C40.4029 5.09566 40.5716 4.69359 40.5709 4.22936C40.5701 4.03068 40.2032 3.85186 39.8591 3.6863C39.6034 3.56388 39.3821 3.43463 39.2301 3.27718C39.1888 3.29214 39.15 3.30196 39.1086 3.31777C38.6844 3.47458 38.2151 3.63908 37.6686 3.77581L37.6729 6.80517L38.4829 6.78851C38.9976 6.77078 39.4558 6.75796 39.8844 6.77526L39.8846 6.77505ZM40.9918 4.22915C40.9933 4.78033 40.8086 5.22191 40.6221 5.66478C40.47 6.02626 40.3359 6.39713 40.3024 6.80923C40.5549 6.83615 40.8032 6.87332 41.0449 6.93912C41.2984 7.00813 41.7178 7.13503 41.9374 7.20361C42.1689 6.85752 42.8439 5.75643 42.8411 4.61967C42.8411 4.38745 42.8096 4.18428 42.7558 4.00739C42.6501 3.66045 42.4558 3.40921 42.2179 3.23082C41.9784 3.05073 41.6972 2.94455 41.4311 2.89541C41.3042 2.87105 41.1752 2.85882 41.046 2.85888C40.5531 2.85974 40.1203 2.97788 39.6844 3.12294C39.7864 3.18275 39.9122 3.24471 40.0423 3.30752C40.5017 3.5297 40.9901 3.76641 40.9916 4.22915H40.9918ZM5.57743 83.9602C5.18872 84.0691 4.89236 84.255 4.64207 84.4344H4.64143C3.81429 85.0311 4.02472 86.0312 4.17 86.471C4.518 86.2895 4.90607 86.1647 5.34064 86.1096C5.81807 86.0502 6.34886 86.0745 6.93986 86.1982C7.49593 84.979 7.14986 84.1544 7.0185 83.9134C6.41721 83.8151 5.95136 83.8536 5.57722 83.9597L5.57743 83.9602ZM44.9889 81.1457C45.8726 80.9528 46.5729 81.3562 46.8527 81.5553C47.0505 81.3955 47.4459 80.9789 47.4441 80.204C47.4429 79.7802 47.3443 79.5417 47.2862 79.4388C46.9509 79.3982 46.6326 79.3866 46.3348 79.4025C45.5959 79.4388 44.9814 79.6422 44.5365 79.9671C44.1058 80.2807 43.8341 80.7105 43.7644 81.2139C43.7571 81.2629 43.7525 81.3124 43.7505 81.3619C44.0278 81.3243 44.5074 81.2519 44.988 81.1457H44.9886H44.9889ZM44.1746 86.962C43.8306 87.5602 43.8613 88.3263 43.9144 88.7501C44.3833 88.4292 45.3501 87.8372 46.1023 87.8357C46.3273 87.8357 46.7597 87.9142 47.0076 87.9618C47.1255 87.5394 47.3244 86.4104 46.3665 85.6218C46.035 85.6671 44.7808 85.9064 44.1744 86.9618L44.1746 86.962ZM50.9233 90.5673C50.6518 90.3438 50.3511 90.2439 50.1197 90.2276C50.0554 90.2231 49.9908 90.2265 49.9273 90.2379C49.788 90.2684 49.4724 90.5515 49.1456 91.0044C49.0764 91.1014 49.0095 91.2016 48.9491 91.3005C48.8828 91.4091 48.8212 91.5204 48.7644 91.6342L48.7584 91.647C48.5597 92.0478 48.4905 92.4556 48.5276 92.8797C48.5576 93.2307 48.6594 93.5937 48.819 93.974C49.1447 93.6432 49.7734 93.0425 50.2982 92.7776C50.6981 92.5768 51.3204 92.4843 51.6319 92.4497C51.6392 92.1518 51.6148 91.8906 51.5627 91.6628C51.4479 91.1448 51.2019 90.7921 50.9237 90.5654L50.9233 90.5673ZM37.4597 78.2965C36.2784 77.5402 34.2501 76.6173 34.2444 76.6141L34.0172 76.5109L34.1586 76.3047C34.2491 76.1727 34.3515 76.0349 34.4565 75.8941C34.9211 75.2711 35.4416 74.5732 35.4394 73.5339C35.4386 73.1115 35.3811 72.7761 35.1941 72.4742C35.0027 72.1634 34.6699 71.8745 34.1205 71.5526C33.6009 71.2492 33.0345 71.0766 32.4092 70.9807C31.7694 70.8846 31.0704 70.8662 30.3011 70.8675C28.8598 70.8705 27.5597 70.1808 26.8382 69.1227C26.6864 68.9008 26.5608 68.6622 26.4641 68.4115C26.366 68.1568 26.299 67.8913 26.2646 67.6206C26.2482 67.4853 26.2401 67.3491 26.2401 67.2128C26.238 66.169 26.4099 65.2678 27.1877 64.5116C27.9429 63.7784 29.2689 63.202 31.5731 62.7939C32.2211 62.6794 33.1609 62.7448 34.0309 62.8072L34.6037 62.8448C33.9559 62.253 33.4059 61.5672 33.0561 60.8765C32.9619 60.6907 32.8804 60.5033 32.8157 60.3175C32.7513 60.1369 32.7014 59.9515 32.6666 59.7631C32.6381 59.605 32.6237 59.4465 32.6237 59.2888C32.6216 58.5951 32.706 57.8837 32.853 57.3058C32.8851 57.1776 32.9216 57.0559 32.9616 56.9384C32.9985 56.8284 33.0412 56.7204 33.0896 56.6149C33.1314 56.5235 33.1749 56.4419 33.2188 56.371C33.426 56.0388 33.7425 55.7369 34.0099 55.4698C34.2364 55.2434 34.4218 55.0532 34.4214 54.9691C34.4214 54.9349 34.4089 54.9058 34.4068 54.8717C33.8175 54.6678 33.1635 54.535 32.3749 54.5029C31.5146 54.4666 30.5064 54.5409 29.2884 54.7336L29.2871 54.7351H29.2785C28.7074 54.8238 28.0116 54.8441 27.3144 54.8629C26.5785 54.8821 25.8401 54.902 25.2709 55.0052C24.2278 55.1953 23.3173 55.3998 22.4623 55.6461C21.6179 55.891 20.7925 56.1966 19.9924 56.5605C18.1496 57.3966 16.986 58.2529 16.1507 59.1689C15.315 60.0833 14.8007 61.0675 14.2618 62.1505L14.2609 62.1517L14.2596 62.1532C14.2065 62.259 14.1139 62.387 13.9845 62.5292C13.863 62.6628 13.7059 62.8134 13.5131 62.9736C12.5556 63.7762 10.7445 64.8211 8.44993 65.148C7.3935 65.2988 6.66707 65.3979 6.05336 65.3178C5.55107 65.2542 5.13922 65.0722 4.71493 64.7139C4.74193 65.6297 5.10879 67.742 7.75779 69.0614L7.76722 69.0672H7.76786C8.08029 69.221 8.39679 69.3502 8.7165 69.4564C9.03793 69.5589 9.35936 69.6391 9.684 69.6944C11.3554 69.9775 13.101 69.6145 14.8125 68.6783L15.0572 68.5448L15.1198 68.8161C15.1204 68.8191 15.4052 70.1313 16.0361 70.7641C17.2635 71.995 18.3285 72.985 19.6697 73.7336C21.009 74.4841 22.6333 74.9979 24.9853 75.281L25.1839 75.3058L25.1706 75.5032C25.1706 75.5089 25.0999 77.161 22.9374 79.6067C22.8426 79.7156 22.7394 79.8229 22.6309 79.9301C22.4552 80.1032 22.2684 80.2668 22.0716 80.4221C21.8741 80.5787 21.6686 80.7251 21.456 80.8607C20.4467 81.5051 19.2756 81.9172 18.2237 81.9187C17.5693 81.9217 17.1137 81.83 16.7546 81.4978C16.4117 81.1784 16.1818 80.6475 15.9767 79.7661C15.8121 79.0621 15.636 78.5947 15.3092 78.2781C14.9796 77.9604 14.4735 77.7688 13.6524 77.612V77.6105C13.555 77.593 13.4568 77.5809 13.3581 77.5744C13.2657 77.57 13.1731 77.5715 13.0809 77.5786C12.6501 77.6096 12.3152 77.7673 12.1594 77.9621C12.0684 78.2001 11.4729 79.5659 9.84236 79.8299C9.5205 80.0675 9.32764 80.291 9.22564 80.5484C9.13822 80.7697 9.11636 81.043 9.11486 81.3585C9.67457 81.2801 10.1749 81.2983 10.6633 81.4514C11.3361 81.6619 11.9758 82.118 12.7234 82.8999L12.4176 83.1904C11.7219 82.4619 11.1373 82.0411 10.5384 81.8535C9.94372 81.6676 9.31757 81.7069 8.53779 81.8988H8.53714C7.13421 82.2406 7.32214 83.4765 7.35343 83.6427C7.467 83.8258 8.04514 84.8976 7.26771 86.4847C7.20129 86.9536 7.36843 87.5482 7.63671 88.0387C7.8975 88.5162 8.24186 88.8877 8.54164 88.9373V88.9358L8.54807 88.9373C8.61021 88.9445 8.74821 88.8486 8.74821 88.8486L8.74886 88.8501L8.751 88.8486C8.79514 88.8155 8.81872 88.557 8.84957 88.2085C8.92607 87.3625 9.04093 86.0792 10.1089 85.2604L10.1104 85.2589L10.1164 85.2546C10.2514 85.1514 10.4074 85.0623 10.5776 84.9769C10.7469 84.8983 10.929 84.8316 11.1193 84.7782C12.0928 84.5069 13.3614 84.5517 14.4279 84.9886L14.2676 85.3774C13.2887 84.9771 12.1251 84.9348 11.2333 85.1852C11.0694 85.2302 10.9097 85.289 10.7559 85.361C10.614 85.4261 10.4844 85.5031 10.3708 85.5902L10.365 85.5945C9.44421 86.3027 9.33643 87.4724 9.26936 88.2451C9.2415 88.547 9.22007 88.798 9.15 88.9751C9.19864 89.0193 9.24857 89.0973 9.3 89.1597C9.37714 89.0906 9.45064 89.0016 9.52864 88.9477C9.78429 88.7704 10.0451 88.6721 10.2654 88.6704C10.4059 88.6704 10.5546 88.708 10.6999 88.7794C10.9031 88.8798 11.1075 89.0479 11.2806 89.2707C11.4499 89.4887 11.5924 89.7628 11.6792 90.0794C11.7366 90.2883 11.7696 90.5177 11.7703 90.7602C11.7706 90.9021 11.7592 91.0438 11.7362 91.1839C11.7287 91.2266 11.7204 91.2692 11.7114 91.3116C11.6916 91.4001 11.6685 91.4815 11.6424 91.5526C11.6136 91.631 11.5798 91.6992 11.5416 91.7588C11.5549 91.7763 11.5631 91.7934 11.5774 91.8109V91.8124C11.652 91.9028 11.7341 91.9867 11.823 92.0632C11.9199 92.1491 12.0287 92.232 12.1444 92.3102L12.1453 92.3116C12.7056 92.6834 13.4739 92.9664 14.1966 92.9647C14.3196 92.9647 14.4491 92.9502 14.5824 92.9241C14.7088 92.8985 14.838 92.8605 14.9698 92.8126C15.1001 92.7635 15.2338 92.7007 15.3705 92.6268C15.9426 92.314 16.5062 91.7844 16.9412 91.0638C16.5846 90.5991 16.4906 90.158 16.4899 89.6833C16.4891 89.56 16.5024 89.4205 16.5257 89.2769C16.5418 89.1829 16.5621 89.084 16.5868 88.9881C16.6116 88.8864 16.6404 88.7851 16.6725 88.6877C16.8101 88.2711 17.0196 87.8545 17.2731 87.5758L17.5856 87.8586C17.3745 88.091 17.1951 88.4525 17.0745 88.8183C17.0439 88.9127 17.0166 89.0028 16.9959 89.0881C16.974 89.1767 16.9556 89.2624 16.9423 89.3449C16.9228 89.4566 16.9123 89.5697 16.9108 89.6831C16.9123 90.0723 16.9879 90.4321 17.2761 90.8096C17.5813 91.2091 18.1215 91.6342 19.0468 92.1377C19.7556 92.5244 20.4726 92.3621 21.1519 92.1965C21.1637 92.1031 21.1674 92.0106 21.1963 91.9128H21.1954C21.2998 91.5703 21.5218 91.2089 21.864 90.9301C22.2054 90.6523 22.6663 90.4631 23.2487 90.4616C23.4716 90.4616 23.7244 90.51 23.9837 90.5726C24.1926 90.3092 24.3857 89.9377 24.5136 89.5241C24.5451 89.4224 24.5736 89.3165 24.5972 89.2058C24.6199 89.1001 24.6386 88.9943 24.6519 88.8896C24.6669 88.7649 24.6754 88.6456 24.6748 88.5371C24.6741 88.0928 24.4813 87.7112 24.2454 87.4048C24 87.0882 23.7041 86.8473 23.5168 86.6994C23.1536 86.4121 21.921 85.9376 21.9176 85.9361L21.5199 85.788L21.8788 85.5616C22.7327 85.0232 23.6304 84.8288 24.5466 84.8993C25.4106 84.963 26.2901 85.2593 27.1644 85.7165C27.4686 85.4494 28.3644 84.6265 29.3216 83.3639L29.4039 83.2562L29.5363 83.2851C29.547 83.2881 33.2229 84.0755 33.6092 86.6349C33.9949 86.6875 35.1255 86.6915 36.2166 85.2706C36.5944 84.7786 36.6165 83.635 36.5402 82.9249C36.5256 82.7871 36.5076 82.6668 36.4871 82.5709C36.4704 82.491 36.4539 82.4342 36.4408 82.4111H36.4399C36.0291 81.6941 34.9112 80.9293 33.8119 80.4429C33.6019 80.3484 33.3868 80.2645 33.1755 80.1929C32.9819 80.1246 32.7844 80.0678 32.5841 80.0231L32.5798 80.0216L32.6709 79.612H32.6751C32.8819 79.6584 33.0966 79.7193 33.3129 79.7936C33.5276 79.8663 33.7532 79.956 33.984 80.0577C35.1525 80.576 36.3514 81.4074 36.8083 82.2017L36.8089 82.2047H36.8098C36.843 82.2641 36.8751 82.3611 36.9004 82.4825C36.9079 82.5166 36.9129 82.5675 36.9197 82.6064C37.3279 82.4782 37.6984 82.3115 37.9611 82.0586C38.2596 81.771 38.4411 81.3762 38.4401 80.8248C38.4379 80.1891 38.3775 79.6665 38.2211 79.2471C38.0803 78.8523 37.8102 78.5164 37.4544 78.2935L37.4597 78.2965ZM69.2113 84.0356C68.565 83.6728 67.1869 83.6147 66.7487 83.6083C66.6351 83.8854 66.3861 84.5791 66.3883 85.3253C66.3883 85.4385 66.4022 85.553 66.4316 85.6663V85.6678C66.4461 85.7259 66.4641 85.781 66.4845 85.8333H66.4854C66.5289 85.9423 66.5899 86.0512 66.6686 86.1581C66.72 86.2264 66.7808 86.2948 66.8475 86.3597C67.0832 86.2145 67.5889 85.9808 68.3931 85.978C69.2085 85.9765 69.7341 86.1899 70.0363 86.3753C70.0783 85.7515 70.0487 84.5045 69.2113 84.0369V84.0356ZM69.9184 64.0755C69.5061 64.1146 69.0056 64.161 68.3764 64.2524C65.7368 64.6387 65.0921 65.8682 65.0906 65.8712L64.6958 66.6012L64.6937 65.7707C64.6907 64.7201 64.2111 63.5442 63.3069 62.8589C63.1196 62.7179 62.9147 62.5961 62.6912 62.5032C62.4677 62.4102 62.2266 62.3436 61.9682 62.3109C61.8282 62.293 61.6872 62.2839 61.5461 62.2836C61.0665 62.2851 60.3349 62.5982 59.6432 63.0296C59.4668 63.14 59.2946 63.259 59.1306 63.3812C58.9707 63.4989 58.8162 63.6237 58.6676 63.7553C58.5251 63.883 58.3954 64.011 58.2836 64.1356C57.6551 64.838 57.2186 65.2909 56.7064 65.5768C56.1874 65.8656 55.6131 65.9733 54.7183 65.9763C53.5427 65.9793 52.6779 65.6295 52.0425 64.8077C51.4258 64.0123 51.0388 62.7781 50.7996 60.9915C50.4984 58.7344 50.2311 57.4265 49.824 56.3539C49.4194 55.2872 48.8674 54.4367 47.9998 53.101L48.3463 52.8618C48.3521 52.869 50.2419 55.5354 55.4177 55.5241C56.9863 55.5198 58.6573 55.0349 60.132 54.2701C60.4369 54.112 60.732 53.9421 61.0134 53.7637C61.2966 53.5854 61.5705 53.3963 61.8298 53.1991C61.9252 53.1259 62.0195 53.0514 62.1128 52.9756C62.9593 52.2845 63.7123 51.4503 64.2536 50.402C64.7942 49.3524 65.124 48.0853 65.1203 46.5321C65.1161 44.519 64.9886 44.0255 64.5718 42.4013H64.5711L64.4469 41.9191L63.2426 37.2774C62.8043 35.6384 62.3306 33.9389 61.8313 32.2854C61.0136 29.5754 60.2623 26.8987 59.7156 24.3919C59.1671 21.8796 58.8225 19.5323 58.8178 17.4902C58.8114 14.8033 59.2626 13.8862 59.7096 13.0352L59.7701 12.9207V12.9192C60.2301 12.0467 60.6816 11.4751 61.2208 11.1151C61.7672 10.7523 62.3893 10.6143 63.1871 10.613C64.9836 10.6088 65.916 10.9963 66.3842 11.5652C66.8093 12.0835 66.8385 12.7244 66.7796 13.3563C67.2223 13.3341 67.8178 13.3157 68.4338 13.3029L70.1839 13.2724C70.1775 12.8782 70.1471 12.5061 70.0918 12.1561C70.0356 11.8049 69.9557 11.4753 69.8543 11.1691C69.3486 9.64654 68.2815 8.68838 66.8595 8.26324C66.6659 8.20491 66.4701 8.15403 66.2726 8.11071C65.9144 8.03242 65.5524 7.97288 65.1881 7.93232C64.8006 7.88959 64.3995 7.86118 63.9924 7.85413C62.0642 7.82486 59.9239 8.2344 58.4098 9.38248H58.4106C57.2079 10.2954 56.4568 11.4943 56.0076 12.8442C55.5533 14.2085 55.4048 15.7315 55.4083 17.2712C55.4143 19.7913 55.8401 22.4694 56.4662 25.1864C57.0932 27.9018 57.9234 30.6671 58.7368 33.3495L58.7374 33.3523L58.7383 33.3538C59.3839 35.4891 59.9226 37.568 60.4337 39.5403L60.8844 41.269L60.9733 41.6057C61.3753 43.1167 61.6326 44.0877 61.638 46.3377C61.6386 46.708 61.6116 47.0547 61.5615 47.3803C61.2651 49.2716 60.1601 50.443 58.8889 51.1569C57.6347 51.8609 56.2189 52.1151 55.2718 52.176C55.1111 52.1862 54.9594 52.1909 54.8211 52.1909C54.6866 52.1922 54.5563 52.188 54.4301 52.179C54.01 52.1541 53.5935 52.0861 53.1874 51.976C52.7807 51.8671 52.3845 51.716 52.0016 51.5304C50.1266 50.616 48.5426 48.8072 47.583 46.4512C47.5624 46.4005 47.5406 46.3444 47.5174 46.2813V46.2801C46.9695 44.8256 46.8542 43.0678 46.746 41.4027L46.6689 40.2999C46.5296 40.124 46.3864 39.9512 46.2394 39.7817C45.9309 39.4282 45.6031 39.0919 45.2576 38.7744C44.9446 38.4871 44.6152 38.2181 44.271 37.9687C42.7061 36.8335 41.1932 36.3951 40.0811 36.3985C37.1554 36.4045 34.0397 39.1769 34.0303 39.1843L33.84 39.3495L33.7106 39.1333C33.666 39.0617 33.6266 38.987 33.5927 38.9098C33.5563 38.8299 33.522 38.74 33.4907 38.6428C33.3501 38.2074 33.2863 37.5763 33.3371 36.8162C32.577 36.8424 31.4938 37.3263 30.2702 37.8908L29.1084 38.4163C27.7151 39.0245 26.364 39.351 25.1205 39.4772C24.8779 39.5007 24.6379 39.5178 24.4014 39.5285C24.1682 39.537 23.9374 39.54 23.7103 39.5358L23.6689 39.5343H23.6683C23.6565 39.5343 23.6441 39.5285 23.6319 39.5279C22.4747 40.3102 20.3151 41.2369 18.4708 42.0295L18.1371 42.1733L18.1363 42.1718C18.0834 42.1953 17.8614 42.3419 17.5273 42.5611C16.5544 43.1998 14.6554 44.4464 12.7751 45.3289L12.7547 45.3375L12.438 45.4855L12.4551 45.1373C12.4551 45.1315 12.5923 43.1516 11.0897 41.6828C10.1983 40.8103 9.38829 40.8975 8.42293 41.002L8.10064 41.034C7.76293 42.4446 6.51493 42.4833 6.15064 42.4596C5.80136 42.7412 5.62136 43.0136 5.55493 43.2665C5.4975 43.4844 5.51764 43.6948 5.55064 43.892C5.64236 43.8863 5.72636 43.8685 5.82064 43.8685C5.96122 43.8685 6.09493 43.8745 6.22136 43.8845C6.48172 43.9063 6.73779 43.9514 6.98507 44.0155C7.2267 44.0786 7.46282 44.1611 7.69114 44.262V44.2605C8.77114 44.738 9.5955 45.6005 9.95293 46.545L9.55821 46.6932C9.2385 45.85 8.49707 45.0777 7.52079 44.6466V44.6451C7.31764 44.5554 7.10293 44.4795 6.87836 44.4214C6.65764 44.3648 6.42664 44.3244 6.18622 44.3039C6.0647 44.2936 5.94281 44.2883 5.82086 44.2879C4.85486 44.2907 4.08986 44.5928 3.64929 45.1051C3.55969 45.21 3.48254 45.3249 3.41936 45.4475C3.35687 45.5726 3.30967 45.7047 3.27879 45.841C3.26207 45.9164 3.25029 45.9987 3.24407 46.082C3.26636 46.1888 3.30622 46.3715 3.34479 46.5858C3.38872 46.825 3.42622 47.0893 3.42707 47.2779C3.42857 48.0513 3.19564 48.4203 3.04864 48.5833C3.06322 48.6523 3.0765 48.7204 3.09793 48.7931C3.12793 48.8992 3.16222 49.0024 3.19993 49.1007C3.37929 49.563 3.666 49.9963 4.02922 50.2727C4.41493 49.8241 4.93714 49.4453 5.55793 49.2052C5.97292 49.0457 6.40845 48.9455 6.85157 48.9076L6.888 49.3274C6.47164 49.3637 6.07414 49.4577 5.71007 49.5972C5.11222 49.8294 4.60564 50.1881 4.26214 50.6226C3.92786 51.0495 3.74893 51.5535 3.79543 52.0918C3.81086 52.2632 3.85843 52.44 3.921 52.6169C4.13529 52.7099 4.39179 52.8763 4.62107 53.119C4.6742 53.174 4.72448 53.2317 4.77172 53.2918C4.821 53.3529 4.86643 53.4166 4.908 53.4837H4.90864L4.91143 53.4894C5.16857 53.8949 5.12272 54.9439 5.10536 55.2427C5.16107 55.3154 5.21807 55.3874 5.28107 55.4521V55.4534C5.37964 55.5566 5.4915 55.6542 5.61107 55.7452C5.72893 55.8339 5.85493 55.914 5.98607 55.9862C6.59764 56.3203 7.3275 56.4712 8.02736 56.4684C8.14668 56.4682 8.26593 56.4628 8.38479 56.4524C8.59002 56.4335 8.79358 56.3995 8.99379 56.3507C9.18548 56.3041 9.37343 56.2435 9.55607 56.1691C10.3481 55.8452 10.9275 55.3032 11.1182 54.7394C10.8461 54.4061 10.6131 54.0333 10.4696 53.6289C10.2789 53.0936 10.2086 52.5315 10.281 52.057C10.3341 51.7145 10.4616 51.4127 10.671 51.189L10.9783 51.4778C10.8283 51.6346 10.7387 51.8596 10.6989 52.1187C10.6363 52.5251 10.6995 53.0143 10.8675 53.4875C11.0368 53.9618 11.3111 54.4164 11.6683 54.7518C11.9589 55.0246 12.3047 55.218 12.6932 55.2773C13.6412 55.4209 14.4302 55.2701 15.0004 54.958C15.1101 54.8971 15.2115 54.8302 15.3021 54.7621C15.378 54.704 15.4449 54.6409 15.5089 54.5768C15.57 54.2265 15.9171 52.7938 17.3295 52.684C17.4351 52.4999 17.5481 52.226 17.6368 51.9156C17.6638 51.8211 17.6874 51.7325 17.706 51.6515C17.726 51.5644 17.7432 51.4767 17.7576 51.3885C17.7812 51.2433 17.7941 51.1072 17.7941 50.9869C17.7919 49.8471 17.328 48.9285 16.7771 48.325C16.6685 48.2045 16.551 48.0924 16.4256 47.9894C16.3089 47.8939 16.1921 47.811 16.0776 47.7458H16.077C16.0149 47.7095 15.9555 47.6774 15.9 47.6529L16.0736 47.2696C16.1464 47.3012 16.2193 47.339 16.2904 47.3816H16.2898C16.4222 47.458 16.5583 47.5525 16.6935 47.6644C16.8289 47.7749 16.9624 47.9011 17.0899 48.0419C17.3863 48.3666 17.6578 48.7768 17.8607 49.2545C18.9208 49.0883 19.9378 48.7204 20.7921 48.4047L21.2413 48.2406L21.4016 48.1842L21.4916 48.3263C21.4959 48.3335 22.9438 50.719 26.1437 50.7096C26.271 50.7096 26.4034 50.7053 26.5376 50.6981C26.7677 50.6852 26.997 50.6617 27.2226 50.6282C27.4498 50.5951 27.669 50.5528 27.8771 50.5034C28.6918 50.309 29.3927 49.9911 29.9059 49.6198C29.7932 49.5993 29.6781 49.591 29.5667 49.5632C29.3139 49.4996 29.0659 49.4167 28.8287 49.3175C27.684 48.839 26.7212 47.962 26.2174 46.9665L26.5939 46.7759C27.054 47.686 27.9381 48.4876 28.9939 48.9287C29.2138 49.0206 29.4401 49.0963 29.6711 49.1552C29.9019 49.2118 30.1378 49.2526 30.3754 49.2712C30.4965 49.2814 30.6137 49.2861 30.7241 49.2861C31.1741 49.2861 31.6526 49.1481 32.1291 48.9364C32.6156 48.7185 33.1026 48.4224 33.5569 48.1145C34.5011 47.4715 34.8255 46.8359 34.9363 46.5005C31.9191 46.5817 31.2994 45.0187 31.2973 45.014L31.2159 44.8154L31.4173 44.737C33.4796 43.9386 35.7516 43.4203 38.0023 43.5188C38.4411 43.5393 38.8802 43.5829 39.3169 43.6513C39.7558 43.7201 40.19 43.8161 40.617 43.9386V43.9371L40.6213 43.9386L40.7316 43.9702L40.7653 44.0792C40.7674 44.0849 41.4343 46.2739 44.0471 46.1728L44.0638 46.5922C43.5636 46.6118 43.1434 46.5409 42.7631 46.4341C42.7573 46.514 42.7423 46.5937 42.7491 46.6721C42.7864 47.0861 43.0048 47.4882 43.3564 47.8172C43.7181 48.1551 44.2179 48.4181 44.8059 48.5435C45.1487 48.6147 45.5265 48.6397 45.9212 48.6044L45.9566 49.0225C45.5194 49.0616 45.1022 49.0353 44.7201 48.9541C44.0533 48.8148 43.4833 48.5145 43.0674 48.1257C42.6424 47.7262 42.3761 47.2299 42.3294 46.7103C42.3176 46.5774 42.3351 46.4433 42.3529 46.308C41.07 45.7797 40.5401 44.6716 40.4029 44.318C40.0243 44.2112 39.6392 44.1309 39.2522 44.0696C38.8324 44.0037 38.4093 43.9616 37.9847 43.9433C35.8809 43.8504 33.7526 44.315 31.8004 45.045C32.0719 45.4182 32.9186 46.2034 35.1911 46.0726L35.4375 46.0581L35.4126 46.3038C35.4126 46.3065 35.3325 47.42 33.7959 48.4649C33.3251 48.7845 32.8172 49.0919 32.3019 49.3212C32.1527 49.388 32.0019 49.4295 31.8519 49.4814C32.1497 49.8873 32.5629 50.0629 33.4789 50.4096L34.2047 50.6895C34.482 50.7985 34.7426 50.9463 34.9847 51.1236C35.2247 51.2998 35.4466 51.4991 35.6473 51.7188C35.8474 51.9335 36.0291 52.1687 36.1916 52.408C36.8415 53.3689 37.1874 54.4546 37.1889 54.9862C37.1892 55.1373 37.1838 55.2884 37.1728 55.4391C37.1248 56.124 36.9771 56.911 36.8293 57.7019C36.6482 58.6701 36.465 59.6473 36.4667 60.4279C36.4682 61.1376 36.6778 61.705 36.8882 62.2754C37.0802 62.795 37.2733 63.3193 37.3286 63.9679C37.4181 65.0132 37.5454 65.9158 37.7786 66.7695C38.013 67.6198 38.3565 68.4299 38.8815 69.2979L39.4956 70.2921C40.4668 71.8453 41.2806 73.1459 41.2836 74.3506C41.2858 75.5974 41.0079 76.3827 40.8015 76.7903C41.2714 76.7587 42.1414 76.6164 43.0566 76.049C43.5885 75.7179 44.1609 75.3028 44.6929 74.7339C45.1858 74.2062 45.6371 73.5255 46.0018 72.677C45.3401 72.2027 44.7255 71.6703 44.2174 71.0847C43.851 70.6639 43.5356 70.2182 43.2885 69.7551C43.0391 69.2893 42.8591 68.8057 42.7674 68.3137C42.74 68.1687 42.7206 68.0223 42.7093 67.8753L43.1306 67.8432C43.1409 67.9772 43.1576 68.1088 43.182 68.2385C43.2651 68.6856 43.4306 69.1283 43.6594 69.5579C43.8902 69.9903 44.1887 70.4114 44.5352 70.8091C46.2574 72.7917 49.1644 74.2391 51.2368 74.2333C54.0542 74.2273 56.7234 72.8083 56.7311 72.8036L56.9376 72.6964L57.0259 72.9111L57.0274 72.9154V72.9167C57.1161 73.1374 57.2018 73.3973 57.2813 73.6873C57.3608 73.9772 57.4348 74.294 57.4999 74.6221C57.8368 76.3366 57.9853 78.5919 57.7356 80.2673C57.6414 80.9 57.5033 81.2963 57.2282 81.5491H57.2288C56.9494 81.8029 56.5613 81.8845 55.9688 81.8858C55.2947 81.8885 54.888 81.8116 54.5961 81.6696C54.2876 81.5185 54.1243 81.3111 53.9276 81.0496C53.1176 79.9682 52.4336 79.2394 51.7487 78.785C51.0776 78.3407 50.397 78.157 49.5795 78.1582C48.1294 78.161 47.8545 78.7603 47.6518 79.2136V79.2149L47.6432 79.2341C47.7306 79.3879 47.8639 79.6956 47.8646 80.2068C47.8667 81.2436 47.271 81.7736 47.0417 81.9383C47.0117 82.1338 46.9864 82.3694 47.0053 82.6378C47.022 82.8664 47.0882 83.1184 47.1917 83.3769C47.3036 83.2817 47.4216 83.1795 47.568 83.0821C47.7703 82.9486 47.9953 82.8382 48.2109 82.8166H48.2121L48.2211 82.8151H48.2218C48.2689 82.8108 48.3381 82.8065 48.4219 82.8023C48.5006 82.798 48.5994 82.795 48.7144 82.792C49.2793 82.7818 50.1495 82.8048 50.7122 82.9576L50.6025 83.3639C50.0826 83.2229 49.2585 83.2026 48.7221 83.2129C48.6287 83.214 48.5352 83.2169 48.4419 83.2216C48.3817 83.2241 48.3217 83.2284 48.2619 83.2347H48.2539C48.1146 83.2496 47.9533 83.3321 47.7988 83.4333C47.6306 83.5449 47.4731 83.6784 47.3578 83.7788C46.8379 84.2257 46.7471 84.7686 46.6667 85.2529C46.6624 85.2736 46.6573 85.308 46.6528 85.3334C47.8656 86.3647 47.4896 87.8437 47.3721 88.2017C47.4107 88.3053 47.4536 88.4085 47.5046 88.5072C47.5633 88.6208 47.6302 88.7301 47.7047 88.8341C48.0304 89.2844 48.4873 89.5946 48.9917 89.7224C48.9268 89.0345 48.9654 88.0603 49.464 87.207V87.2055C49.8711 86.5144 50.3301 86.0978 50.8774 85.8803C51.4196 85.6654 52.0331 85.6539 52.7541 85.7671L52.6877 86.1822C52.0391 86.079 51.4952 86.0861 51.0324 86.2707C50.5759 86.4522 50.1838 86.8122 49.8289 87.4172C49.3575 88.2248 49.3457 89.181 49.4201 89.8065V89.808C49.4308 89.8999 49.4445 89.9762 49.4578 90.052C49.6056 89.933 49.7394 89.8495 49.8328 89.8283C49.9239 89.8097 50.0304 89.8027 50.1446 89.8097C50.4504 89.83 50.841 89.9593 51.1877 90.2434C51.5291 90.5222 51.8319 90.9506 51.9709 91.5744C52.0299 91.8393 52.0502 92.1463 52.0408 92.4823C52.1556 92.5144 52.3065 92.5614 52.4361 92.6195C53.0754 92.9058 53.4776 93.0782 53.8826 93.148C54.2846 93.2177 54.7112 93.1871 55.4055 93.0724C56.5172 92.8883 57.2955 92.4353 57.8049 91.656C58.3269 90.8561 58.5806 89.7076 58.6326 88.1577L58.6391 87.9548H58.8426C58.8426 87.9548 59.0559 87.9562 59.3156 87.9259C58.9326 87.5696 58.7786 87.1457 58.5474 85.9359L58.9616 85.859C59.2631 87.4352 59.4036 87.5296 60.2269 88.0765L60.4423 88.2218H60.4431C61.875 89.1842 63.1911 89.3583 64.2889 89.174C64.5043 89.1376 64.7102 89.0885 64.9056 89.0287C65.1011 88.9689 65.2901 88.9009 65.4675 88.8225H65.4666L65.4726 88.8195H65.4763C66.4401 88.4017 66.5912 87.6266 66.6141 87.0256C66.6178 86.9092 66.6171 86.8094 66.6171 86.7112C66.5096 86.6129 66.405 86.5131 66.3257 86.4087C66.2258 86.2736 66.1472 86.1331 66.0889 85.9893V85.9878C66.0593 85.9137 66.0353 85.841 66.0169 85.7699C65.9805 85.6263 65.9625 85.4768 65.9625 85.3247C65.9604 84.453 66.2631 83.6641 66.3733 83.4049C66.1532 82.9548 65.8997 82.5839 65.5963 82.3229C65.2852 82.0496 64.8959 81.8805 64.4833 81.8396C63.2398 81.7046 62.2161 82.5478 62.2134 82.5506L61.6892 82.9744L61.8784 82.3301C62.9884 78.5417 65.6798 78.1948 66.4941 78.177L66.2798 73.615L66.2713 73.3813L66.507 73.3959C67.9286 73.492 69.0047 73.2897 69.8018 72.9081C70.4929 72.5785 70.9753 72.1142 71.2933 71.59C71.613 71.0659 71.7696 70.4825 71.8076 69.9179C71.8504 69.2742 71.7283 68.6739 71.5294 68.2034C71.0612 68.4811 70.5433 68.6709 69.9722 68.6911C69.1493 68.7189 68.2258 68.7809 67.4676 68.9279C66.7601 69.0642 66.2102 69.2643 66.0711 69.5649L65.6854 69.3865C65.8922 68.9422 66.5539 68.6751 67.386 68.5143C68.1666 68.3647 69.1131 68.3006 69.9578 68.2703C71.1221 68.2312 72.1056 67.4862 72.6343 66.4063C72.7444 66.1814 72.8351 65.9421 72.9021 65.6923C72.9707 65.4411 73.0163 65.1783 73.0376 64.9083C73.0461 64.7876 73.0513 64.6701 73.0513 64.5558C73.0485 63.4483 72.5505 62.8067 72.2441 62.5177C71.8562 63.895 71.4255 63.9356 69.9139 64.0764L69.9184 64.0755ZM22.1014 46.216C20.4786 46.7924 19.47 47.1508 18.4586 47.2743L18.4093 46.8562C19.3768 46.7387 20.3679 46.3858 21.963 45.8184L24.1622 45.0508L24.2976 45.4503L22.1034 46.2164L22.1014 46.216ZM36.7494 55.4087V55.4072C36.76 55.2663 36.7655 55.125 36.7661 54.9836C36.7648 54.5147 36.4438 53.5351 35.8395 52.6406C35.6882 52.4172 35.5191 52.2006 35.3344 51.9991C35.1497 51.8004 34.9494 51.6163 34.7353 51.4607C34.5227 51.3054 34.2932 51.1749 34.0479 51.0794H34.0472L33.7879 50.9796L32.9807 51.9632V51.9647L32.8256 52.1548C33.405 52.4757 34.8369 53.4232 34.8405 54.9693C34.8405 55.2171 34.6009 55.4756 34.3069 55.7689C34.0541 56.0217 33.7519 56.3105 33.5754 56.5936C33.5381 56.6512 33.5034 56.7183 33.4708 56.7895C33.4326 56.8736 33.3949 56.9696 33.3594 57.0736C33.3246 57.1753 33.2919 57.2885 33.2608 57.4103C33.1211 57.9572 33.0409 58.6323 33.0422 59.2886C33.0434 59.4229 33.0563 59.5568 33.0806 59.6889C33.1108 59.8553 33.1544 60.019 33.2109 60.1784C33.2735 60.3525 33.3467 60.5227 33.4301 60.6879C33.8274 61.4702 34.4921 62.2569 35.2794 62.8798L35.2744 62.8862L35.7613 62.9219C36.084 62.9463 36.375 62.9646 36.6791 62.977C36.6198 62.7892 36.5563 62.6028 36.4886 62.4179C36.2666 61.8144 36.0444 61.213 36.0429 60.4254C36.0407 59.6035 36.2271 58.6094 36.4114 57.6237C36.5571 56.8454 36.7018 56.0734 36.7483 55.4083L36.7494 55.4087ZM17.5033 56.2131C17.7947 55.8648 18.0459 55.406 18.1281 54.9253V54.9238C18.1467 54.8154 18.1561 54.7057 18.1562 54.5958C18.1556 54.4862 18.1443 54.3769 18.1224 54.2694L18.1215 54.2651C18.0251 53.8122 17.5521 53.2696 17.3826 53.0865C16.3412 53.1517 16.0262 54.1692 15.9435 54.5563C16.5171 54.8699 17.2048 55.7869 17.5035 56.2129L17.5033 56.2131ZM12.0879 72.5687C13.1136 73.0098 14.3721 73.1638 15.7204 72.8833C16.1908 72.7863 16.6734 72.6214 17.1596 72.4118C16.6723 71.9759 16.1981 71.5257 15.7376 71.0617C15.2091 70.5318 14.9029 69.6247 14.7767 69.1761C13.0952 70.0441 11.3824 70.3731 9.72536 70.1197C9.77186 70.2684 9.80829 70.4216 9.876 70.5626C10.2868 71.4159 11.0717 72.1313 12.0874 72.5687H12.0879ZM9.10757 76.7559C8.95757 76.7559 8.76472 76.8051 8.55514 76.8862C8.4439 76.9291 8.33553 76.9791 8.23071 77.0358C8.01429 77.1518 7.80771 77.2896 7.64357 77.4391C7.56279 77.5118 7.49357 77.5872 7.4385 77.6598C8.01343 77.86 9.42922 78.4381 9.87579 79.4046C11.0704 79.1679 11.5851 78.2275 11.7304 77.898C11.2922 77.4622 10.7004 77.1518 10.1546 76.9632C10.0185 76.9204 9.88821 76.879 9.76671 76.8499C9.64371 76.8179 9.52564 76.7965 9.41529 76.7805C9.31332 76.7654 9.21044 76.7571 9.10736 76.7557L9.10757 76.7559ZM45.2619 13.9227C45.2246 13.9767 45.2104 14.0252 45.1811 14.0737C45.24 14.081 45.2959 14.0831 45.3559 14.0912C46.2831 14.216 47.2914 14.5384 48.1744 15.1393C48.8826 15.6211 49.3916 16.0234 49.7876 16.469C50.1883 16.9189 50.4669 17.4069 50.7126 18.0555L50.7186 18.0711C50.8386 18.3928 50.9115 18.7084 50.9835 19.0183C53.9771 19.148 54.3017 16.9238 54.3291 16.2919C53.3649 16.0868 52.6331 15.8909 52.0011 15.5015C51.3283 15.0849 50.7849 14.4561 50.2149 13.3779C50.0027 12.9799 49.4606 12.2888 48.8987 11.7709V11.7724C48.789 11.6707 48.6795 11.5802 48.5751 11.4968H48.5743C48.4676 11.4142 48.3647 11.343 48.27 11.2864H48.2679L48.2657 11.2849C47.8886 11.0642 47.4851 10.8888 47.0501 10.7786C46.6714 10.682 46.2643 10.6474 45.8338 10.6632C45.8535 10.8811 45.8766 11.0862 45.8794 11.342C45.8831 13.0564 45.5199 13.5655 45.2623 13.9255L45.2619 13.9227ZM10.95 89.5307C10.8161 89.3577 10.6646 89.2302 10.5161 89.1577C10.4271 89.1144 10.3425 89.0909 10.2675 89.0909C10.1351 89.0909 9.95957 89.165 9.77464 89.2938C9.62314 89.4006 9.46972 89.5408 9.3285 89.7089C9.17862 89.887 9.05323 90.0842 8.95564 90.2953H8.955C8.82172 90.5844 8.73814 90.911 8.73857 91.2546C8.73921 91.728 8.87143 92.0487 8.97729 92.2273C9.3 91.9367 10.0367 91.4368 11.2007 91.5308C11.2196 91.4926 11.2363 91.4534 11.2509 91.4133C11.2712 91.3556 11.2894 91.2915 11.3044 91.2247C11.3109 91.1941 11.3177 91.158 11.3248 91.1189C11.3439 91.0014 11.3537 90.8825 11.3541 90.7634C11.3538 90.5706 11.328 90.3787 11.2776 90.1926C11.2056 89.933 11.0891 89.7093 10.9519 89.5307H10.95ZM23.2534 90.8852C22.7792 90.8867 22.407 91.039 22.1344 91.2597C21.8855 91.4618 21.7015 91.7322 21.6051 92.0376H21.6043C21.5857 92.0999 21.5717 92.1635 21.5623 92.2279C22.6444 92.6488 22.8939 93.5198 22.9455 94.0118C24.4185 93.1636 24.0448 91.4165 23.9205 90.9724C23.6788 90.9115 23.4559 90.8837 23.253 90.8852H23.2534ZM30.4586 20.7522C30.438 20.7394 30.4549 20.7522 30.465 20.7608C30.4684 20.7595 30.4678 20.7565 30.4596 20.7522H30.4584H30.4586ZM29.3621 22.1379C29.5935 22.2793 29.7446 22.3679 29.8965 22.4258C30.0486 22.4857 30.2171 22.5233 30.4929 22.5711C30.5606 22.5826 30.6326 22.5985 30.7029 22.6123C30.6664 22.544 30.6092 22.4825 30.5807 22.4098C30.4896 22.1791 30.441 21.9236 30.4389 21.613L30.4374 21.4361L30.4228 20.8144C30.4213 20.7887 30.4307 20.7768 30.4416 20.7695C29.9402 20.7781 29.8644 20.8201 29.8151 20.9191H29.8142L29.7564 21.0351V21.0366C29.5024 21.5429 29.7238 21.1077 29.7579 21.0425L29.7591 21.0383L29.7606 21.0368L29.7579 21.0428C29.7154 21.1325 29.6261 21.3198 29.5371 21.5478C29.4636 21.7341 29.4047 21.9424 29.3623 22.1379H29.3621ZM18.3064 27.4959C18.2897 28.2551 18.4329 30.7959 20.8821 30.5199C20.7146 29.7422 20.8515 28.783 20.8521 28.7787L20.8757 28.5946H21.0621C21.0636 28.5946 21.4217 28.6063 22.2911 28.5976C24.6996 28.5756 26.3961 28.4395 27.6669 28.213C28.9219 27.9896 29.7531 27.6772 30.4476 27.2987C31.5319 26.7078 32.8026 26.0474 33.5934 25.702C33.6465 25.6785 33.6855 25.6656 33.7352 25.6447C33.3049 25.5003 32.778 25.3683 32.2742 25.2666C32.1006 25.2315 31.9263 25.1995 31.7516 25.1706C31.5983 25.1449 31.4447 25.1217 31.2906 25.101C31.0817 25.0747 30.9099 25.0604 30.7971 25.0604C30.4551 25.0613 29.9214 25.1068 29.3186 25.1672L29.3289 25.1796L29.3252 25.1826C29.0709 25.3873 28.7655 25.5874 28.4128 25.7791C28.0635 25.9709 27.6703 26.1508 27.2394 26.3196C25.0744 27.1641 21.8865 27.7114 18.3086 27.4946L18.3064 27.4959ZM15.1035 41.1045C15.7892 41.529 16.7291 41.7518 18.0109 41.7657L18.3028 41.6397C19.9442 40.9351 21.8357 40.1228 23.0166 39.4172C22.2549 39.1769 21.6104 38.6619 21.2091 37.973C21.1049 37.7907 21.0211 37.5975 20.9593 37.3968C20.9091 37.2328 20.8871 37.0601 20.8704 36.8862L19.8411 37.0238C18.6596 37.7252 17.556 38.3405 16.5219 38.7821C15.5719 39.1884 14.6764 39.4388 13.8206 39.4903C14.0979 40.1814 14.499 40.7285 15.1031 41.1045H15.1035ZM33.957 38.6919C34.7143 38.0694 37.4462 35.9819 40.08 35.9774C41.2684 35.9747 42.8736 36.4333 44.5179 37.6267C44.8577 37.8717 45.2008 38.1518 45.5428 38.4642C45.8992 38.792 46.2375 39.139 46.5561 39.5035C46.7165 39.6873 46.8723 39.875 47.0233 40.0664C47.9169 40.8099 48.6911 41.2613 49.4361 41.5239C50.1834 41.7879 50.9072 41.8663 51.6956 41.8648C54.6313 41.8576 55.8343 39.0068 56.1705 37.9835L56.0644 38.0098C55.9511 38.0349 55.8374 38.0587 55.7235 38.0809C55.1721 38.1852 54.4772 38.2636 53.7675 38.2651C53.6261 38.2666 53.4857 38.2636 53.3481 38.2578C53.0171 38.245 52.6828 38.2155 52.3511 38.1691C52.0159 38.1213 51.6804 38.0531 51.3482 37.9662C49.7291 37.5389 48.1764 36.6062 47.0814 34.8962C47.0503 34.8471 47.0057 34.7937 46.9513 34.7351V34.7336C46.818 34.5914 46.6249 34.4361 46.3864 34.275C46.1417 34.1079 45.8535 33.9383 45.5357 33.7723C43.9757 32.9566 41.685 32.1961 40.1679 32.1991C38.7536 32.2021 37.2004 32.4789 37.0243 32.511C35.6565 33.1459 34.8819 33.7447 34.4325 34.392C33.9864 35.0366 33.8503 35.7495 33.7596 36.6087C33.6739 37.4347 33.7502 38.0749 33.8904 38.5131C33.9102 38.5733 33.9323 38.6329 33.9566 38.6915L33.957 38.6919ZM23.7163 39.1143C23.9391 39.1179 24.162 39.115 24.3846 39.1055C24.6164 39.0968 24.8478 39.0804 25.0785 39.0564C26.2806 38.9357 27.5893 38.6195 28.9386 38.0288L28.9586 38.0215L30.0936 37.5062C31.3725 36.917 32.5097 36.4103 33.3636 36.3936C33.4622 35.5493 33.6193 34.8283 34.0866 34.1547C34.4874 33.5762 35.1298 33.0406 36.1262 32.4986C35.3387 32.4935 34.1119 32.527 33.0411 32.7396C31.9127 32.9645 31.2641 33.3292 30.6619 33.6667C30.0463 34.0133 29.4739 34.3333 28.5227 34.4711C28.3954 34.6414 28.1166 34.8172 27.756 34.9892C27.4161 35.1505 26.9904 35.3156 26.5532 35.4724C23.8046 36.4564 22.6078 36.6307 21.714 36.7602L21.4316 36.8021L21.2846 36.8247C21.2974 36.9785 21.3193 37.1311 21.3632 37.2734C21.4146 37.4432 21.4875 37.6088 21.5764 37.7639C22.0271 38.5505 22.8879 39.0948 23.6764 39.1111L23.7163 39.1123V39.1143ZM28.2099 25.4116C28.3009 25.3625 28.3614 25.3091 28.4456 25.2578L28.3333 25.2693L25.7456 25.5061C25.6588 25.5103 25.5853 25.5103 25.503 25.5135V25.5163C25.4972 25.5163 25.4893 25.5142 25.4816 25.5142L25.1501 25.5236C23.1911 25.5278 21.5679 24.998 20.9679 24.7746C20.8993 25.2467 20.8965 25.6569 20.9899 26.0126C21.0945 26.4149 21.3285 26.7545 21.7335 27.0491C23.8365 26.8889 25.6806 26.4723 27.0806 25.9284C27.4999 25.766 27.8762 25.5919 28.2073 25.4114L28.2099 25.4116ZM66.5606 13.7881C66.4599 13.7943 66.3595 13.8055 66.2599 13.8216C66.1457 13.8387 66.0343 13.865 65.9278 13.897C65.8291 13.9276 65.7333 13.9669 65.6417 14.0145C65.2539 14.2192 65.0063 14.5914 65.0079 15.1977C65.0079 15.3295 65.0198 15.4632 65.0456 15.5908C65.0608 15.6707 65.0822 15.7493 65.1096 15.826C65.1362 15.9014 65.1675 15.9725 65.2035 16.0364C65.3492 16.2979 65.5828 16.4908 65.9102 16.5562L65.9183 16.5575H65.919C66.0384 16.5788 66.1993 16.5981 66.3893 16.6126C66.5908 16.6275 66.8136 16.6361 67.0483 16.6414C68.2907 16.6707 70.0011 16.6008 70.6633 16.5444C70.7741 16.5359 70.8711 16.4953 70.9579 16.4325C71.0505 16.3658 71.1321 16.2744 71.2022 16.1669C71.2764 16.0537 71.3376 15.926 71.3848 15.7969C71.4825 15.5299 71.5262 15.2539 71.5254 15.0652C71.5254 14.9464 71.5099 14.8227 71.481 14.6995C71.4308 14.4875 71.3389 14.2829 71.2106 14.113C71.0869 13.9507 70.929 13.8199 70.7434 13.7488C70.6336 13.7069 70.5168 13.6862 70.3993 13.6877L68.4424 13.7212L66.561 13.7881H66.5606ZM1.16036 17.5878C2.0025 17.6502 2.7 18.0437 3.17743 18.7351C3.44957 18.5464 3.97372 18.0194 3.70822 16.8627C3.40736 16.697 2.26607 16.1278 1.37722 16.4782H1.37636C0.728573 16.7346 0.466716 17.2845 0.365359 17.625C0.449545 17.611 0.534254 17.6003 0.619287 17.593C0.799307 17.5783 0.980187 17.5773 1.16036 17.59V17.5878ZM72.7796 17.3601C72.5546 17.2178 72.321 17.1016 72.0838 17.0146C71.8493 16.9275 71.6141 16.8694 71.3852 16.8433H71.3846C71.2999 16.8348 71.2191 16.8288 71.145 16.8273L71.1456 16.7952C71.0123 16.8803 70.8671 16.9476 70.6995 16.9619H70.6986C70.0339 17.0185 68.3044 17.0896 67.0391 17.0593C66.7851 17.0535 66.5543 17.0448 66.3598 17.03C66.1541 17.0159 65.9768 16.9954 65.8401 16.9694L65.8307 16.9676H65.8286C65.6092 16.9259 65.4029 16.8327 65.2268 16.6957L65.223 16.6963C65.106 16.7113 64.9873 16.7314 64.8701 16.7587C64.7489 16.7863 64.6295 16.8213 64.5126 16.8634C63.8998 17.077 63.3006 17.4688 62.8455 18.0027L62.844 18.0042C62.3593 18.5716 62.0608 19.2019 61.8846 20.0075C61.7031 20.8334 61.6472 21.8392 61.6511 23.1415C61.6526 24.0226 61.8568 24.9354 62.2939 25.8833C62.7345 26.8398 63.4108 27.8311 64.3519 28.8572C65.283 29.8734 65.9297 30.6602 66.3461 31.3858C66.7746 32.1305 66.9589 32.8094 66.9602 33.598C66.9623 34.6311 66.5059 35.4557 66.1898 35.9014C66.9356 35.8608 67.5323 35.6942 68.0076 35.4542C68.2169 35.3482 68.4145 35.2208 68.5974 35.074C69.4759 34.3643 69.7374 33.3756 69.7641 32.8372C69.8085 31.9429 69.7384 31.2059 69.5835 30.5598C69.4292 29.9153 69.1907 29.3607 68.8969 28.8326H68.8956C68.7885 28.6424 68.6764 28.4566 68.5583 28.2763C68.3706 27.9879 68.1812 27.7208 67.9986 27.4638H67.998C67.4177 26.6467 66.8944 25.9077 66.8929 25.2313H67.3142C67.3151 25.7729 67.8028 26.4608 68.3428 27.2215H68.3421L68.9121 28.0475C69.0373 28.2404 69.1575 28.4352 69.2657 28.6307H69.2651C69.5751 29.1898 69.8291 29.7792 69.9928 30.4626C70.1492 31.1172 70.2178 31.8656 70.1831 32.7475C70.3024 32.7206 70.4263 32.6983 70.5323 32.6545C70.7181 32.5789 70.8859 32.4787 71.0376 32.3612C71.1897 32.2412 71.3277 32.1044 71.4489 31.9534C72.0116 31.2554 72.2439 30.3015 72.2423 29.6818C72.2419 29.5694 72.2373 29.4571 72.2284 29.3451C72.0988 27.557 70.9988 25.9675 70.1333 24.7177C69.6105 23.9615 69.1691 23.3242 69.0495 22.8021L69.4613 22.7102C69.5627 23.1528 69.9821 23.7598 70.4805 24.4782C71.2532 25.5945 72.2038 26.9735 72.5385 28.5544C73.8488 27.5817 73.6517 25.8064 73.5317 24.8166V24.8137C73.3809 24.4883 72.819 23.3082 72.3274 22.735C72.2387 22.6318 72.1479 22.5363 72.0574 22.4419C71.5903 21.9526 71.1506 21.4925 70.836 19.8359L71.2508 19.7594C71.5423 21.2921 71.9404 21.7087 72.363 22.1515C72.4608 22.2519 72.5556 22.355 72.6476 22.4607C73.086 22.9717 73.5673 23.9134 73.8058 24.4086C74.1094 23.9775 74.3432 23.5508 74.5065 23.0687C74.7073 22.4795 74.8065 21.8082 74.805 20.9466C74.8013 19.3747 73.89 18.0578 72.7791 17.3597L72.7796 17.3601ZM3.00729 47.2745C3.00729 47.1147 2.97214 46.8772 2.93229 46.6561C2.91002 46.5323 2.88573 46.409 2.85943 46.286C2.24657 46.2655 -0.00235529 46.3294 1.85154e-06 48.4369C0.315645 48.2831 0.646288 48.1801 1.03157 48.1378C1.506 48.0872 2.05929 48.1321 2.76407 48.2917C2.84979 48.1912 3.00879 47.9186 3.00729 47.2741V47.2745ZM4.55486 53.7103L4.55272 53.7076H4.55186C4.51828 53.6531 4.48143 53.6007 4.4415 53.5507C4.40195 53.501 4.36019 53.453 4.31636 53.407L4.3155 53.4055C4.12264 53.2025 3.90879 53.0487 3.747 52.9816C3.49629 53.0863 2.65072 53.4708 2.32736 53.9996L2.32607 54.0009L2.32457 54.0039C2.27491 54.0868 2.23432 54.1748 2.2035 54.2664C2.17136 54.3626 2.14779 54.4638 2.13214 54.5713V54.5728C2.06464 55.033 2.14672 55.5598 2.33743 55.9969C2.65243 55.6672 3.34714 55.1637 4.69179 55.1071C4.70936 54.7486 4.72436 53.9821 4.55464 53.7105L4.55486 53.7103ZM29.3113 17.0648C29.2856 17.2238 29.2806 17.3964 29.3424 17.6344C29.4259 17.9519 29.622 18.387 29.9466 18.9803C30.1622 18.9444 30.2831 18.8917 30.3902 18.835C30.4146 18.8222 30.4431 18.8094 30.4686 18.7966L30.4847 18.5738C30.525 17.9816 30.5655 17.4735 30.744 17.0381C30.7076 17.0424 30.6677 17.0454 30.6321 17.0497C30.4341 17.0745 30.2301 17.101 29.8997 17.1022C29.688 17.1022 29.4941 17.0883 29.3115 17.0651L29.3113 17.0648ZM51.5357 21.1607C50.9357 20.6683 50.7799 19.9835 50.6087 19.2416C50.5309 18.9049 50.4493 18.555 50.3241 18.2161L50.3184 18.2016C50.0912 17.6006 49.8351 17.1535 49.4715 16.7457C49.104 16.3321 48.6186 15.9503 47.9364 15.4856C47.1122 14.9238 46.1685 14.6234 45.2989 14.5061C45.1284 14.4848 44.9604 14.467 44.7966 14.457C44.6938 14.4519 44.5991 14.4527 44.5024 14.4519L44.5416 15.1857C44.5781 16.1129 44.6151 17.058 44.9627 17.4774C45.1723 17.7286 45.4401 17.9188 45.7849 18.0493C46.1449 18.186 46.5894 18.2599 47.1392 18.2742L47.4062 18.2828L47.3372 18.5396C47.3357 18.5439 47.1064 19.3749 46.4094 20.0906C47.274 20.4196 48.0036 20.8244 48.6216 21.4254C49.2949 22.077 49.8538 22.9407 50.3818 24.1322C50.4722 24.3362 50.5721 24.509 50.6689 24.6897C53.8989 24.4605 54.3371 22.4006 54.3874 21.7099C53.1868 21.8302 52.401 21.8695 51.5359 21.1588L51.5357 21.1607ZM32.9578 32.3253C34.6421 31.9899 36.7048 32.0856 36.9396 32.0989C37.1531 32.06 38.7311 31.7814 40.1676 31.7784C41.7516 31.7741 44.1242 32.5578 45.7305 33.3999C46.0669 33.5757 46.3695 33.7524 46.6236 33.9255C46.7441 34.0064 46.8609 34.0926 46.9738 34.1837C46.5692 32.439 44.5834 30.6709 42.5252 29.6579C42.0585 29.4286 41.5866 29.2385 41.1298 29.096C40.677 28.955 40.2384 28.8638 39.8334 28.829C39.7133 28.8179 39.5928 28.812 39.4723 28.8114C37.8276 28.8157 35.433 29.1934 33.1515 29.7375L31.7651 30.093C31.3071 30.2191 30.8679 30.3488 30.4549 30.4793V30.4808L29.9706 30.6372C29.2811 30.8679 28.6635 31.0016 28.0056 31.0743C27.357 31.1452 26.6676 31.1569 25.8313 31.1469L23.9336 31.1394C24.018 31.6953 24.1971 32.1121 24.4401 32.4473C24.7183 32.8291 25.0858 33.1139 25.4936 33.3822L25.7811 33.5781C26.2569 33.9071 26.5665 34.1222 27.4626 34.1207C28.9959 34.1177 29.6912 33.7272 30.4547 33.2976C31.0858 32.9436 31.764 32.5618 32.9571 32.3255L32.9578 32.3253ZM49.9952 24.3041C49.4901 23.1633 48.9602 22.3417 48.3274 21.7277C47.7066 21.1259 46.9774 20.7204 46.0738 20.4016C45.5231 20.8283 44.7598 21.15 43.6916 21.0964C43.7938 21.5882 44.2761 22.6944 46.5566 22.5696L46.7987 22.5568L46.7784 22.7978C46.7784 22.8006 46.6641 24.1223 45.6426 25.0837C45.5174 25.1999 45.388 25.3116 45.2546 25.4185C45.3493 25.4313 45.4341 25.4163 45.5331 25.4407C45.8117 25.509 46.1023 25.6208 46.4014 25.7686C47.9079 26.5133 49.6249 28.203 50.2929 29.7939C50.4536 30.1772 50.6053 30.5054 50.757 30.7903C51.2149 30.8151 52.7756 30.8209 54.0928 29.8286C55.0303 29.1231 55.1927 28.1131 55.2178 27.6858C54.0945 27.7106 53.1114 27.5377 52.2581 27.05C51.348 26.5304 50.5965 25.6609 49.9952 24.3039V24.3041ZM34.3644 25.8705C34.3215 25.8763 34.2465 25.8961 34.1501 25.9314C34.0455 25.9677 33.9135 26.0216 33.7614 26.0882C32.9818 26.4279 31.7231 27.0823 30.6486 27.6691C29.9158 28.068 29.0449 28.3963 27.7412 28.6283C26.4546 28.8576 24.7361 28.9958 22.2947 29.0172H21.2507C21.2083 29.4508 21.1442 30.5254 21.5104 30.9519C21.6261 31.0869 21.723 31.2204 21.8169 31.3484C21.9825 31.5748 22.1398 31.7895 22.3547 31.9493L22.3569 31.9508C22.3989 31.9829 22.4526 32.0132 22.5141 32.0423C22.5789 32.0728 22.6569 32.1046 22.7434 32.1337C23.103 32.2559 23.5573 32.3255 23.8834 32.2869C23.6921 31.9188 23.5393 31.5024 23.4855 30.9495L23.4628 30.7188H23.6957C23.6979 30.7188 24.4633 30.7072 25.8369 30.726C26.6529 30.7378 27.3253 30.726 27.9604 30.6564C28.5889 30.587 29.1793 30.4592 29.8382 30.2385L30.3279 30.0789H30.3287C30.7581 29.9435 31.203 29.8115 31.6536 29.6884C32.1185 29.5612 32.5854 29.4416 33.0542 29.3297C35.3636 28.7785 37.7949 28.3965 39.4727 28.3918C39.6066 28.3918 39.7397 28.3976 39.8696 28.4079C40.3056 28.4455 40.7734 28.5442 41.2556 28.6937C41.4703 28.7606 41.6931 28.8721 41.9121 28.9586C41.6297 28.51 41.0329 28.1932 41.0306 28.1895L40.9689 28.1545L40.9389 28.0878C40.3131 26.6452 38.9792 26.2078 38.1718 25.9451C37.9179 25.8622 37.7248 25.7904 37.5825 25.7062L36.1671 25.7752L34.3684 25.8682V25.8667L34.3648 25.8682L34.3644 25.8705ZM6.1965 42.0389C6.50293 42.055 7.4715 42.0172 7.71429 40.8966C7.37786 40.5352 5.79172 39.0124 4.07679 40.3843C4.6185 40.5873 5.02757 40.827 5.35393 41.091C5.71822 41.3859 5.97472 41.7063 6.19607 42.0389H6.1965ZM53.4422 32.8462C53.2783 32.8359 53.1225 32.8227 52.9798 32.8071C52.8371 32.7915 52.6995 32.7695 52.5731 32.7447H52.5709L52.5019 32.7302L52.4998 32.7287C51.8366 32.5791 51.3628 32.3063 50.9599 31.8491C50.5699 31.4063 50.2571 30.797 49.9035 29.9563V29.9548C49.2729 28.4525 47.6449 26.8528 46.2161 26.1463C45.9431 26.0109 45.6795 25.9096 45.4329 25.8487C45.1963 25.7906 44.9771 25.7686 44.7864 25.7932L44.7799 25.7947L44.7714 25.728C44.6706 25.7823 44.5888 25.847 44.4707 25.8936C44.076 26.0474 43.5741 26.1435 42.8657 26.1576C43.6543 26.8513 45.0579 28.4205 44.6151 30.4613C46.1916 31.6534 47.4186 33.2076 47.4688 34.7174C47.6173 34.9454 47.7917 35.1272 47.9574 35.3263C49.1824 35.6826 50.3216 35.9148 51.3285 35.9133C52.3243 35.9121 53.1934 35.6826 53.8931 35.1165C54.9167 34.2876 55.2231 33.2758 55.3142 32.7985C54.8288 32.8669 54.0913 32.8857 53.4435 32.8464L53.4422 32.8462ZM11.6278 38.6567C11.8271 38.7686 12.0521 38.8628 12.3045 38.9354C12.561 39.0081 12.8449 39.0572 13.1584 39.0792C13.2778 39.0865 13.3974 39.0908 13.5163 39.0908C14.3979 39.0895 15.342 38.8267 16.3577 38.3943C17.2952 37.9931 18.3004 37.4359 19.3626 36.8121C17.9059 35.9747 17.7036 34.8268 17.7227 34.2331C17.0449 34.5074 16.3787 34.8484 15.7931 35.162C15.2194 35.4696 14.7161 35.7382 14.3246 35.8674V35.8659L14.3216 35.8674C12.7052 36.3998 10.8341 36.619 10.1811 36.6831C10.3515 37.3507 10.7554 38.1696 11.6276 38.6571L11.6278 38.6567ZM5.26243 25.333C4.77107 25.7163 3.90557 25.8799 3.11443 25.8949C2.95903 25.8982 2.80357 25.8957 2.64836 25.8874L2.58793 25.8846C3.58329 27.7556 5.49107 27.307 5.98993 27.1519C6.11357 25.6507 5.4825 25.3787 5.26264 25.333H5.26243ZM15.6795 32.0796C15.1609 32.5005 14.6066 32.759 14.0649 32.9171C13.5291 33.0767 13.008 33.1378 12.5486 33.1649C12.0309 33.197 11.2864 33.1912 10.9101 33.1854C10.9761 33.7195 11.328 35.115 13.1426 35.7587C13.4949 35.6732 13.8482 35.5796 14.1904 35.4668H14.1926V35.4656C14.5521 35.3481 15.0384 35.0881 15.594 34.7909C16.254 34.4373 17.0115 34.0389 17.7904 33.7441L17.8131 33.6544L17.9203 33.6732C18.1255 33.5227 18.3399 33.385 18.5623 33.2611C18.843 33.1012 19.1651 32.9372 19.4998 32.7804C19.8341 32.6251 20.1791 32.4785 20.5059 32.3522C20.9794 32.1717 21.42 32.0335 21.7652 31.9656C21.6632 31.8481 21.5717 31.7231 21.4781 31.5947C21.3876 31.4714 21.2944 31.3447 21.192 31.2245H21.1911C21.1219 31.1439 21.0669 31.0461 21.0189 30.9407C19.9502 31.0918 19.2373 30.8126 18.7716 30.3434C18.7003 30.3633 18.6302 30.3819 18.5372 30.4176C18.4033 30.4697 18.2539 30.5351 18.0951 30.6105C17.2652 31.0078 16.1758 31.6786 15.6806 32.0794L15.6795 32.0796ZM21.8081 32.8765C22.0832 32.744 22.3404 32.6227 22.5795 32.521C22.4929 32.4905 22.4087 32.4569 22.3322 32.4206C22.2594 32.386 22.1998 32.3488 22.1445 32.3116V32.3364C21.8503 32.3379 21.2852 32.5035 20.6574 32.7445C20.326 32.8727 19.9992 33.0121 19.6774 33.1626C19.3685 33.3051 19.0654 33.46 18.7689 33.6268C18.6939 33.6691 18.6306 33.7097 18.5621 33.7516C18.7157 33.764 18.8788 33.7742 19.0446 33.7733C19.9562 33.7721 20.9604 33.2871 21.8081 32.8761V32.8765ZM19.8206 36.6023C19.9277 36.5923 20.2757 36.5532 21.366 36.3844V36.3829L21.6521 36.341H21.6536C22.53 36.215 23.7043 36.0435 26.4107 35.0753C26.8277 34.9242 27.2391 34.7646 27.5732 34.6048C27.6279 34.5792 27.6636 34.5557 27.7125 34.5309C27.6289 34.5337 27.5518 34.5395 27.4626 34.5395C26.4326 34.5424 26.0805 34.2985 25.5396 33.9227L25.2611 33.7325C24.8169 33.4394 24.4125 33.1258 24.0992 32.6936C24.0949 32.6876 24.0928 32.6791 24.0885 32.6731C23.9327 32.7082 23.7534 32.7206 23.5577 32.7094L23.5571 32.7137C23.5335 32.7079 23.5029 32.7094 23.4739 32.7079C23.4624 32.7071 23.4516 32.7071 23.4396 32.7058C23.4345 32.7065 23.4311 32.705 23.4251 32.705H23.4242C23.0946 32.7225 22.5808 32.9705 21.9917 33.2553C21.105 33.6834 20.0554 34.1914 19.0449 34.1944C18.7131 34.1944 18.3634 34.1594 18.1466 34.132C18.1041 34.5907 18.1684 35.8012 19.8208 36.6023H19.8206Z" fill="#221F20"/>
</g>
<path d="M109.06 12V26H107.6V19.54H98.84V26H97.36V12H98.84V18.24H107.6V12H109.06ZM122.546 22.26H114.746L113.066 26H111.526L117.926 12H119.386L125.786 26H124.226L122.546 22.26ZM122.006 21.06L118.646 13.54L115.286 21.06H122.006ZM141.869 24.72V29.28H140.489V26H128.269V12H129.729V24.72H138.189V12H139.649V24.72H141.869ZM144.612 12H146.072V23.6L155.032 12H156.372V26H154.912V14.42L145.952 26H144.612V12ZM167.036 26.12C165.649 26.12 164.389 25.8133 163.256 25.2C162.136 24.5733 161.256 23.72 160.616 22.64C159.989 21.56 159.676 20.3467 159.676 19C159.676 17.6533 159.989 16.44 160.616 15.36C161.256 14.28 162.136 13.4333 163.256 12.82C164.389 12.1933 165.649 11.88 167.036 11.88C168.423 11.88 169.669 12.1867 170.776 12.8C171.896 13.4133 172.776 14.2667 173.416 15.36C174.056 16.44 174.376 17.6533 174.376 19C174.376 20.3467 174.056 21.5667 173.416 22.66C172.776 23.74 171.896 24.5867 170.776 25.2C169.669 25.8133 168.423 26.12 167.036 26.12ZM167.036 24.8C168.143 24.8 169.143 24.5533 170.036 24.06C170.929 23.5533 171.629 22.86 172.136 21.98C172.643 21.0867 172.896 20.0933 172.896 19C172.896 17.9067 172.643 16.92 172.136 16.04C171.629 15.1467 170.929 14.4533 170.036 13.96C169.143 13.4533 168.143 13.2 167.036 13.2C165.929 13.2 164.923 13.4533 164.016 13.96C163.123 14.4533 162.416 15.1467 161.896 16.04C161.389 16.92 161.136 17.9067 161.136 19C161.136 20.0933 161.389 21.0867 161.896 21.98C162.416 22.86 163.123 23.5533 164.016 24.06C164.923 24.5533 165.929 24.8 167.036 24.8ZM189.408 12V26H187.948V19.54H179.188V26H177.708V12H179.188V18.24H187.948V12H189.408ZM202.893 22.26H195.093L193.413 26H191.873L198.273 12H199.733L206.133 26H204.573L202.893 22.26ZM202.353 21.06L198.993 13.54L195.633 21.06H202.353ZM219.635 12V26H218.175V13.28H211.415L211.255 17.96C211.189 19.8933 211.029 21.4533 210.775 22.64C210.535 23.8133 210.162 24.6933 209.655 25.28C209.149 25.8533 208.475 26.14 207.635 26.14C207.275 26.14 206.902 26.0933 206.515 26L206.635 24.68C206.862 24.7333 207.082 24.76 207.295 24.76C207.882 24.76 208.355 24.5267 208.715 24.06C209.089 23.5933 209.369 22.8733 209.555 21.9C209.742 20.9133 209.869 19.6133 209.935 18L210.135 12H219.635ZM234.058 24.72V26H224.158V12H233.758V13.28H225.638V18.26H232.878V19.52H225.638V24.72H234.058ZM248.842 12V26H247.382V19.54H238.622V26H237.142V12H238.622V18.24H247.382V12H248.842ZM96.98 34H99.54V43.94L107.06 34H109.48V48H106.92V38.08L99.4 48H96.98V34ZM125.645 34V48H123.045V42H115.805V48H113.205V34H115.805V39.78H123.045V34H125.645ZM135.852 48.2C134.426 48.2 133.139 47.8933 131.992 47.28C130.846 46.6533 129.946 45.7933 129.292 44.7C128.639 43.5933 128.312 42.36 128.312 41C128.312 39.64 128.639 38.4133 129.292 37.32C129.946 36.2133 130.846 35.3533 131.992 34.74C133.139 34.1133 134.426 33.8 135.852 33.8C137.279 33.8 138.566 34.1133 139.712 34.74C140.859 35.3533 141.759 36.2067 142.412 37.3C143.066 38.3933 143.392 39.6267 143.392 41C143.392 42.3733 143.066 43.6067 142.412 44.7C141.759 45.7933 140.859 46.6533 139.712 47.28C138.566 47.8933 137.279 48.2 135.852 48.2ZM135.852 45.92C136.786 45.92 137.626 45.7133 138.372 45.3C139.119 44.8733 139.706 44.2867 140.132 43.54C140.559 42.78 140.772 41.9333 140.772 41C140.772 40.0667 140.559 39.2267 140.132 38.48C139.706 37.72 139.119 37.1333 138.372 36.72C137.626 36.2933 136.786 36.08 135.852 36.08C134.919 36.08 134.079 36.2933 133.332 36.72C132.586 37.1333 131.999 37.72 131.572 38.48C131.146 39.2267 130.932 40.0667 130.932 41C130.932 41.9333 131.146 42.78 131.572 43.54C131.999 44.2867 132.586 44.8733 133.332 45.3C134.079 45.7133 134.919 45.92 135.852 45.92ZM155.287 40.72C156.18 40.96 156.86 41.3733 157.327 41.96C157.794 42.5333 158.027 43.2533 158.027 44.12C158.027 45.3467 157.574 46.3 156.667 46.98C155.76 47.66 154.447 48 152.727 48H146.087V34H152.347C153.92 34 155.147 34.3133 156.027 34.94C156.907 35.5667 157.347 36.4533 157.347 37.6C157.347 38.3333 157.167 38.9667 156.807 39.5C156.46 40.0333 155.954 40.44 155.287 40.72ZM148.647 39.98H152.127C152.967 39.98 153.607 39.8133 154.047 39.48C154.487 39.1467 154.707 38.6533 154.707 38C154.707 37.3467 154.487 36.8533 154.047 36.52C153.607 36.1733 152.967 36 152.127 36H148.647V39.98ZM152.647 46C154.487 46 155.407 45.3067 155.407 43.92C155.407 42.56 154.487 41.88 152.647 41.88H148.647V46H152.647ZM170.069 44.76H163.069L161.689 48H159.009L165.309 34H167.869L174.189 48H171.469L170.069 44.76ZM169.209 42.72L166.569 36.6L163.949 42.72H169.209ZM190.436 45.8V51.08H188.036V48H176.156V34H178.716V45.8H185.776V34H188.356V45.8H190.436ZM192.635 34H195.195V43.94L202.715 34H205.135V48H202.575V38.08L195.055 48H192.635V34ZM215.341 48.2C213.914 48.2 212.627 47.8933 211.481 47.28C210.334 46.6533 209.434 45.7933 208.781 44.7C208.127 43.5933 207.801 42.36 207.801 41C207.801 39.64 208.127 38.4133 208.781 37.32C209.434 36.2133 210.334 35.3533 211.481 34.74C212.627 34.1133 213.914 33.8 215.341 33.8C216.767 33.8 218.054 34.1133 219.201 34.74C220.347 35.3533 221.247 36.2067 221.901 37.3C222.554 38.3933 222.881 39.6267 222.881 41C222.881 42.3733 222.554 43.6067 221.901 44.7C221.247 45.7933 220.347 46.6533 219.201 47.28C218.054 47.8933 216.767 48.2 215.341 48.2ZM215.341 45.92C216.274 45.92 217.114 45.7133 217.861 45.3C218.607 44.8733 219.194 44.2867 219.621 43.54C220.047 42.78 220.261 41.9333 220.261 41C220.261 40.0667 220.047 39.2267 219.621 38.48C219.194 37.72 218.607 37.1333 217.861 36.72C217.114 36.2933 216.274 36.08 215.341 36.08C214.407 36.08 213.567 36.2933 212.821 36.72C212.074 37.1333 211.487 37.72 211.061 38.48C210.634 39.2267 210.421 40.0667 210.421 41C210.421 41.9333 210.634 42.78 211.061 43.54C211.487 44.2867 212.074 44.8733 212.821 45.3C213.567 45.7133 214.407 45.92 215.341 45.92ZM237.995 34V48H235.395V42H228.155V48H225.555V34H228.155V39.78H235.395V34H237.995ZM252.222 45.82V48H241.722V34H251.942V36.18H244.322V39.82H251.082V41.96H244.322V45.82H252.222ZM267.361 34V48H264.761V42H257.521V48H254.921V34H257.521V39.78H264.761V34H267.361ZM292.415 40.98C292.415 42.82 291.775 44.2733 290.495 45.34C289.215 46.4067 287.395 46.9867 285.035 47.08V48.56H282.635V47.08C280.275 46.96 278.449 46.3733 277.155 45.32C275.875 44.2667 275.235 42.82 275.235 40.98C275.235 39.14 275.875 37.6933 277.155 36.64C278.449 35.5733 280.275 34.98 282.635 34.86V33.44H285.035V34.86C287.395 34.98 289.215 35.5733 290.495 36.64C291.775 37.6933 292.415 39.14 292.415 40.98ZM285.035 45.04C286.635 44.92 287.849 44.52 288.675 43.84C289.502 43.1467 289.915 42.1867 289.915 40.96C289.915 39.7333 289.495 38.78 288.655 38.1C287.829 37.42 286.622 37.0267 285.035 36.92V45.04ZM277.775 40.98C277.775 42.1933 278.189 43.14 279.015 43.82C279.855 44.5 281.062 44.9067 282.635 45.04V36.92C279.395 37.16 277.775 38.5133 277.775 40.98ZM301.426 48.2C299.999 48.2 298.713 47.8933 297.566 47.28C296.419 46.6533 295.519 45.7933 294.866 44.7C294.213 43.5933 293.886 42.36 293.886 41C293.886 39.64 294.213 38.4133 294.866 37.32C295.519 36.2133 296.419 35.3533 297.566 34.74C298.713 34.1133 299.999 33.8 301.426 33.8C302.853 33.8 304.139 34.1133 305.286 34.74C306.433 35.3533 307.333 36.2067 307.986 37.3C308.639 38.3933 308.966 39.6267 308.966 41C308.966 42.3733 308.639 43.6067 307.986 44.7C307.333 45.7933 306.433 46.6533 305.286 47.28C304.139 47.8933 302.853 48.2 301.426 48.2ZM301.426 45.92C302.359 45.92 303.199 45.7133 303.946 45.3C304.693 44.8733 305.279 44.2867 305.706 43.54C306.133 42.78 306.346 41.9333 306.346 41C306.346 40.0667 306.133 39.2267 305.706 38.48C305.279 37.72 304.693 37.1333 303.946 36.72C303.199 36.2933 302.359 36.08 301.426 36.08C300.493 36.08 299.653 36.2933 298.906 36.72C298.159 37.1333 297.573 37.72 297.146 38.48C296.719 39.2267 296.506 40.0667 296.506 41C296.506 41.9333 296.719 42.78 297.146 43.54C297.573 44.2867 298.159 44.8733 298.906 45.3C299.653 45.7133 300.493 45.92 301.426 45.92ZM324.08 34V48H321.48V42H314.24V48H311.64V34H314.24V39.78H321.48V34H324.08ZM341.551 45.8V50.98H339.151V48H328.411V50.98H325.991L326.011 45.8H326.611C327.491 45.76 328.104 45.1133 328.451 43.86C328.811 42.5933 329.031 40.7867 329.111 38.44L329.271 34H339.531V45.8H341.551ZM331.391 38.68C331.324 40.4933 331.178 42.0067 330.951 43.22C330.724 44.42 330.364 45.28 329.871 45.8H336.971V36.2H331.491L331.391 38.68Z" fill="black"/>
<path d="M96.188 68V59.6H97.46L101.144 65.732H100.46L104.084 59.6H105.356L105.38 68H103.892L103.88 61.916H104.192L101.12 67.04H100.424L97.304 61.916H97.664V68H96.188ZM107.743 68V59.6H109.279V65.564L113.791 59.6H115.243V68H113.707V62.048L109.195 68H107.743ZM123.502 68V59.6H125.062V68H123.502ZM117.598 68V59.6H119.158V68H117.598ZM119.026 64.4V63.068H123.622V64.4H119.026ZM127.43 68V59.6H128.966V65.564L133.478 59.6H134.93V68H133.394V62.048L128.882 68H127.43ZM141.149 68.12C140.509 68.12 139.913 68.016 139.361 67.808C138.817 67.592 138.341 67.292 137.933 66.908C137.533 66.516 137.221 66.056 136.997 65.528C136.773 65 136.661 64.424 136.661 63.8C136.661 63.176 136.773 62.6 136.997 62.072C137.221 61.544 137.537 61.088 137.945 60.704C138.353 60.312 138.829 60.012 139.373 59.804C139.917 59.588 140.513 59.48 141.161 59.48C141.849 59.48 142.477 59.6 143.045 59.84C143.613 60.072 144.093 60.42 144.485 60.884L143.477 61.832C143.173 61.504 142.833 61.26 142.457 61.1C142.081 60.932 141.673 60.848 141.233 60.848C140.793 60.848 140.389 60.92 140.021 61.064C139.661 61.208 139.345 61.412 139.073 61.676C138.809 61.94 138.601 62.252 138.449 62.612C138.305 62.972 138.233 63.368 138.233 63.8C138.233 64.232 138.305 64.628 138.449 64.988C138.601 65.348 138.809 65.66 139.073 65.924C139.345 66.188 139.661 66.392 140.021 66.536C140.389 66.68 140.793 66.752 141.233 66.752C141.673 66.752 142.081 66.672 142.457 66.512C142.833 66.344 143.173 66.092 143.477 65.756L144.485 66.716C144.093 67.172 143.613 67.52 143.045 67.76C142.477 68 141.845 68.12 141.149 68.12ZM147.51 68V60.536L147.882 60.92H144.738V59.6H151.842V60.92H148.698L149.058 60.536V68H147.51ZM153.188 68V59.6H159.32V60.908H154.748V66.692H159.488V68H153.188ZM154.628 64.376V63.092H158.804V64.376H154.628ZM161.227 68V59.6H164.683C165.427 59.6 166.063 59.72 166.591 59.96C167.127 60.2 167.539 60.544 167.827 60.992C168.115 61.44 168.259 61.972 168.259 62.588C168.259 63.204 168.115 63.736 167.827 64.184C167.539 64.632 167.127 64.976 166.591 65.216C166.063 65.456 165.427 65.576 164.683 65.576H162.091L162.787 64.844V68H161.227ZM162.787 65.012L162.091 64.256H164.611C165.299 64.256 165.815 64.112 166.159 63.824C166.511 63.528 166.687 63.116 166.687 62.588C166.687 62.052 166.511 61.64 166.159 61.352C165.815 61.064 165.299 60.92 164.611 60.92H162.091L162.787 60.152V65.012ZM173.716 68.12C173.076 68.12 172.48 68.016 171.928 67.808C171.384 67.592 170.908 67.292 170.5 66.908C170.1 66.516 169.788 66.056 169.564 65.528C169.34 65 169.228 64.424 169.228 63.8C169.228 63.176 169.34 62.6 169.564 62.072C169.788 61.544 170.104 61.088 170.512 60.704C170.92 60.312 171.396 60.012 171.94 59.804C172.484 59.588 173.08 59.48 173.728 59.48C174.416 59.48 175.044 59.6 175.612 59.84C176.18 60.072 176.66 60.42 177.052 60.884L176.044 61.832C175.74 61.504 175.4 61.26 175.024 61.1C174.648 60.932 174.24 60.848 173.8 60.848C173.36 60.848 172.956 60.92 172.588 61.064C172.228 61.208 171.912 61.412 171.64 61.676C171.376 61.94 171.168 62.252 171.016 62.612C170.872 62.972 170.8 63.368 170.8 63.8C170.8 64.232 170.872 64.628 171.016 64.988C171.168 65.348 171.376 65.66 171.64 65.924C171.912 66.188 172.228 66.392 172.588 66.536C172.956 66.68 173.36 66.752 173.8 66.752C174.24 66.752 174.648 66.672 175.024 66.512C175.4 66.344 175.74 66.092 176.044 65.756L177.052 66.716C176.66 67.172 176.18 67.52 175.612 67.76C175.044 68 174.412 68.12 173.716 68.12ZM180.077 68V60.536L180.449 60.92H177.305V59.6H184.409V60.92H181.265L181.625 60.536V68H180.077ZM185.766 68V59.6H189.522C190.466 59.6 191.202 59.788 191.73 60.164C192.258 60.532 192.522 61.064 192.522 61.76C192.522 62.448 192.27 62.98 191.766 63.356C191.262 63.724 190.598 63.908 189.774 63.908L189.99 63.476C190.926 63.476 191.65 63.664 192.162 64.04C192.674 64.416 192.93 64.96 192.93 65.672C192.93 66.4 192.662 66.972 192.126 67.388C191.59 67.796 190.798 68 189.75 68H185.766ZM187.302 66.8H189.702C190.246 66.8 190.658 66.7 190.938 66.5C191.218 66.292 191.358 65.976 191.358 65.552C191.358 65.128 191.218 64.82 190.938 64.628C190.658 64.428 190.246 64.328 189.702 64.328H187.302V66.8ZM187.302 63.188H189.39C189.894 63.188 190.278 63.088 190.542 62.888C190.806 62.68 190.938 62.384 190.938 62C190.938 61.6 190.806 61.3 190.542 61.1C190.278 60.9 189.894 60.8 189.39 60.8H187.302V63.188ZM198.607 68.12C197.951 68.12 197.347 68.012 196.795 67.796C196.243 67.58 195.763 67.28 195.355 66.896C194.947 66.504 194.631 66.048 194.407 65.528C194.183 65 194.071 64.424 194.071 63.8C194.071 63.176 194.183 62.604 194.407 62.084C194.631 61.556 194.947 61.1 195.355 60.716C195.763 60.324 196.243 60.02 196.795 59.804C197.347 59.588 197.947 59.48 198.595 59.48C199.251 59.48 199.851 59.588 200.395 59.804C200.947 60.02 201.427 60.324 201.835 60.716C202.243 61.1 202.559 61.556 202.783 62.084C203.007 62.604 203.119 63.176 203.119 63.8C203.119 64.424 203.007 65 202.783 65.528C202.559 66.056 202.243 66.512 201.835 66.896C201.427 67.28 200.947 67.58 200.395 67.796C199.851 68.012 199.255 68.12 198.607 68.12ZM198.595 66.752C199.019 66.752 199.411 66.68 199.771 66.536C200.131 66.392 200.443 66.188 200.707 65.924C200.971 65.652 201.175 65.34 201.319 64.988C201.471 64.628 201.547 64.232 201.547 63.8C201.547 63.368 201.471 62.976 201.319 62.624C201.175 62.264 200.971 61.952 200.707 61.688C200.443 61.416 200.131 61.208 199.771 61.064C199.411 60.92 199.019 60.848 198.595 60.848C198.171 60.848 197.779 60.92 197.419 61.064C197.067 61.208 196.755 61.416 196.483 61.688C196.219 61.952 196.011 62.264 195.859 62.624C195.715 62.976 195.643 63.368 195.643 63.8C195.643 64.224 195.715 64.616 195.859 64.976C196.011 65.336 196.219 65.652 196.483 65.924C196.747 66.188 197.059 66.392 197.419 66.536C197.779 66.68 198.171 66.752 198.595 66.752ZM214.064 68V59.6H215.624V68H214.064ZM208.16 68V59.6H209.72V68H208.16ZM209.588 64.4V63.068H214.184V64.4H209.588ZM216.913 68L220.693 59.6H222.229L226.021 68H224.389L221.137 60.428H221.761L218.521 68H216.913ZM218.653 66.056L219.073 64.832H223.609L224.029 66.056H218.653ZM230.637 68V59.6H232.173V65.564L236.685 59.6H238.137V68H236.601V62.048L232.089 68H230.637ZM246.396 68V59.6H247.956V68H246.396ZM240.492 68V59.6H242.052V68H240.492ZM241.92 64.4V63.068H246.516V64.4H241.92ZM254.213 68.12C253.557 68.12 252.953 68.012 252.401 67.796C251.849 67.58 251.369 67.28 250.961 66.896C250.553 66.504 250.237 66.048 250.013 65.528C249.789 65 249.677 64.424 249.677 63.8C249.677 63.176 249.789 62.604 250.013 62.084C250.237 61.556 250.553 61.1 250.961 60.716C251.369 60.324 251.849 60.02 252.401 59.804C252.953 59.588 253.553 59.48 254.201 59.48C254.857 59.48 255.457 59.588 256.001 59.804C256.553 60.02 257.033 60.324 257.441 60.716C257.849 61.1 258.165 61.556 258.389 62.084C258.613 62.604 258.725 63.176 258.725 63.8C258.725 64.424 258.613 65 258.389 65.528C258.165 66.056 257.849 66.512 257.441 66.896C257.033 67.28 256.553 67.58 256.001 67.796C255.457 68.012 254.861 68.12 254.213 68.12ZM254.201 66.752C254.625 66.752 255.017 66.68 255.377 66.536C255.737 66.392 256.049 66.188 256.313 65.924C256.577 65.652 256.781 65.34 256.925 64.988C257.077 64.628 257.153 64.232 257.153 63.8C257.153 63.368 257.077 62.976 256.925 62.624C256.781 62.264 256.577 61.952 256.313 61.688C256.049 61.416 255.737 61.208 255.377 61.064C255.017 60.92 254.625 60.848 254.201 60.848C253.777 60.848 253.385 60.92 253.025 61.064C252.673 61.208 252.361 61.416 252.089 61.688C251.825 61.952 251.617 62.264 251.465 62.624C251.321 62.976 251.249 63.368 251.249 63.8C251.249 64.224 251.321 64.616 251.465 64.976C251.617 65.336 251.825 65.652 252.089 65.924C252.353 66.188 252.665 66.392 253.025 66.536C253.385 66.68 253.777 66.752 254.201 66.752ZM260.461 68V59.6H264.217C265.161 59.6 265.897 59.788 266.425 60.164C266.953 60.532 267.217 61.064 267.217 61.76C267.217 62.448 266.965 62.98 266.461 63.356C265.957 63.724 265.293 63.908 264.469 63.908L264.685 63.476C265.621 63.476 266.345 63.664 266.857 64.04C267.369 64.416 267.625 64.96 267.625 65.672C267.625 66.4 267.357 66.972 266.821 67.388C266.285 67.796 265.493 68 264.445 68H260.461ZM261.997 66.8H264.397C264.941 66.8 265.353 66.7 265.633 66.5C265.913 66.292 266.053 65.976 266.053 65.552C266.053 65.128 265.913 64.82 265.633 64.628C265.353 64.428 264.941 64.328 264.397 64.328H261.997V66.8ZM261.997 63.188H264.085C264.589 63.188 264.973 63.088 265.237 62.888C265.501 62.68 265.633 62.384 265.633 62C265.633 61.6 265.501 61.3 265.237 61.1C264.973 60.9 264.589 60.8 264.085 60.8H261.997V63.188ZM268.335 68L272.115 59.6H273.651L277.443 68H275.811L272.559 60.428H273.183L269.943 68H268.335ZM270.075 66.056L270.495 64.832H275.031L275.451 66.056H270.075ZM278.743 68V59.6H280.279V66.68H284.515V59.6H286.063V68H278.743ZM285.871 69.848V67.616L286.219 68H284.515V66.68H287.311V69.848H285.871ZM288.751 68V59.6H290.287V65.564L294.799 59.6H296.251V68H294.715V62.048L290.203 68H288.751ZM298.618 68V59.6H300.154V65.564L304.666 59.6H306.118V68H304.582V62.048L300.07 68H298.618ZM310.237 68V60.536L310.609 60.92H307.465V59.6H314.569V60.92H311.425L311.785 60.536V68H310.237ZM315.914 68V59.6H322.046V60.908H317.474V66.692H322.214V68H315.914ZM317.354 64.376V63.092H321.53V64.376H317.354ZM327.282 68V59.6H328.818V65.564L333.33 59.6H334.782V68H333.246V62.048L328.734 68H327.282ZM97.136 81.92L95.456 81.68C95.76 81.696 96.008 81.592 96.2 81.368C96.4 81.144 96.556 80.832 96.668 80.432C96.78 80.032 96.864 79.564 96.92 79.028C96.976 78.484 97.016 77.896 97.04 77.264L97.136 74.6H103.292V82.28H101.756V75.92H98.468L98.408 77.408C98.384 77.968 98.348 78.5 98.3 79.004C98.26 79.5 98.192 79.952 98.096 80.36C98.008 80.768 97.884 81.108 97.724 81.38C97.564 81.652 97.368 81.832 97.136 81.92ZM95.168 84.788L95.18 81.68H104.504V84.788H103.064V83H96.62V84.788H95.168ZM105.985 83V74.6H107.521V80.564L112.033 74.6H113.485V83H111.949V77.048L107.437 83H105.985ZM115.852 83V74.6H121.552L121.54 75.92H117.016L117.376 75.548L117.388 83H115.852ZM122.872 83V74.6H124.408V80.564L128.92 74.6H130.372V83H128.836V77.048L124.324 83H122.872ZM134.491 83V75.536L134.863 75.92H131.719V74.6H138.823V75.92H135.679L136.039 75.536V83H134.491ZM138.678 83L142.458 74.6H143.994L147.786 83H146.154L142.902 75.428H143.526L140.286 83H138.678ZM140.418 81.056L140.838 79.832H145.374L145.794 81.056H140.418ZM148.93 83.12C148.794 83.12 148.658 83.108 148.522 83.084C148.386 83.06 148.238 83.032 148.078 83L148.186 81.644C148.298 81.676 148.418 81.692 148.546 81.692C148.882 81.692 149.15 81.556 149.35 81.284C149.55 81.004 149.694 80.596 149.782 80.06C149.87 79.524 149.93 78.864 149.962 78.08L150.082 74.6H156.262V83H154.726V75.536L155.086 75.92H151.09L151.426 75.524L151.342 78.02C151.318 78.852 151.262 79.584 151.174 80.216C151.086 80.848 150.95 81.38 150.766 81.812C150.59 82.236 150.354 82.56 150.058 82.784C149.762 83.008 149.386 83.12 148.93 83.12ZM164.529 83V74.6H166.089V83H164.529ZM158.625 83V74.6H160.185V83H158.625ZM160.053 79.4V78.068H164.649V79.4H160.053ZM167.378 83L171.158 74.6H172.694L176.486 83H174.854L171.602 75.428H172.226L168.986 83H167.378ZM169.118 81.056L169.538 79.832H174.074L174.494 81.056H169.118ZM179.116 83V75.536L179.488 75.92H176.344V74.6H183.448V75.92H180.304L180.664 75.536V83H179.116ZM183.303 83L187.083 74.6H188.619L192.411 83H190.779L187.527 75.428H188.151L184.911 83H183.303ZM185.043 81.056L185.463 79.832H189.999L190.419 81.056H185.043ZM198.78 83V75.536L199.152 75.92H196.008V74.6H203.112V75.92H199.968L200.328 75.536V83H198.78ZM204.457 83V74.6H207.913C208.657 74.6 209.293 74.72 209.821 74.96C210.357 75.2 210.769 75.544 211.057 75.992C211.345 76.44 211.489 76.972 211.489 77.588C211.489 78.204 211.345 78.736 211.057 79.184C210.769 79.632 210.357 79.976 209.821 80.216C209.293 80.456 208.657 80.576 207.913 80.576H205.321L206.017 79.844V83H204.457ZM206.017 80.012L205.321 79.256H207.841C208.529 79.256 209.045 79.112 209.389 78.824C209.741 78.528 209.917 78.116 209.917 77.588C209.917 77.052 209.741 76.64 209.389 76.352C209.045 76.064 208.529 75.92 207.841 75.92H205.321L206.017 75.152V80.012ZM211.475 83L215.255 74.6H216.791L220.583 83H218.951L215.699 75.428H216.323L213.083 83H211.475ZM213.215 81.056L213.635 79.832H218.171L218.591 81.056H213.215ZM227.775 83V74.6H229.335V83H227.775ZM221.871 83V74.6H223.431V83H221.871ZM223.299 79.4V78.068H227.895V79.4H223.299ZM235.556 83.12C234.916 83.12 234.32 83.016 233.768 82.808C233.224 82.592 232.748 82.292 232.34 81.908C231.94 81.516 231.628 81.056 231.404 80.528C231.18 80 231.068 79.424 231.068 78.8C231.068 78.176 231.18 77.6 231.404 77.072C231.628 76.544 231.944 76.088 232.352 75.704C232.76 75.312 233.236 75.012 233.78 74.804C234.324 74.588 234.92 74.48 235.568 74.48C236.256 74.48 236.884 74.6 237.452 74.84C238.02 75.072 238.5 75.42 238.892 75.884L237.884 76.832C237.58 76.504 237.24 76.26 236.864 76.1C236.488 75.932 236.08 75.848 235.64 75.848C235.2 75.848 234.796 75.92 234.428 76.064C234.068 76.208 233.752 76.412 233.48 76.676C233.216 76.94 233.008 77.252 232.856 77.612C232.712 77.972 232.64 78.368 232.64 78.8C232.64 79.232 232.712 79.628 232.856 79.988C233.008 80.348 233.216 80.66 233.48 80.924C233.752 81.188 234.068 81.392 234.428 81.536C234.796 81.68 235.2 81.752 235.64 81.752C236.08 81.752 236.488 81.672 236.864 81.512C237.24 81.344 237.58 81.092 237.884 80.756L238.892 81.716C238.5 82.172 238.02 82.52 237.452 82.76C236.884 83 236.252 83.12 235.556 83.12ZM244.202 82.46C243.146 82.46 242.246 82.316 241.502 82.028C240.766 81.74 240.202 81.324 239.81 80.78C239.418 80.228 239.222 79.564 239.222 78.788C239.222 77.996 239.418 77.328 239.81 76.784C240.202 76.24 240.766 75.824 241.502 75.536C242.246 75.248 243.146 75.104 244.202 75.104C244.218 75.104 244.254 75.104 244.31 75.104C244.374 75.104 244.434 75.104 244.49 75.104C244.554 75.104 244.59 75.104 244.598 75.104C245.646 75.104 246.538 75.248 247.274 75.536C248.01 75.824 248.57 76.244 248.954 76.796C249.338 77.34 249.53 78.004 249.53 78.788C249.53 79.556 249.338 80.216 248.954 80.768C248.578 81.32 248.026 81.74 247.298 82.028C246.578 82.316 245.698 82.46 244.658 82.46C244.642 82.46 244.598 82.46 244.526 82.46C244.462 82.46 244.394 82.46 244.322 82.46C244.258 82.46 244.218 82.46 244.202 82.46ZM244.358 81.248C244.374 81.248 244.398 81.248 244.43 81.248C244.462 81.248 244.482 81.248 244.49 81.248C245.266 81.24 245.914 81.144 246.434 80.96C246.962 80.776 247.358 80.504 247.622 80.144C247.894 79.776 248.03 79.32 248.03 78.776C248.03 78.232 247.894 77.78 247.622 77.42C247.35 77.06 246.954 76.788 246.434 76.604C245.914 76.42 245.274 76.328 244.514 76.328C244.506 76.328 244.482 76.328 244.442 76.328C244.402 76.328 244.374 76.328 244.358 76.328C243.566 76.328 242.898 76.42 242.354 76.604C241.818 76.78 241.414 77.052 241.142 77.42C240.878 77.78 240.746 78.236 240.746 78.788C240.746 79.34 240.886 79.8 241.166 80.168C241.454 80.528 241.866 80.8 242.402 80.984C242.938 81.16 243.59 81.248 244.358 81.248ZM243.662 83.336V74.264H245.102V83.336H243.662ZM255.068 83.12C254.412 83.12 253.808 83.012 253.256 82.796C252.704 82.58 252.224 82.28 251.816 81.896C251.408 81.504 251.092 81.048 250.868 80.528C250.644 80 250.532 79.424 250.532 78.8C250.532 78.176 250.644 77.604 250.868 77.084C251.092 76.556 251.408 76.1 251.816 75.716C252.224 75.324 252.704 75.02 253.256 74.804C253.808 74.588 254.408 74.48 255.056 74.48C255.712 74.48 256.312 74.588 256.856 74.804C257.408 75.02 257.888 75.324 258.296 75.716C258.704 76.1 259.02 76.556 259.244 77.084C259.468 77.604 259.58 78.176 259.58 78.8C259.58 79.424 259.468 80 259.244 80.528C259.02 81.056 258.704 81.512 258.296 81.896C257.888 82.28 257.408 82.58 256.856 82.796C256.312 83.012 255.716 83.12 255.068 83.12ZM255.056 81.752C255.48 81.752 255.872 81.68 256.232 81.536C256.592 81.392 256.904 81.188 257.168 80.924C257.432 80.652 257.636 80.34 257.78 79.988C257.932 79.628 258.008 79.232 258.008 78.8C258.008 78.368 257.932 77.976 257.78 77.624C257.636 77.264 257.432 76.952 257.168 76.688C256.904 76.416 256.592 76.208 256.232 76.064C255.872 75.92 255.48 75.848 255.056 75.848C254.632 75.848 254.24 75.92 253.88 76.064C253.528 76.208 253.216 76.416 252.944 76.688C252.68 76.952 252.472 77.264 252.32 77.624C252.176 77.976 252.104 78.368 252.104 78.8C252.104 79.224 252.176 79.616 252.32 79.976C252.472 80.336 252.68 80.652 252.944 80.924C253.208 81.188 253.52 81.392 253.88 81.536C254.24 81.68 254.632 81.752 255.056 81.752ZM261.305 83V74.6H264.761C265.505 74.6 266.141 74.72 266.669 74.96C267.205 75.2 267.617 75.544 267.905 75.992C268.193 76.44 268.337 76.972 268.337 77.588C268.337 78.204 268.193 78.736 267.905 79.184C267.617 79.632 267.205 79.976 266.669 80.216C266.141 80.456 265.505 80.576 264.761 80.576H262.169L262.865 79.844V83H261.305ZM262.865 80.012L262.169 79.256H264.689C265.377 79.256 265.893 79.112 266.237 78.824C266.589 78.528 266.765 78.116 266.765 77.588C266.765 77.052 266.589 76.64 266.237 76.352C265.893 76.064 265.377 75.92 264.689 75.92H262.169L262.865 75.152V80.012ZM269.825 83V74.6H271.097L274.781 80.732H274.097L277.721 74.6H278.993L279.017 83H277.529L277.517 76.916H277.829L274.757 82.04H274.061L270.941 76.916H271.301V83H269.825ZM280.299 83L284.079 74.6H285.615L289.407 83H287.775L284.523 75.428H285.147L281.907 83H280.299ZM282.039 81.056L282.459 79.832H286.995L287.415 81.056H282.039ZM290.708 83V74.6H292.244V81.68H296.48V74.6H298.028V83H290.708ZM297.836 84.848V82.616L298.184 83H296.48V81.68H299.276V84.848H297.836ZM300.715 83V74.6H302.251V80.564L306.763 74.6H308.215V83H306.679V77.048L302.167 83H300.715ZM315.22 83V80.312L315.604 80.66H313.144C312.44 80.66 311.832 80.544 311.32 80.312C310.816 80.072 310.428 79.732 310.156 79.292C309.884 78.844 309.748 78.308 309.748 77.684C309.748 77.036 309.892 76.484 310.18 76.028C310.468 75.564 310.876 75.212 311.404 74.972C311.932 74.724 312.552 74.6 313.264 74.6H316.756V83H315.22ZM309.772 83L311.848 80H313.42L311.416 83H309.772ZM315.22 79.808V75.488L315.604 75.92H313.312C312.672 75.92 312.18 76.068 311.836 76.364C311.5 76.652 311.332 77.084 311.332 77.66C311.332 78.212 311.492 78.64 311.812 78.944C312.14 79.24 312.62 79.388 313.252 79.388H315.604L315.22 79.808Z" fill="black"/>
<defs>
<clipPath id="clip0_4551_6507">
<rect width="75" height="94" fill="white"/>
</clipPath>
</defs>
</svg>
